M48
; DRILL file {KiCad (6.0.5)} date Thu Jul 14 17:11:25 2022
; FORMAT={-:-/ absolute / inch / decimal}
; #@! TF.CreationDate,2022-07-14T17:11:25-07:00
; #@! TF.GenerationSoftware,Kicad,Pcbnew,(6.0.5)
; #@! TF.FileFunction,Plated,1,2,PTH
FMAT,2
INCH
; #@! TA.AperFunction,Plated,PTH,ViaDrill
T1C0.0079
; #@! TA.AperFunction,Plated,PTH,ComponentDrill
T2C0.0079
; #@! TA.AperFunction,Plated,PTH,ViaDrill
T3C0.0157
; #@! TA.AperFunction,Plated,PTH,ComponentDrill
T4C0.0276
; #@! TA.AperFunction,Plated,PTH,ComponentDrill
T5C0.0787
%
G90
G05
T1
X4.26Y-3.64
X4.26Y-3.72
X4.26Y-3.805
X4.26Y-3.885
X4.26Y-3.97
X4.26Y-4.05
X4.26Y-4.135
X4.26Y-4.215
X4.26Y-4.3
X4.26Y-4.38
X4.26Y-4.465
X4.26Y-4.55
X4.26Y-4.63
X4.26Y-4.715
X4.26Y-4.795
X4.26Y-4.875
X4.345Y-3.64
X4.345Y-3.72
X4.345Y-3.805
X4.345Y-3.885
X4.345Y-3.97
X4.345Y-4.05
X4.345Y-4.135
X4.345Y-4.215
X4.345Y-4.3
X4.345Y-4.38
X4.345Y-4.465
X4.345Y-4.55
X4.345Y-4.63
X4.345Y-4.715
X4.345Y-4.795
X4.345Y-4.875
X4.43Y-3.64
X4.43Y-3.72
X4.43Y-3.805
X4.43Y-3.885
X4.43Y-3.97
X4.43Y-4.05
X4.43Y-4.135
X4.43Y-4.215
X4.43Y-4.3
X4.43Y-4.38
X4.43Y-4.465
X4.43Y-4.55
X4.43Y-4.63
X4.43Y-4.715
X4.43Y-4.795
X4.43Y-4.875
X4.51Y-3.64
X4.51Y-3.72
X4.51Y-3.805
X4.51Y-3.885
X4.51Y-3.97
X4.51Y-4.05
X4.51Y-4.135
X4.51Y-4.215
X4.51Y-4.3
X4.51Y-4.38
X4.51Y-4.465
X4.51Y-4.55
X4.51Y-4.63
X4.51Y-4.715
X4.51Y-4.795
X4.51Y-4.875
X4.595Y-3.64
X4.595Y-3.72
X4.595Y-3.805
X4.595Y-3.885
X4.595Y-3.97
X4.595Y-4.05
X4.595Y-4.135
X4.595Y-4.215
X4.595Y-4.3
X4.595Y-4.38
X4.595Y-4.465
X4.595Y-4.55
X4.595Y-4.63
X4.595Y-4.715
X4.595Y-4.795
X4.595Y-4.875
X4.675Y-3.64
X4.675Y-3.72
X4.675Y-3.805
X4.675Y-3.885
X4.675Y-3.97
X4.675Y-4.05
X4.675Y-4.135
X4.675Y-4.215
X4.675Y-4.3
X4.675Y-4.38
X4.675Y-4.465
X4.675Y-4.55
X4.675Y-4.63
X4.675Y-4.715
X4.675Y-4.795
X4.675Y-4.875
X4.76Y-3.64
X4.76Y-3.72
X4.76Y-3.805
X4.76Y-3.885
X4.76Y-3.97
X4.76Y-4.05
X4.76Y-4.135
X4.76Y-4.215
X4.76Y-4.3
X4.76Y-4.38
X4.76Y-4.465
X4.76Y-4.55
X4.76Y-4.63
X4.76Y-4.715
X4.76Y-4.795
X4.76Y-4.875
X4.84Y-3.64
X4.84Y-3.72
X4.84Y-3.805
X4.84Y-3.885
X4.84Y-3.97
X4.84Y-4.05
X4.84Y-4.135
X4.84Y-4.215
X4.84Y-4.3
X4.84Y-4.38
X4.84Y-4.465
X4.84Y-4.55
X4.84Y-4.63
X4.84Y-4.715
X4.84Y-4.795
X4.84Y-4.875
X4.925Y-3.64
X4.925Y-3.72
X4.925Y-3.805
X4.925Y-3.885
X4.925Y-3.97
X4.925Y-4.05
X4.925Y-4.135
X4.925Y-4.215
X4.925Y-4.3
X4.925Y-4.38
X4.925Y-4.465
X4.925Y-4.55
X4.925Y-4.63
X4.925Y-4.715
X4.925Y-4.795
X4.925Y-4.875
X5.005Y-3.64
X5.005Y-3.72
X5.005Y-3.805
X5.005Y-3.885
X5.005Y-3.97
X5.005Y-4.05
X5.005Y-4.135
X5.005Y-4.215
X5.005Y-4.3
X5.005Y-4.38
X5.005Y-4.465
X5.005Y-4.55
X5.005Y-4.63
X5.005Y-4.715
X5.005Y-4.795
X5.005Y-4.875
X5.09Y-3.64
X5.09Y-3.72
X5.09Y-3.805
X5.09Y-3.885
X5.09Y-3.97
X5.09Y-4.05
X5.09Y-4.135
X5.09Y-4.215
X5.09Y-4.3
X5.09Y-4.38
X5.09Y-4.465
X5.09Y-4.55
X5.09Y-4.63
X5.09Y-4.715
X5.09Y-4.795
X5.09Y-4.875
X5.17Y-3.64
X5.17Y-3.72
X5.17Y-3.805
X5.17Y-3.885
X5.17Y-3.97
X5.17Y-4.05
X5.17Y-4.135
X5.17Y-4.215
X5.17Y-4.3
X5.17Y-4.38
X5.17Y-4.465
X5.17Y-4.55
X5.17Y-4.63
X5.17Y-4.715
X5.17Y-4.795
X5.17Y-4.875
X5.255Y-3.64
X5.255Y-3.72
X5.255Y-3.805
X5.255Y-3.885
X5.255Y-3.97
X5.255Y-4.05
X5.255Y-4.135
X5.255Y-4.215
X5.255Y-4.3
X5.255Y-4.38
X5.255Y-4.465
X5.255Y-4.55
X5.255Y-4.63
X5.255Y-4.715
X5.255Y-4.795
X5.255Y-4.875
X5.335Y-3.64
X5.335Y-3.72
X5.335Y-3.805
X5.335Y-3.885
X5.335Y-3.97
X5.335Y-4.05
X5.335Y-4.135
X5.335Y-4.215
X5.335Y-4.3
X5.335Y-4.38
X5.335Y-4.465
X5.335Y-4.55
X5.335Y-4.63
X5.335Y-4.715
X5.335Y-4.795
X5.335Y-4.875
X5.42Y-3.64
X5.42Y-3.72
X5.42Y-3.805
X5.42Y-3.885
X5.42Y-3.97
X5.42Y-4.05
X5.42Y-4.135
X5.42Y-4.215
X5.42Y-4.3
X5.42Y-4.38
X5.42Y-4.465
X5.42Y-4.55
X5.42Y-4.63
X5.42Y-4.715
X5.42Y-4.795
X5.42Y-4.875
X5.5031Y-3.6419
X5.5031Y-3.7219
X5.5031Y-3.8069
X5.5031Y-3.8869
X5.5031Y-3.9719
X5.5031Y-4.0519
X5.5031Y-4.1369
X5.5031Y-4.2169
X5.5031Y-4.3019
X5.5031Y-4.3819
X5.5031Y-4.4669
X5.5031Y-4.5519
X5.5031Y-4.6319
X5.5031Y-4.7169
X5.5031Y-4.7969
X5.5031Y-4.8769
T2
X6.8313Y-3.6614
X6.8605Y-3.6322
X6.8605Y-3.6906
X6.8898Y-3.603
X6.8898Y-3.6614
X6.8898Y-3.7199
X6.919Y-3.6322
X6.919Y-3.6906
X6.9482Y-3.6614
T3
X5.55Y-3.25
X5.55Y-3.68
X5.71Y-3.47
X5.83Y-3.46
X5.83Y-3.79
X5.91Y-3.38
X5.93Y-3.745
X6.045Y-3.535
X6.065Y-3.695
X6.065Y-3.995
X6.065Y-4.24
X6.11Y-3.855
X6.12Y-3.7
X6.14Y-3.38
X6.165Y-3.615
X6.1762Y-3.7885
X6.25Y-3.8
X6.29Y-3.62
X6.3Y-3.75
X6.345Y-3.68
X6.41Y-3.32
X6.5Y-3.75
X6.52Y-3.53
X6.64Y-3.32
X6.7829Y-3.8342
X6.8652Y-3.8415
X6.9901Y-3.7923
X7.0299Y-3.7992
T4
X6.635Y-3.5835
X6.635Y-3.7394
X6.6704Y-3.5481
X6.6704Y-3.7747
X6.7057Y-3.5128
X6.7057Y-3.8101
X6.7411Y-3.4774
X6.7411Y-3.8454
X6.7765Y-3.442
X6.7765Y-3.8808
X6.8118Y-3.4067
X6.8118Y-3.9161
X6.9677Y-3.4067
X6.9677Y-3.9161
X7.0031Y-3.442
X7.0031Y-3.8808
X7.0384Y-3.4774
X7.0384Y-3.8454
X7.0738Y-3.5128
X7.0738Y-3.8101
X7.1091Y-3.5481
X7.1091Y-3.7747
X7.1445Y-3.5835
X7.1445Y-3.7394
T5
X6.5472Y-3.1004
X6.7472Y-3.1004
X6.9472Y-3.1004
T0
M30
