%TF.GenerationSoftware,KiCad,Pcbnew,(6.0.5)*%
%TF.CreationDate,2022-07-14T17:11:25-07:00*%
%TF.ProjectId,PCBbuscard,50434262-7573-4636-9172-642e6b696361,rev?*%
%TF.SameCoordinates,Original*%
%TF.FileFunction,Copper,L2,Bot*%
%TF.FilePolarity,Positive*%
%FSLAX46Y46*%
G04 Gerber Fmt 4.6, Leading zero omitted, Abs format (unit mm)*
G04 Created by KiCad (PCBNEW (6.0.5)) date 2022-07-14 17:11:25*
%MOMM*%
%LPD*%
G01*
G04 APERTURE LIST*
G04 Aperture macros list*
%AMHorizOval*
0 Thick line with rounded ends*
0 $1 width*
0 $2 $3 position (X,Y) of the first rounded end (center of the circle)*
0 $4 $5 position (X,Y) of the second rounded end (center of the circle)*
0 Add line between two ends*
20,1,$1,$2,$3,$4,$5,0*
0 Add two circle primitives to create the rounded ends*
1,1,$1,$2,$3*
1,1,$1,$4,$5*%
%AMRotRect*
0 Rectangle, with rotation*
0 The origin of the aperture is its center*
0 $1 length*
0 $2 width*
0 $3 Rotation angle, in degrees counterclockwise*
0 Add horizontal line*
21,1,$1,$2,0,0,$3*%
G04 Aperture macros list end*
%TA.AperFunction,ComponentPad*%
%ADD10C,3.000000*%
%TD*%
%TA.AperFunction,ComponentPad*%
%ADD11RotRect,1.000000X1.000000X45.000000*%
%TD*%
%TA.AperFunction,ComponentPad*%
%ADD12HorizOval,1.000000X0.000000X0.000000X0.000000X0.000000X0*%
%TD*%
%TA.AperFunction,ComponentPad*%
%ADD13RotRect,1.000000X1.000000X315.000000*%
%TD*%
%TA.AperFunction,ComponentPad*%
%ADD14HorizOval,1.000000X0.000000X0.000000X0.000000X0.000000X0*%
%TD*%
%TA.AperFunction,ComponentPad*%
%ADD15RotRect,1.000000X1.000000X135.000000*%
%TD*%
%TA.AperFunction,ComponentPad*%
%ADD16HorizOval,1.000000X0.000000X0.000000X0.000000X0.000000X0*%
%TD*%
%TA.AperFunction,ComponentPad*%
%ADD17C,0.500000*%
%TD*%
%TA.AperFunction,SMDPad,CuDef*%
%ADD18RotRect,2.600000X2.600000X135.000000*%
%TD*%
%TA.AperFunction,ComponentPad*%
%ADD19RotRect,1.000000X1.000000X225.000000*%
%TD*%
%TA.AperFunction,ComponentPad*%
%ADD20HorizOval,1.000000X0.000000X0.000000X0.000000X0.000000X0*%
%TD*%
%TA.AperFunction,ViaPad*%
%ADD21C,0.400000*%
%TD*%
%TA.AperFunction,ViaPad*%
%ADD22C,0.800000*%
%TD*%
%TA.AperFunction,Conductor*%
%ADD23C,0.250000*%
%TD*%
%TA.AperFunction,Conductor*%
%ADD24C,0.500000*%
%TD*%
G04 APERTURE END LIST*
D10*
%TO.P,TP1,1,1*%
%TO.N,VCC*%
X171380000Y-78750000D03*
%TD*%
%TO.P,TP2,1,1*%
%TO.N,GND*%
X166300000Y-78750000D03*
%TD*%
%TO.P,TP3,1,1*%
%TO.N,Net-(TP3-Pad1)*%
X176460000Y-78750000D03*
%TD*%
D11*
%TO.P,J15,1,Pin_1*%
%TO.N,/PC2*%
X168529973Y-94979899D03*
D12*
%TO.P,J15,2,Pin_2*%
%TO.N,/PC3*%
X169427999Y-95877925D03*
%TO.P,J15,3,Pin_3*%
%TO.N,/PC4*%
X170326024Y-96775950D03*
%TO.P,J15,4,Pin_4*%
%TO.N,/PC5*%
X171224050Y-97673976D03*
%TO.P,J15,5,Pin_5*%
%TO.N,unconnected-(J15-Pad5)*%
X172122075Y-98572001D03*
%TO.P,J15,6,Pin_6*%
%TO.N,/PA1*%
X173020101Y-99470027D03*
%TD*%
D13*
%TO.P,J18,1,Pin_1*%
%TO.N,/PB3*%
X173020101Y-86529973D03*
D14*
%TO.P,J18,2,Pin_2*%
%TO.N,/PB2*%
X172122075Y-87427999D03*
%TO.P,J18,3,Pin_3*%
%TO.N,/PB1*%
X171224050Y-88326024D03*
%TO.P,J18,4,Pin_4*%
%TO.N,/PB0*%
X170326024Y-89224050D03*
%TO.P,J18,5,Pin_5*%
%TO.N,/PC0*%
X169427999Y-90122075D03*
%TO.P,J18,6,Pin_6*%
%TO.N,/PC1*%
X168529973Y-91020101D03*
%TD*%
D15*
%TO.P,J7,1,Pin_1*%
%TO.N,/PA2*%
X176979900Y-99470028D03*
D16*
%TO.P,J7,2,Pin_2*%
%TO.N,/PA3*%
X177877926Y-98572002D03*
%TO.P,J7,3,Pin_3*%
%TO.N,unconnected-(J7-Pad3)*%
X178775951Y-97673977D03*
%TO.P,J7,4,Pin_4*%
%TO.N,unconnected-(J7-Pad4)*%
X179673977Y-96775951D03*
%TO.P,J7,5,Pin_5*%
%TO.N,/PA4*%
X180572002Y-95877926D03*
%TO.P,J7,6,Pin_6*%
%TO.N,/PA5*%
X181470028Y-94979900D03*
%TD*%
D17*
%TO.P,U5,25,GND*%
%TO.N,GND*%
X173515076Y-93000000D03*
X175742462Y-92257538D03*
X175000000Y-91515076D03*
X174257538Y-92257538D03*
X176484924Y-93000000D03*
X175000000Y-93000000D03*
X175742462Y-93742462D03*
X175000000Y-94484924D03*
D18*
X175000000Y-93000000D03*
D17*
X174257538Y-93742462D03*
%TD*%
D19*
%TO.P,J14,1,Pin_1*%
%TO.N,/PA6*%
X181470028Y-91020102D03*
D20*
%TO.P,J14,2,Pin_2*%
%TO.N,/PA7*%
X180572002Y-90122076D03*
%TO.P,J14,3,Pin_3*%
%TO.N,/PB7*%
X179673977Y-89224051D03*
%TO.P,J14,4,Pin_4*%
%TO.N,/PB6*%
X178775951Y-88326025D03*
%TO.P,J14,5,Pin_5*%
%TO.N,/PB5*%
X177877926Y-87428000D03*
%TO.P,J14,6,Pin_6*%
%TO.N,/PB4*%
X176979900Y-86529974D03*
%TD*%
D21*
%TO.N,Net-(D1-Pad2)*%
X108204000Y-115570000D03*
X108204000Y-105029000D03*
X108204000Y-100838000D03*
X108204000Y-92456000D03*
X108204000Y-102870000D03*
X108204000Y-109220000D03*
X108204000Y-117602000D03*
X108204000Y-96647000D03*
X108204000Y-121793000D03*
X108204000Y-111252000D03*
X108204000Y-98679000D03*
X108204000Y-123825000D03*
X108204000Y-113411000D03*
X108204000Y-107061000D03*
X108204000Y-94488000D03*
X108204000Y-119761000D03*
%TO.N,Net-(D114-Pad2)*%
X110363000Y-96647000D03*
X110363000Y-113411000D03*
X110363000Y-98679000D03*
X110363000Y-111252000D03*
X110363000Y-115570000D03*
X110363000Y-117602000D03*
X110363000Y-92456000D03*
X110363000Y-100838000D03*
X110363000Y-109220000D03*
X110363000Y-119761000D03*
X110363000Y-105029000D03*
X110363000Y-121793000D03*
X110363000Y-123825000D03*
X110363000Y-102870000D03*
X110363000Y-94488000D03*
X110363000Y-107061000D03*
%TO.N,Net-(D115-Pad2)*%
X112522000Y-98679000D03*
X112522000Y-107061000D03*
X112522000Y-119761000D03*
X112522000Y-117602000D03*
X112522000Y-121793000D03*
X112522000Y-105029000D03*
X112522000Y-100838000D03*
X112522000Y-115570000D03*
X112522000Y-123825000D03*
X112522000Y-102870000D03*
X112522000Y-109220000D03*
X112522000Y-111252000D03*
X112522000Y-96647000D03*
X112522000Y-92456000D03*
X112522000Y-94488000D03*
X112522000Y-113411000D03*
%TO.N,Net-(D101-Pad2)*%
X116713000Y-105029000D03*
X116713000Y-117602000D03*
X116713000Y-119761000D03*
X116713000Y-107061000D03*
X116713000Y-94488000D03*
X116713000Y-115570000D03*
X116713000Y-121793000D03*
X116713000Y-100838000D03*
X116713000Y-123825000D03*
X116713000Y-109220000D03*
X116713000Y-96647000D03*
X116713000Y-92456000D03*
X116713000Y-98679000D03*
X116713000Y-111252000D03*
X116713000Y-102870000D03*
X116713000Y-113411000D03*
%TO.N,Net-(D102-Pad2)*%
X118745000Y-109220000D03*
X118745000Y-111252000D03*
X118745000Y-102870000D03*
X118745000Y-100838000D03*
X118745000Y-107061000D03*
X118745000Y-113411000D03*
X118745000Y-94488000D03*
X118745000Y-121793000D03*
X118745000Y-96647000D03*
X118745000Y-119761000D03*
X118745000Y-115570000D03*
X118745000Y-105029000D03*
X118745000Y-123825000D03*
X118745000Y-92456000D03*
X118745000Y-98679000D03*
X118745000Y-117602000D03*
%TO.N,Net-(D103-Pad2)*%
X120904000Y-109220000D03*
X120904000Y-115570000D03*
X120904000Y-117602000D03*
X120904000Y-92456000D03*
X120904000Y-105029000D03*
X120904000Y-96647000D03*
X120904000Y-102870000D03*
X120904000Y-123825000D03*
X120904000Y-121793000D03*
X120904000Y-100838000D03*
X120904000Y-113411000D03*
X120904000Y-107061000D03*
X120904000Y-94488000D03*
X120904000Y-98679000D03*
X120904000Y-111252000D03*
X120904000Y-119761000D03*
%TO.N,Net-(D104-Pad2)*%
X122936000Y-92456000D03*
X122936000Y-117602000D03*
X122936000Y-100838000D03*
X122936000Y-119761000D03*
X122936000Y-121793000D03*
X122936000Y-102870000D03*
X122936000Y-107061000D03*
X122936000Y-109220000D03*
X122936000Y-111252000D03*
X122936000Y-94488000D03*
X122936000Y-98679000D03*
X122936000Y-115570000D03*
X122936000Y-123825000D03*
X122936000Y-105029000D03*
X122936000Y-113411000D03*
X122936000Y-96647000D03*
%TO.N,Net-(D105-Pad2)*%
X125095000Y-98679000D03*
X125095000Y-119761000D03*
X125095000Y-121793000D03*
X125095000Y-105029000D03*
X125095000Y-111252000D03*
X125095000Y-113411000D03*
X125095000Y-100838000D03*
X125095000Y-123825000D03*
X125095000Y-117602000D03*
X125095000Y-96647000D03*
X125095000Y-107061000D03*
X125095000Y-102870000D03*
X125095000Y-109220000D03*
X125095000Y-92456000D03*
X125095000Y-115570000D03*
X125095000Y-94488000D03*
%TO.N,Net-(D10-Pad2)*%
X127127000Y-102870000D03*
X127127000Y-117602000D03*
X127127000Y-109220000D03*
X127127000Y-115570000D03*
X127127000Y-92456000D03*
X127127000Y-119761000D03*
X127127000Y-94488000D03*
X127127000Y-113411000D03*
X127127000Y-107061000D03*
X127127000Y-98679000D03*
X127127000Y-111252000D03*
X127127000Y-96647000D03*
X127127000Y-121793000D03*
X127127000Y-123825000D03*
X127127000Y-105029000D03*
X127127000Y-100838000D03*
%TO.N,Net-(D107-Pad2)*%
X129286000Y-119761000D03*
X129286000Y-109220000D03*
X129286000Y-111252000D03*
X129286000Y-92456000D03*
X129286000Y-98679000D03*
X129286000Y-107061000D03*
X129286000Y-115570000D03*
X129286000Y-105029000D03*
X129286000Y-117602000D03*
X129286000Y-113411000D03*
X129286000Y-94488000D03*
X129286000Y-121793000D03*
X129286000Y-123825000D03*
X129286000Y-100838000D03*
X129286000Y-96647000D03*
X129286000Y-102870000D03*
%TO.N,Net-(D108-Pad2)*%
X131318000Y-123825000D03*
X131318000Y-109220000D03*
X131318000Y-113411000D03*
X131318000Y-94488000D03*
X131318000Y-105029000D03*
X131318000Y-115570000D03*
X131318000Y-111252000D03*
X131318000Y-107061000D03*
X131318000Y-102870000D03*
X131318000Y-92456000D03*
X131318000Y-117602000D03*
X131318000Y-96647000D03*
X131318000Y-100838000D03*
X131318000Y-119761000D03*
X131318000Y-121793000D03*
X131318000Y-98679000D03*
%TO.N,Net-(D109-Pad2)*%
X133477000Y-123825000D03*
X133477000Y-111252000D03*
X133477000Y-109220000D03*
X133477000Y-113411000D03*
X133477000Y-105029000D03*
X133477000Y-107061000D03*
X133477000Y-119761000D03*
X133477000Y-100838000D03*
X133477000Y-102870000D03*
X133477000Y-96647000D03*
X133477000Y-92456000D03*
X133477000Y-94488000D03*
X133477000Y-115570000D03*
X133477000Y-98679000D03*
X133477000Y-121793000D03*
X133477000Y-117602000D03*
%TO.N,Net-(D110-Pad2)*%
X135509000Y-111252000D03*
X135509000Y-123825000D03*
X135509000Y-98679000D03*
X135509000Y-92456000D03*
X135509000Y-117602000D03*
X135509000Y-109220000D03*
X135509000Y-119761000D03*
X135509000Y-105029000D03*
X135509000Y-100838000D03*
X135509000Y-121793000D03*
X135509000Y-102870000D03*
X135509000Y-113411000D03*
X135509000Y-94488000D03*
X135509000Y-96647000D03*
X135509000Y-107061000D03*
X135509000Y-115570000D03*
%TO.N,Net-(D111-Pad2)*%
X137668000Y-119761000D03*
X137668000Y-105029000D03*
X137668000Y-100838000D03*
X137668000Y-98679000D03*
X137668000Y-96647000D03*
X137668000Y-113411000D03*
X137668000Y-111252000D03*
X137668000Y-115570000D03*
X137668000Y-92456000D03*
X137668000Y-107061000D03*
X137668000Y-94488000D03*
X137668000Y-117602000D03*
X137668000Y-102870000D03*
X137668000Y-123825000D03*
X137668000Y-121793000D03*
X137668000Y-109220000D03*
%TO.N,Net-(D112-Pad2)*%
X139778153Y-105077847D03*
X139778153Y-115618847D03*
X139778153Y-98727847D03*
X139778153Y-111300847D03*
X139778153Y-102918847D03*
X139778153Y-94536847D03*
X139778153Y-119809847D03*
X139778153Y-113459847D03*
X139778153Y-96695847D03*
X139778153Y-123873847D03*
X139778153Y-109268847D03*
X139778153Y-107109847D03*
X139778153Y-100886847D03*
X139778153Y-121841847D03*
X139778153Y-117650847D03*
X139778153Y-92504847D03*
D22*
%TO.N,GND*%
X168656000Y-84328000D03*
X148082000Y-96266000D03*
X140970000Y-82550000D03*
X148082000Y-87884000D03*
X162814000Y-84328000D03*
X155956000Y-85852000D03*
X150114000Y-85852000D03*
X177549010Y-96325000D03*
X174375000Y-97575000D03*
%TO.N,VCC*%
X165608000Y-89662000D03*
X178558782Y-96498424D03*
X145034000Y-88138000D03*
X153543000Y-89789000D03*
X154051000Y-101473000D03*
X158750000Y-96520000D03*
X165100000Y-95250000D03*
X160020000Y-95250000D03*
X154051000Y-107696000D03*
X154051000Y-93853000D03*
X156591000Y-91821002D03*
%TO.N,Net-(TP3-Pad1)*%
X172286019Y-97389148D03*
%TO.N,/PC1*%
X156876129Y-96228487D03*
X159766000Y-91948000D03*
X161163000Y-93472000D03*
X155448000Y-93980000D03*
X155194000Y-97917000D03*
%TO.N,/S16*%
X140970000Y-93472000D03*
X150622000Y-95123000D03*
D21*
%TO.N,Net-(D100-Pad2)*%
X114554000Y-109220000D03*
X114554000Y-115570000D03*
X114554000Y-92456000D03*
X114554000Y-94488000D03*
X114554000Y-117602000D03*
X114554000Y-121793000D03*
X114554000Y-98679000D03*
X114554000Y-119761000D03*
X114554000Y-111252000D03*
X114554000Y-107061000D03*
X114554000Y-102870000D03*
X114554000Y-123825000D03*
X114554000Y-105029000D03*
X114554000Y-113411000D03*
X114554000Y-96647000D03*
X114554000Y-100838000D03*
%TD*%
D23*
%TO.N,Net-(D1-Pad2)*%
X108204000Y-92456000D02*
X108204000Y-123825000D01*
%TO.N,Net-(D114-Pad2)*%
X110363000Y-92456000D02*
X110363000Y-123825000D01*
%TO.N,Net-(D115-Pad2)*%
X112522000Y-92456000D02*
X112522000Y-123825000D01*
%TO.N,Net-(D101-Pad2)*%
X116713000Y-92456000D02*
X116713000Y-123825000D01*
%TO.N,Net-(D102-Pad2)*%
X118745000Y-92456000D02*
X118745000Y-123825000D01*
%TO.N,Net-(D103-Pad2)*%
X120904000Y-92456000D02*
X120904000Y-123825000D01*
%TO.N,Net-(D104-Pad2)*%
X122936000Y-92456000D02*
X122936000Y-123825000D01*
%TO.N,Net-(D105-Pad2)*%
X125095000Y-92456000D02*
X125095000Y-123825000D01*
%TO.N,Net-(D10-Pad2)*%
X127127000Y-92456000D02*
X127127000Y-123825000D01*
%TO.N,Net-(D107-Pad2)*%
X129286000Y-92456000D02*
X129286000Y-123825000D01*
%TO.N,Net-(D108-Pad2)*%
X131318000Y-92456000D02*
X131318000Y-123825000D01*
%TO.N,Net-(D109-Pad2)*%
X133477000Y-92456000D02*
X133477000Y-123825000D01*
%TO.N,Net-(D110-Pad2)*%
X135509000Y-92456000D02*
X135509000Y-123825000D01*
%TO.N,Net-(D111-Pad2)*%
X137668000Y-92456000D02*
X137668000Y-123825000D01*
%TO.N,Net-(D112-Pad2)*%
X139778153Y-92504847D02*
X139778153Y-123873847D01*
%TO.N,GND*%
X150114000Y-85852000D02*
X144272000Y-85852000D01*
D24*
X174375000Y-97575000D02*
X175625000Y-96325000D01*
D23*
X175000000Y-91515076D02*
X175000000Y-86100000D01*
X173228000Y-84328000D02*
X168656000Y-84328000D01*
X147066000Y-95250000D02*
X148082000Y-96266000D01*
D24*
X175625000Y-96325000D02*
X177549010Y-96325000D01*
D23*
X162814000Y-84328000D02*
X165354000Y-84328000D01*
X144272000Y-85852000D02*
X140970000Y-82550000D01*
X150368000Y-85852000D02*
X155956000Y-85852000D01*
X175000000Y-86100000D02*
X173228000Y-84328000D01*
X150368000Y-85852000D02*
X150114000Y-85852000D01*
X147066000Y-88900000D02*
X147066000Y-95250000D01*
X148082000Y-87884000D02*
X147066000Y-88900000D01*
X165354000Y-84328000D02*
X168656000Y-84328000D01*
D24*
%TO.N,VCC*%
X154559000Y-92964000D02*
X154051000Y-93472000D01*
X165100000Y-90170000D02*
X165100000Y-95250000D01*
X156654500Y-91884500D02*
X156591000Y-91821002D01*
X154051000Y-101473000D02*
X154051000Y-107696000D01*
X156210000Y-91440000D02*
X155194000Y-91440000D01*
X158750000Y-96520000D02*
X157353000Y-95123000D01*
X153543000Y-89789000D02*
X150622000Y-86868000D01*
X157353000Y-93980000D02*
X156337000Y-92964000D01*
X154051000Y-93472000D02*
X154051000Y-93853000D01*
X171380000Y-78750000D02*
X183067489Y-90437489D01*
X160020000Y-95250000D02*
X156654500Y-91884500D01*
X183067489Y-90437489D02*
X183067489Y-91989717D01*
X155194000Y-91440000D02*
X153543000Y-89789000D01*
X150622000Y-86868000D02*
X146304000Y-86868000D01*
X183067489Y-91989717D02*
X178558782Y-96498424D01*
X154051000Y-93853000D02*
X154051000Y-101473000D01*
X156337000Y-92964000D02*
X154559000Y-92964000D01*
X165608000Y-89662000D02*
X165100000Y-90170000D01*
X156654500Y-91884500D02*
X156210000Y-91440000D01*
X157353000Y-95123000D02*
X157353000Y-93980000D01*
X146304000Y-86868000D02*
X145034000Y-88138000D01*
D23*
%TO.N,Net-(TP3-Pad1)*%
X177419000Y-101092000D02*
X183642000Y-94869000D01*
X172286019Y-97389148D02*
X175988871Y-101092000D01*
X175988871Y-101092000D02*
X177419000Y-101092000D01*
X183642000Y-94869000D02*
X183642000Y-85932000D01*
X183642000Y-85932000D02*
X176460000Y-78750000D01*
%TO.N,/PC1*%
X155194000Y-97917000D02*
X156876129Y-96234871D01*
X155448000Y-93980000D02*
X155448000Y-94800358D01*
X155448000Y-94800358D02*
X156876129Y-96228487D01*
X156876129Y-96234871D02*
X156876129Y-96228487D01*
X159766000Y-91948000D02*
X159766000Y-92075000D01*
X159766000Y-92075000D02*
X161163000Y-93472000D01*
%TO.N,/S16*%
X140970000Y-93472000D02*
X144526000Y-97028000D01*
X144526000Y-97028000D02*
X148717000Y-97028000D01*
X148717000Y-97028000D02*
X150622000Y-95123000D01*
%TO.N,Net-(D100-Pad2)*%
X114554000Y-92456000D02*
X114554000Y-123825000D01*
%TD*%
M02*
