%TF.GenerationSoftware,KiCad,Pcbnew,(6.0.5)*%
%TF.CreationDate,2022-07-14T17:11:25-07:00*%
%TF.ProjectId,PCBbuscard,50434262-7573-4636-9172-642e6b696361,rev?*%
%TF.SameCoordinates,Original*%
%TF.FileFunction,Legend,Top*%
%TF.FilePolarity,Positive*%
%FSLAX46Y46*%
G04 Gerber Fmt 4.6, Leading zero omitted, Abs format (unit mm)*
G04 Created by KiCad (PCBNEW (6.0.5)) date 2022-07-14 17:11:25*
%MOMM*%
%LPD*%
G01*
G04 APERTURE LIST*
G04 Aperture macros list*
%AMRoundRect*
0 Rectangle with rounded corners*
0 $1 Rounding radius*
0 $2 $3 $4 $5 $6 $7 $8 $9 X,Y pos of 4 corners*
0 Add a 4 corners polygon primitive as box body*
4,1,4,$2,$3,$4,$5,$6,$7,$8,$9,$2,$3,0*
0 Add four circle primitives for the rounded corners*
1,1,$1+$1,$2,$3*
1,1,$1+$1,$4,$5*
1,1,$1+$1,$6,$7*
1,1,$1+$1,$8,$9*
0 Add four rect primitives between the rounded corners*
20,1,$1+$1,$2,$3,$4,$5,0*
20,1,$1+$1,$4,$5,$6,$7,0*
20,1,$1+$1,$6,$7,$8,$9,0*
20,1,$1+$1,$8,$9,$2,$3,0*%
%AMHorizOval*
0 Thick line with rounded ends*
0 $1 width*
0 $2 $3 position (X,Y) of the first rounded end (center of the circle)*
0 $4 $5 position (X,Y) of the second rounded end (center of the circle)*
0 Add line between two ends*
20,1,$1,$2,$3,$4,$5,0*
0 Add two circle primitives to create the rounded ends*
1,1,$1,$2,$3*
1,1,$1,$4,$5*%
%AMRotRect*
0 Rectangle, with rotation*
0 The origin of the aperture is its center*
0 $1 length*
0 $2 width*
0 $3 Rotation angle, in degrees counterclockwise*
0 Add horizontal line*
21,1,$1,$2,0,0,$3*%
G04 Aperture macros list end*
%ADD10C,0.150000*%
%ADD11C,0.120000*%
%ADD12C,3.000000*%
%ADD13RoundRect,0.218750X0.026517X-0.335876X0.335876X-0.026517X-0.026517X0.335876X-0.335876X0.026517X0*%
%ADD14R,2.160000X1.120000*%
%ADD15RoundRect,0.250000X-0.450000X0.350000X-0.450000X-0.350000X0.450000X-0.350000X0.450000X0.350000X0*%
%ADD16R,1.500000X0.600000*%
%ADD17R,0.600000X1.500000*%
%ADD18RotRect,1.000000X1.000000X45.000000*%
%ADD19HorizOval,1.000000X0.000000X0.000000X0.000000X0.000000X0*%
%ADD20RotRect,1.000000X1.000000X315.000000*%
%ADD21HorizOval,1.000000X0.000000X0.000000X0.000000X0.000000X0*%
%ADD22RotRect,1.000000X1.000000X135.000000*%
%ADD23HorizOval,1.000000X0.000000X0.000000X0.000000X0.000000X0*%
%ADD24RoundRect,0.062500X0.291682X-0.203293X-0.203293X0.291682X-0.291682X0.203293X0.203293X-0.291682X0*%
%ADD25RoundRect,0.062500X0.291682X0.203293X0.203293X0.291682X-0.291682X-0.203293X-0.203293X-0.291682X0*%
%ADD26RotRect,2.600000X2.600000X135.000000*%
%ADD27RotRect,1.000000X1.000000X225.000000*%
%ADD28HorizOval,1.000000X0.000000X0.000000X0.000000X0.000000X0*%
G04 APERTURE END LIST*
D10*
%TO.C,TP1*%
X170118095Y-75704380D02*
X170689523Y-75704380D01*
X170403809Y-76704380D02*
X170403809Y-75704380D01*
X171022857Y-76704380D02*
X171022857Y-75704380D01*
X171403809Y-75704380D01*
X171499047Y-75752000D01*
X171546666Y-75799619D01*
X171594285Y-75894857D01*
X171594285Y-76037714D01*
X171546666Y-76132952D01*
X171499047Y-76180571D01*
X171403809Y-76228190D01*
X171022857Y-76228190D01*
X172546666Y-76704380D02*
X171975238Y-76704380D01*
X172260952Y-76704380D02*
X172260952Y-75704380D01*
X172165714Y-75847238D01*
X172070476Y-75942476D01*
X171975238Y-75990095D01*
%TO.C,TP2*%
X165038095Y-75704380D02*
X165609523Y-75704380D01*
X165323809Y-76704380D02*
X165323809Y-75704380D01*
X165942857Y-76704380D02*
X165942857Y-75704380D01*
X166323809Y-75704380D01*
X166419047Y-75752000D01*
X166466666Y-75799619D01*
X166514285Y-75894857D01*
X166514285Y-76037714D01*
X166466666Y-76132952D01*
X166419047Y-76180571D01*
X166323809Y-76228190D01*
X165942857Y-76228190D01*
X166895238Y-75799619D02*
X166942857Y-75752000D01*
X167038095Y-75704380D01*
X167276190Y-75704380D01*
X167371428Y-75752000D01*
X167419047Y-75799619D01*
X167466666Y-75894857D01*
X167466666Y-75990095D01*
X167419047Y-76132952D01*
X166847619Y-76704380D01*
X167466666Y-76704380D01*
%TO.C,TP3*%
X175198095Y-75704380D02*
X175769523Y-75704380D01*
X175483809Y-76704380D02*
X175483809Y-75704380D01*
X176102857Y-76704380D02*
X176102857Y-75704380D01*
X176483809Y-75704380D01*
X176579047Y-75752000D01*
X176626666Y-75799619D01*
X176674285Y-75894857D01*
X176674285Y-76037714D01*
X176626666Y-76132952D01*
X176579047Y-76180571D01*
X176483809Y-76228190D01*
X176102857Y-76228190D01*
X177007619Y-75704380D02*
X177626666Y-75704380D01*
X177293333Y-76085333D01*
X177436190Y-76085333D01*
X177531428Y-76132952D01*
X177579047Y-76180571D01*
X177626666Y-76275809D01*
X177626666Y-76513904D01*
X177579047Y-76609142D01*
X177531428Y-76656761D01*
X177436190Y-76704380D01*
X177150476Y-76704380D01*
X177055238Y-76656761D01*
X177007619Y-76609142D01*
%TO.C,SW1*%
X147891666Y-126514761D02*
X148034523Y-126562380D01*
X148272619Y-126562380D01*
X148367857Y-126514761D01*
X148415476Y-126467142D01*
X148463095Y-126371904D01*
X148463095Y-126276666D01*
X148415476Y-126181428D01*
X148367857Y-126133809D01*
X148272619Y-126086190D01*
X148082142Y-126038571D01*
X147986904Y-125990952D01*
X147939285Y-125943333D01*
X147891666Y-125848095D01*
X147891666Y-125752857D01*
X147939285Y-125657619D01*
X147986904Y-125610000D01*
X148082142Y-125562380D01*
X148320238Y-125562380D01*
X148463095Y-125610000D01*
X148796428Y-125562380D02*
X149034523Y-126562380D01*
X149225000Y-125848095D01*
X149415476Y-126562380D01*
X149653571Y-125562380D01*
X150558333Y-126562380D02*
X149986904Y-126562380D01*
X150272619Y-126562380D02*
X150272619Y-125562380D01*
X150177380Y-125705238D01*
X150082142Y-125800476D01*
X149986904Y-125848095D01*
%TO.C,R12*%
X118277381Y-88542857D02*
X117801191Y-88876190D01*
X118277381Y-89114285D02*
X117277381Y-89114285D01*
X117277381Y-88733333D01*
X117325001Y-88638095D01*
X117372620Y-88590476D01*
X117467858Y-88542857D01*
X117610715Y-88542857D01*
X117705953Y-88590476D01*
X117753572Y-88638095D01*
X117801191Y-88733333D01*
X117801191Y-89114285D01*
X118277381Y-87590476D02*
X118277381Y-88161904D01*
X118277381Y-87876190D02*
X117277381Y-87876190D01*
X117420239Y-87971428D01*
X117515477Y-88066666D01*
X117563096Y-88161904D01*
X117372620Y-87209523D02*
X117325001Y-87161904D01*
X117277381Y-87066666D01*
X117277381Y-86828571D01*
X117325001Y-86733333D01*
X117372620Y-86685714D01*
X117467858Y-86638095D01*
X117563096Y-86638095D01*
X117705953Y-86685714D01*
X118277381Y-87257142D01*
X118277381Y-86638095D01*
%TO.C,U4*%
X148313095Y-111602380D02*
X148313095Y-112411904D01*
X148360714Y-112507142D01*
X148408333Y-112554761D01*
X148503571Y-112602380D01*
X148694047Y-112602380D01*
X148789285Y-112554761D01*
X148836904Y-112507142D01*
X148884523Y-112411904D01*
X148884523Y-111602380D01*
X149789285Y-111935714D02*
X149789285Y-112602380D01*
X149551190Y-111554761D02*
X149313095Y-112269047D01*
X149932142Y-112269047D01*
%TO.C,R7*%
X125777380Y-83566666D02*
X125301190Y-83900000D01*
X125777380Y-84138095D02*
X124777380Y-84138095D01*
X124777380Y-83757142D01*
X124825000Y-83661904D01*
X124872619Y-83614285D01*
X124967857Y-83566666D01*
X125110714Y-83566666D01*
X125205952Y-83614285D01*
X125253571Y-83661904D01*
X125301190Y-83757142D01*
X125301190Y-84138095D01*
X124777380Y-83233333D02*
X124777380Y-82566666D01*
X125777380Y-82995238D01*
%TO.C,SW3*%
X171666666Y-126514761D02*
X171809523Y-126562380D01*
X172047619Y-126562380D01*
X172142857Y-126514761D01*
X172190476Y-126467142D01*
X172238095Y-126371904D01*
X172238095Y-126276666D01*
X172190476Y-126181428D01*
X172142857Y-126133809D01*
X172047619Y-126086190D01*
X171857142Y-126038571D01*
X171761904Y-125990952D01*
X171714285Y-125943333D01*
X171666666Y-125848095D01*
X171666666Y-125752857D01*
X171714285Y-125657619D01*
X171761904Y-125610000D01*
X171857142Y-125562380D01*
X172095238Y-125562380D01*
X172238095Y-125610000D01*
X172571428Y-125562380D02*
X172809523Y-126562380D01*
X173000000Y-125848095D01*
X173190476Y-126562380D01*
X173428571Y-125562380D01*
X173714285Y-125562380D02*
X174333333Y-125562380D01*
X174000000Y-125943333D01*
X174142857Y-125943333D01*
X174238095Y-125990952D01*
X174285714Y-126038571D01*
X174333333Y-126133809D01*
X174333333Y-126371904D01*
X174285714Y-126467142D01*
X174238095Y-126514761D01*
X174142857Y-126562380D01*
X173857142Y-126562380D01*
X173761904Y-126514761D01*
X173714285Y-126467142D01*
%TO.C,R2*%
X133277380Y-88066666D02*
X132801190Y-88400000D01*
X133277380Y-88638095D02*
X132277380Y-88638095D01*
X132277380Y-88257142D01*
X132325000Y-88161904D01*
X132372619Y-88114285D01*
X132467857Y-88066666D01*
X132610714Y-88066666D01*
X132705952Y-88114285D01*
X132753571Y-88161904D01*
X132801190Y-88257142D01*
X132801190Y-88638095D01*
X132372619Y-87685714D02*
X132325000Y-87638095D01*
X132277380Y-87542857D01*
X132277380Y-87304761D01*
X132325000Y-87209523D01*
X132372619Y-87161904D01*
X132467857Y-87114285D01*
X132563095Y-87114285D01*
X132705952Y-87161904D01*
X133277380Y-87733333D01*
X133277380Y-87114285D01*
%TO.C,R9*%
X122777381Y-83566666D02*
X122301191Y-83900000D01*
X122777381Y-84138095D02*
X121777381Y-84138095D01*
X121777381Y-83757142D01*
X121825001Y-83661904D01*
X121872620Y-83614285D01*
X121967858Y-83566666D01*
X122110715Y-83566666D01*
X122205953Y-83614285D01*
X122253572Y-83661904D01*
X122301191Y-83757142D01*
X122301191Y-84138095D01*
X122777381Y-83090476D02*
X122777381Y-82900000D01*
X122729762Y-82804761D01*
X122682143Y-82757142D01*
X122539286Y-82661904D01*
X122348810Y-82614285D01*
X121967858Y-82614285D01*
X121872620Y-82661904D01*
X121825001Y-82709523D01*
X121777381Y-82804761D01*
X121777381Y-82995238D01*
X121825001Y-83090476D01*
X121872620Y-83138095D01*
X121967858Y-83185714D01*
X122205953Y-83185714D01*
X122301191Y-83138095D01*
X122348810Y-83090476D01*
X122396429Y-82995238D01*
X122396429Y-82804761D01*
X122348810Y-82709523D01*
X122301191Y-82661904D01*
X122205953Y-82614285D01*
%TO.C,U1*%
X159152380Y-86636904D02*
X159961904Y-86636904D01*
X160057142Y-86589285D01*
X160104761Y-86541666D01*
X160152380Y-86446428D01*
X160152380Y-86255952D01*
X160104761Y-86160714D01*
X160057142Y-86113095D01*
X159961904Y-86065476D01*
X159152380Y-86065476D01*
X160152380Y-85065476D02*
X160152380Y-85636904D01*
X160152380Y-85351190D02*
X159152380Y-85351190D01*
X159295238Y-85446428D01*
X159390476Y-85541666D01*
X159438095Y-85636904D01*
%TO.C,R11*%
X119777381Y-84042857D02*
X119301191Y-84376190D01*
X119777381Y-84614285D02*
X118777381Y-84614285D01*
X118777381Y-84233333D01*
X118825001Y-84138095D01*
X118872620Y-84090476D01*
X118967858Y-84042857D01*
X119110715Y-84042857D01*
X119205953Y-84090476D01*
X119253572Y-84138095D01*
X119301191Y-84233333D01*
X119301191Y-84614285D01*
X119777381Y-83090476D02*
X119777381Y-83661904D01*
X119777381Y-83376190D02*
X118777381Y-83376190D01*
X118920239Y-83471428D01*
X119015477Y-83566666D01*
X119063096Y-83661904D01*
X119777381Y-82138095D02*
X119777381Y-82709523D01*
X119777381Y-82423809D02*
X118777381Y-82423809D01*
X118920239Y-82519047D01*
X119015477Y-82614285D01*
X119063096Y-82709523D01*
%TO.C,U3*%
X148163095Y-97727380D02*
X148163095Y-98536904D01*
X148210714Y-98632142D01*
X148258333Y-98679761D01*
X148353571Y-98727380D01*
X148544047Y-98727380D01*
X148639285Y-98679761D01*
X148686904Y-98632142D01*
X148734523Y-98536904D01*
X148734523Y-97727380D01*
X149115476Y-97727380D02*
X149734523Y-97727380D01*
X149401190Y-98108333D01*
X149544047Y-98108333D01*
X149639285Y-98155952D01*
X149686904Y-98203571D01*
X149734523Y-98298809D01*
X149734523Y-98536904D01*
X149686904Y-98632142D01*
X149639285Y-98679761D01*
X149544047Y-98727380D01*
X149258333Y-98727380D01*
X149163095Y-98679761D01*
X149115476Y-98632142D01*
%TO.C,R6*%
X127277381Y-88066666D02*
X126801191Y-88400000D01*
X127277381Y-88638095D02*
X126277381Y-88638095D01*
X126277381Y-88257142D01*
X126325001Y-88161904D01*
X126372620Y-88114285D01*
X126467858Y-88066666D01*
X126610715Y-88066666D01*
X126705953Y-88114285D01*
X126753572Y-88161904D01*
X126801191Y-88257142D01*
X126801191Y-88638095D01*
X126277381Y-87209523D02*
X126277381Y-87400000D01*
X126325001Y-87495238D01*
X126372620Y-87542857D01*
X126515477Y-87638095D01*
X126705953Y-87685714D01*
X127086905Y-87685714D01*
X127182143Y-87638095D01*
X127229762Y-87590476D01*
X127277381Y-87495238D01*
X127277381Y-87304761D01*
X127229762Y-87209523D01*
X127182143Y-87161904D01*
X127086905Y-87114285D01*
X126848810Y-87114285D01*
X126753572Y-87161904D01*
X126705953Y-87209523D01*
X126658334Y-87304761D01*
X126658334Y-87495238D01*
X126705953Y-87590476D01*
X126753572Y-87638095D01*
X126848810Y-87685714D01*
%TO.C,R8*%
X124277379Y-88066666D02*
X123801189Y-88400000D01*
X124277379Y-88638095D02*
X123277379Y-88638095D01*
X123277379Y-88257142D01*
X123324999Y-88161904D01*
X123372618Y-88114285D01*
X123467856Y-88066666D01*
X123610713Y-88066666D01*
X123705951Y-88114285D01*
X123753570Y-88161904D01*
X123801189Y-88257142D01*
X123801189Y-88638095D01*
X123705951Y-87495238D02*
X123658332Y-87590476D01*
X123610713Y-87638095D01*
X123515475Y-87685714D01*
X123467856Y-87685714D01*
X123372618Y-87638095D01*
X123324999Y-87590476D01*
X123277379Y-87495238D01*
X123277379Y-87304761D01*
X123324999Y-87209523D01*
X123372618Y-87161904D01*
X123467856Y-87114285D01*
X123515475Y-87114285D01*
X123610713Y-87161904D01*
X123658332Y-87209523D01*
X123705951Y-87304761D01*
X123705951Y-87495238D01*
X123753570Y-87590476D01*
X123801189Y-87638095D01*
X123896427Y-87685714D01*
X124086903Y-87685714D01*
X124182141Y-87638095D01*
X124229760Y-87590476D01*
X124277379Y-87495238D01*
X124277379Y-87304761D01*
X124229760Y-87209523D01*
X124182141Y-87161904D01*
X124086903Y-87114285D01*
X123896427Y-87114285D01*
X123801189Y-87161904D01*
X123753570Y-87209523D01*
X123705951Y-87304761D01*
%TO.C,R13*%
X116777381Y-84042857D02*
X116301191Y-84376190D01*
X116777381Y-84614285D02*
X115777381Y-84614285D01*
X115777381Y-84233333D01*
X115825001Y-84138095D01*
X115872620Y-84090476D01*
X115967858Y-84042857D01*
X116110715Y-84042857D01*
X116205953Y-84090476D01*
X116253572Y-84138095D01*
X116301191Y-84233333D01*
X116301191Y-84614285D01*
X116777381Y-83090476D02*
X116777381Y-83661904D01*
X116777381Y-83376190D02*
X115777381Y-83376190D01*
X115920239Y-83471428D01*
X116015477Y-83566666D01*
X116063096Y-83661904D01*
X115777381Y-82757142D02*
X115777381Y-82138095D01*
X116158334Y-82471428D01*
X116158334Y-82328571D01*
X116205953Y-82233333D01*
X116253572Y-82185714D01*
X116348810Y-82138095D01*
X116586905Y-82138095D01*
X116682143Y-82185714D01*
X116729762Y-82233333D01*
X116777381Y-82328571D01*
X116777381Y-82614285D01*
X116729762Y-82709523D01*
X116682143Y-82757142D01*
%TO.C,U2*%
X146752380Y-86961904D02*
X147561904Y-86961904D01*
X147657142Y-86914285D01*
X147704761Y-86866666D01*
X147752380Y-86771428D01*
X147752380Y-86580952D01*
X147704761Y-86485714D01*
X147657142Y-86438095D01*
X147561904Y-86390476D01*
X146752380Y-86390476D01*
X146847619Y-85961904D02*
X146800000Y-85914285D01*
X146752380Y-85819047D01*
X146752380Y-85580952D01*
X146800000Y-85485714D01*
X146847619Y-85438095D01*
X146942857Y-85390476D01*
X147038095Y-85390476D01*
X147180952Y-85438095D01*
X147752380Y-86009523D01*
X147752380Y-85390476D01*
%TO.C,R10*%
X121277381Y-88542857D02*
X120801191Y-88876190D01*
X121277381Y-89114285D02*
X120277381Y-89114285D01*
X120277381Y-88733333D01*
X120325001Y-88638095D01*
X120372620Y-88590476D01*
X120467858Y-88542857D01*
X120610715Y-88542857D01*
X120705953Y-88590476D01*
X120753572Y-88638095D01*
X120801191Y-88733333D01*
X120801191Y-89114285D01*
X121277381Y-87590476D02*
X121277381Y-88161904D01*
X121277381Y-87876190D02*
X120277381Y-87876190D01*
X120420239Y-87971428D01*
X120515477Y-88066666D01*
X120563096Y-88161904D01*
X120277381Y-86971428D02*
X120277381Y-86876190D01*
X120325001Y-86780952D01*
X120372620Y-86733333D01*
X120467858Y-86685714D01*
X120658334Y-86638095D01*
X120896429Y-86638095D01*
X121086905Y-86685714D01*
X121182143Y-86733333D01*
X121229762Y-86780952D01*
X121277381Y-86876190D01*
X121277381Y-86971428D01*
X121229762Y-87066666D01*
X121182143Y-87114285D01*
X121086905Y-87161904D01*
X120896429Y-87209523D01*
X120658334Y-87209523D01*
X120467858Y-87161904D01*
X120372620Y-87114285D01*
X120325001Y-87066666D01*
X120277381Y-86971428D01*
%TO.C,R3*%
X131777381Y-83566666D02*
X131301191Y-83900000D01*
X131777381Y-84138095D02*
X130777381Y-84138095D01*
X130777381Y-83757142D01*
X130825001Y-83661904D01*
X130872620Y-83614285D01*
X130967858Y-83566666D01*
X131110715Y-83566666D01*
X131205953Y-83614285D01*
X131253572Y-83661904D01*
X131301191Y-83757142D01*
X131301191Y-84138095D01*
X130777381Y-83233333D02*
X130777381Y-82614285D01*
X131158334Y-82947619D01*
X131158334Y-82804761D01*
X131205953Y-82709523D01*
X131253572Y-82661904D01*
X131348810Y-82614285D01*
X131586905Y-82614285D01*
X131682143Y-82661904D01*
X131729762Y-82709523D01*
X131777381Y-82804761D01*
X131777381Y-83090476D01*
X131729762Y-83185714D01*
X131682143Y-83233333D01*
%TO.C,R5*%
X128777381Y-83566666D02*
X128301191Y-83900000D01*
X128777381Y-84138095D02*
X127777381Y-84138095D01*
X127777381Y-83757142D01*
X127825001Y-83661904D01*
X127872620Y-83614285D01*
X127967858Y-83566666D01*
X128110715Y-83566666D01*
X128205953Y-83614285D01*
X128253572Y-83661904D01*
X128301191Y-83757142D01*
X128301191Y-84138095D01*
X127777381Y-82661904D02*
X127777381Y-83138095D01*
X128253572Y-83185714D01*
X128205953Y-83138095D01*
X128158334Y-83042857D01*
X128158334Y-82804761D01*
X128205953Y-82709523D01*
X128253572Y-82661904D01*
X128348810Y-82614285D01*
X128586905Y-82614285D01*
X128682143Y-82661904D01*
X128729762Y-82709523D01*
X128777381Y-82804761D01*
X128777381Y-83042857D01*
X128729762Y-83138095D01*
X128682143Y-83185714D01*
%TO.C,R1*%
X134777381Y-83566666D02*
X134301191Y-83900000D01*
X134777381Y-84138095D02*
X133777381Y-84138095D01*
X133777381Y-83757142D01*
X133825001Y-83661904D01*
X133872620Y-83614285D01*
X133967858Y-83566666D01*
X134110715Y-83566666D01*
X134205953Y-83614285D01*
X134253572Y-83661904D01*
X134301191Y-83757142D01*
X134301191Y-84138095D01*
X134777381Y-82614285D02*
X134777381Y-83185714D01*
X134777381Y-82900000D02*
X133777381Y-82900000D01*
X133920239Y-82995238D01*
X134015477Y-83090476D01*
X134063096Y-83185714D01*
%TO.C,R4*%
X130277381Y-88066666D02*
X129801191Y-88400000D01*
X130277381Y-88638095D02*
X129277381Y-88638095D01*
X129277381Y-88257142D01*
X129325001Y-88161904D01*
X129372620Y-88114285D01*
X129467858Y-88066666D01*
X129610715Y-88066666D01*
X129705953Y-88114285D01*
X129753572Y-88161904D01*
X129801191Y-88257142D01*
X129801191Y-88638095D01*
X129610715Y-87209523D02*
X130277381Y-87209523D01*
X129229762Y-87447619D02*
X129944048Y-87685714D01*
X129944048Y-87066666D01*
%TO.C,R15*%
X113777381Y-84042857D02*
X113301191Y-84376190D01*
X113777381Y-84614285D02*
X112777381Y-84614285D01*
X112777381Y-84233333D01*
X112825001Y-84138095D01*
X112872620Y-84090476D01*
X112967858Y-84042857D01*
X113110715Y-84042857D01*
X113205953Y-84090476D01*
X113253572Y-84138095D01*
X113301191Y-84233333D01*
X113301191Y-84614285D01*
X113777381Y-83090476D02*
X113777381Y-83661904D01*
X113777381Y-83376190D02*
X112777381Y-83376190D01*
X112920239Y-83471428D01*
X113015477Y-83566666D01*
X113063096Y-83661904D01*
X112777381Y-82185714D02*
X112777381Y-82661904D01*
X113253572Y-82709523D01*
X113205953Y-82661904D01*
X113158334Y-82566666D01*
X113158334Y-82328571D01*
X113205953Y-82233333D01*
X113253572Y-82185714D01*
X113348810Y-82138095D01*
X113586905Y-82138095D01*
X113682143Y-82185714D01*
X113729762Y-82233333D01*
X113777381Y-82328571D01*
X113777381Y-82566666D01*
X113729762Y-82661904D01*
X113682143Y-82709523D01*
%TO.C,R14*%
X115277379Y-88542857D02*
X114801189Y-88876190D01*
X115277379Y-89114285D02*
X114277379Y-89114285D01*
X114277379Y-88733333D01*
X114324999Y-88638095D01*
X114372618Y-88590476D01*
X114467856Y-88542857D01*
X114610713Y-88542857D01*
X114705951Y-88590476D01*
X114753570Y-88638095D01*
X114801189Y-88733333D01*
X114801189Y-89114285D01*
X115277379Y-87590476D02*
X115277379Y-88161904D01*
X115277379Y-87876190D02*
X114277379Y-87876190D01*
X114420237Y-87971428D01*
X114515475Y-88066666D01*
X114563094Y-88161904D01*
X114610713Y-86733333D02*
X115277379Y-86733333D01*
X114229760Y-86971428D02*
X114944046Y-87209523D01*
X114944046Y-86590476D01*
%TO.C,U5*%
X172818070Y-96259425D02*
X173390490Y-95687005D01*
X173424162Y-95585990D01*
X173424162Y-95518646D01*
X173390490Y-95417631D01*
X173255803Y-95282944D01*
X173154788Y-95249272D01*
X173087444Y-95249272D01*
X172986429Y-95282944D01*
X172414009Y-95855364D01*
X171740574Y-95181929D02*
X172077292Y-95518646D01*
X172447681Y-95215600D01*
X172380338Y-95215600D01*
X172279322Y-95181929D01*
X172110964Y-95013570D01*
X172077292Y-94912555D01*
X172077292Y-94845211D01*
X172110964Y-94744196D01*
X172279322Y-94575837D01*
X172380338Y-94542165D01*
X172447681Y-94542165D01*
X172548696Y-94575837D01*
X172717055Y-94744196D01*
X172750727Y-94845211D01*
X172750727Y-94912555D01*
%TO.C,R16*%
X112277381Y-88542857D02*
X111801191Y-88876190D01*
X112277381Y-89114285D02*
X111277381Y-89114285D01*
X111277381Y-88733333D01*
X111325001Y-88638095D01*
X111372620Y-88590476D01*
X111467858Y-88542857D01*
X111610715Y-88542857D01*
X111705953Y-88590476D01*
X111753572Y-88638095D01*
X111801191Y-88733333D01*
X111801191Y-89114285D01*
X112277381Y-87590476D02*
X112277381Y-88161904D01*
X112277381Y-87876190D02*
X111277381Y-87876190D01*
X111420239Y-87971428D01*
X111515477Y-88066666D01*
X111563096Y-88161904D01*
X111277381Y-86733333D02*
X111277381Y-86923809D01*
X111325001Y-87019047D01*
X111372620Y-87066666D01*
X111515477Y-87161904D01*
X111705953Y-87209523D01*
X112086905Y-87209523D01*
X112182143Y-87161904D01*
X112229762Y-87114285D01*
X112277381Y-87019047D01*
X112277381Y-86828571D01*
X112229762Y-86733333D01*
X112182143Y-86685714D01*
X112086905Y-86638095D01*
X111848810Y-86638095D01*
X111753572Y-86685714D01*
X111705953Y-86733333D01*
X111658334Y-86828571D01*
X111658334Y-87019047D01*
X111705953Y-87114285D01*
X111753572Y-87161904D01*
X111848810Y-87209523D01*
%TO.C,SW2*%
X159666666Y-126514761D02*
X159809523Y-126562380D01*
X160047619Y-126562380D01*
X160142857Y-126514761D01*
X160190476Y-126467142D01*
X160238095Y-126371904D01*
X160238095Y-126276666D01*
X160190476Y-126181428D01*
X160142857Y-126133809D01*
X160047619Y-126086190D01*
X159857142Y-126038571D01*
X159761904Y-125990952D01*
X159714285Y-125943333D01*
X159666666Y-125848095D01*
X159666666Y-125752857D01*
X159714285Y-125657619D01*
X159761904Y-125610000D01*
X159857142Y-125562380D01*
X160095238Y-125562380D01*
X160238095Y-125610000D01*
X160571428Y-125562380D02*
X160809523Y-126562380D01*
X161000000Y-125848095D01*
X161190476Y-126562380D01*
X161428571Y-125562380D01*
X161761904Y-125657619D02*
X161809523Y-125610000D01*
X161904761Y-125562380D01*
X162142857Y-125562380D01*
X162238095Y-125610000D01*
X162285714Y-125657619D01*
X162333333Y-125752857D01*
X162333333Y-125848095D01*
X162285714Y-125990952D01*
X161714285Y-126562380D01*
X162333333Y-126562380D01*
D11*
%TO.C,TP1*%
X173080000Y-78750000D02*
G75*
G03*
X173080000Y-78750000I-1700000J0D01*
G01*
%TO.C,TP2*%
X168000000Y-78750000D02*
G75*
G03*
X168000000Y-78750000I-1700000J0D01*
G01*
%TO.C,TP3*%
X178160000Y-78750000D02*
G75*
G03*
X178160000Y-78750000I-1700000J0D01*
G01*
%TO.C,D190*%
X134025962Y-114974591D02*
X132410223Y-116590330D01*
X133449670Y-117629777D02*
X135065409Y-116014038D01*
X132410223Y-116590330D02*
X133449670Y-117629777D01*
%TO.C,D7*%
X119325962Y-91874591D02*
X117710223Y-93490330D01*
X117710223Y-93490330D02*
X118749670Y-94529777D01*
X118749670Y-94529777D02*
X120365409Y-92914038D01*
%TO.C,D32*%
X136610223Y-95590330D02*
X137649670Y-96629777D01*
X137649670Y-96629777D02*
X139265409Y-95014038D01*
X138225962Y-93974591D02*
X136610223Y-95590330D01*
%TO.C,SW1*%
X151035000Y-122365000D02*
X147415000Y-122365000D01*
X152635000Y-125110000D02*
X152635000Y-123800000D01*
X152635000Y-125110000D02*
X145815000Y-125110000D01*
X145815000Y-122200000D02*
X145815000Y-120890000D01*
X151035000Y-123275000D02*
X149828333Y-123275000D01*
X152875000Y-125350000D02*
X151492000Y-125350000D01*
X152635000Y-120890000D02*
X145815000Y-120890000D01*
X151035000Y-122915000D02*
X149828333Y-122915000D01*
X151035000Y-123395000D02*
X149828333Y-123395000D01*
X151035000Y-122675000D02*
X149828333Y-122675000D01*
X151035000Y-123155000D02*
X149828333Y-123155000D01*
X151035000Y-123515000D02*
X149828333Y-123515000D01*
X151035000Y-122795000D02*
X149828333Y-122795000D01*
X152875000Y-125350000D02*
X152875000Y-123967000D01*
X151035000Y-122435000D02*
X149828333Y-122435000D01*
X149828333Y-123635000D02*
X149828333Y-122365000D01*
X147415000Y-122365000D02*
X147415000Y-123635000D01*
X145815000Y-125110000D02*
X145815000Y-123800000D01*
X151035000Y-123035000D02*
X149828333Y-123035000D01*
X152635000Y-122200000D02*
X152635000Y-120890000D01*
X151035000Y-122555000D02*
X149828333Y-122555000D01*
X151035000Y-123635000D02*
X151035000Y-122365000D01*
X147415000Y-123635000D02*
X151035000Y-123635000D01*
%TO.C,D69*%
X113510223Y-101890330D02*
X114549670Y-102929777D01*
X115125962Y-100274591D02*
X113510223Y-101890330D01*
X114549670Y-102929777D02*
X116165409Y-101314038D01*
%TO.C,D36*%
X112449670Y-98729777D02*
X114065409Y-97114038D01*
X113025962Y-96074591D02*
X111410223Y-97690330D01*
X111410223Y-97690330D02*
X112449670Y-98729777D01*
%TO.C,D129*%
X106725962Y-108674591D02*
X105110223Y-110290330D01*
X105110223Y-110290330D02*
X106149670Y-111329777D01*
X106149670Y-111329777D02*
X107765409Y-109714038D01*
%TO.C,D155*%
X127725962Y-110774591D02*
X126110223Y-112390330D01*
X127149670Y-113429777D02*
X128765409Y-111814038D01*
X126110223Y-112390330D02*
X127149670Y-113429777D01*
%TO.C,D132*%
X111410223Y-110290330D02*
X112449670Y-111329777D01*
X113025962Y-108674591D02*
X111410223Y-110290330D01*
X112449670Y-111329777D02*
X114065409Y-109714038D01*
%TO.C,D227*%
X110349670Y-123929777D02*
X111965409Y-122314038D01*
X109310223Y-122890330D02*
X110349670Y-123929777D01*
X110925962Y-121274591D02*
X109310223Y-122890330D01*
%TO.C,D28*%
X128210223Y-95590330D02*
X129249670Y-96629777D01*
X129825962Y-93974591D02*
X128210223Y-95590330D01*
X129249670Y-96629777D02*
X130865409Y-95014038D01*
%TO.C,D58*%
X125049670Y-100829777D02*
X126665409Y-99214038D01*
X125625962Y-98174591D02*
X124010223Y-99790330D01*
X124010223Y-99790330D02*
X125049670Y-100829777D01*
%TO.C,R12*%
X115440001Y-87672936D02*
X115440001Y-88127064D01*
X116910001Y-87672936D02*
X116910001Y-88127064D01*
%TO.C,D181*%
X115125962Y-114974591D02*
X113510223Y-116590330D01*
X113510223Y-116590330D02*
X114549670Y-117629777D01*
X114549670Y-117629777D02*
X116165409Y-116014038D01*
%TO.C,D163*%
X109310223Y-114490330D02*
X110349670Y-115529777D01*
X110925962Y-112874591D02*
X109310223Y-114490330D01*
X110349670Y-115529777D02*
X111965409Y-113914038D01*
%TO.C,D204*%
X129825962Y-117074591D02*
X128210223Y-118690330D01*
X128210223Y-118690330D02*
X129249670Y-119729777D01*
X129249670Y-119729777D02*
X130865409Y-118114038D01*
%TO.C,D235*%
X126110223Y-122890330D02*
X127149670Y-123929777D01*
X127149670Y-123929777D02*
X128765409Y-122314038D01*
X127725962Y-121274591D02*
X126110223Y-122890330D01*
%TO.C,D11*%
X127149670Y-94529777D02*
X128765409Y-92914038D01*
X126110223Y-93490330D02*
X127149670Y-94529777D01*
X127725962Y-91874591D02*
X126110223Y-93490330D01*
%TO.C,D164*%
X111410223Y-114490330D02*
X112449670Y-115529777D01*
X112449670Y-115529777D02*
X114065409Y-113914038D01*
X113025962Y-112874591D02*
X111410223Y-114490330D01*
%TO.C,D84*%
X113025962Y-102374591D02*
X111410223Y-103990330D01*
X112449670Y-105029777D02*
X114065409Y-103414038D01*
X111410223Y-103990330D02*
X112449670Y-105029777D01*
%TO.C,D38*%
X117225962Y-96074591D02*
X115610223Y-97690330D01*
X116649670Y-98729777D02*
X118265409Y-97114038D01*
X115610223Y-97690330D02*
X116649670Y-98729777D01*
%TO.C,D225*%
X106725962Y-121274591D02*
X105110223Y-122890330D01*
X105110223Y-122890330D02*
X106149670Y-123929777D01*
X106149670Y-123929777D02*
X107765409Y-122314038D01*
%TO.C,D186*%
X124010223Y-116590330D02*
X125049670Y-117629777D01*
X125625962Y-114974591D02*
X124010223Y-116590330D01*
X125049670Y-117629777D02*
X126665409Y-116014038D01*
%TO.C,D191*%
X134510223Y-116590330D02*
X135549670Y-117629777D01*
X135549670Y-117629777D02*
X137165409Y-116014038D01*
X136125962Y-114974591D02*
X134510223Y-116590330D01*
%TO.C,D1*%
X106725962Y-91874591D02*
X105110223Y-93490330D01*
X106149670Y-94529777D02*
X107765409Y-92914038D01*
X105110223Y-93490330D02*
X106149670Y-94529777D01*
%TO.C,D120*%
X119810223Y-108190330D02*
X120849670Y-109229777D01*
X120849670Y-109229777D02*
X122465409Y-107614038D01*
X121425962Y-106574591D02*
X119810223Y-108190330D01*
%TO.C,D18*%
X108825962Y-93974591D02*
X107210223Y-95590330D01*
X107210223Y-95590330D02*
X108249670Y-96629777D01*
X108249670Y-96629777D02*
X109865409Y-95014038D01*
D10*
%TO.C,U4*%
X146300000Y-106875000D02*
X146300000Y-107150000D01*
X151850000Y-106875000D02*
X151850000Y-107230000D01*
X146300000Y-117425000D02*
X151850000Y-117425000D01*
X146300000Y-106875000D02*
X151850000Y-106875000D01*
X146300000Y-107150000D02*
X144775000Y-107150000D01*
X146300000Y-117425000D02*
X146300000Y-117070000D01*
X151850000Y-117425000D02*
X151850000Y-117070000D01*
D11*
%TO.C,D184*%
X120849670Y-117629777D02*
X122465409Y-116014038D01*
X119810223Y-116590330D02*
X120849670Y-117629777D01*
X121425962Y-114974591D02*
X119810223Y-116590330D01*
%TO.C,D171*%
X127725962Y-112874591D02*
X126110223Y-114490330D01*
X126110223Y-114490330D02*
X127149670Y-115529777D01*
X127149670Y-115529777D02*
X128765409Y-113914038D01*
%TO.C,D65*%
X105110223Y-101890330D02*
X106149670Y-102929777D01*
X106725962Y-100274591D02*
X105110223Y-101890330D01*
X106149670Y-102929777D02*
X107765409Y-101314038D01*
%TO.C,D26*%
X125625962Y-93974591D02*
X124010223Y-95590330D01*
X124010223Y-95590330D02*
X125049670Y-96629777D01*
X125049670Y-96629777D02*
X126665409Y-95014038D01*
%TO.C,D57*%
X121910223Y-99790330D02*
X122949670Y-100829777D01*
X122949670Y-100829777D02*
X124565409Y-99214038D01*
X123525962Y-98174591D02*
X121910223Y-99790330D01*
%TO.C,D195*%
X110925962Y-117074591D02*
X109310223Y-118690330D01*
X109310223Y-118690330D02*
X110349670Y-119729777D01*
X110349670Y-119729777D02*
X111965409Y-118114038D01*
%TO.C,D97*%
X106725962Y-104474591D02*
X105110223Y-106090330D01*
X106149670Y-107129777D02*
X107765409Y-105514038D01*
X105110223Y-106090330D02*
X106149670Y-107129777D01*
%TO.C,D168*%
X121425962Y-112874591D02*
X119810223Y-114490330D01*
X119810223Y-114490330D02*
X120849670Y-115529777D01*
X120849670Y-115529777D02*
X122465409Y-113914038D01*
%TO.C,D179*%
X110349670Y-117629777D02*
X111965409Y-116014038D01*
X109310223Y-116590330D02*
X110349670Y-117629777D01*
X110925962Y-114974591D02*
X109310223Y-116590330D01*
%TO.C,D72*%
X121425962Y-100274591D02*
X119810223Y-101890330D01*
X119810223Y-101890330D02*
X120849670Y-102929777D01*
X120849670Y-102929777D02*
X122465409Y-101314038D01*
%TO.C,D220*%
X129249670Y-121829777D02*
X130865409Y-120214038D01*
X128210223Y-120790330D02*
X129249670Y-121829777D01*
X129825962Y-119174591D02*
X128210223Y-120790330D01*
%TO.C,D143*%
X134510223Y-110290330D02*
X135549670Y-111329777D01*
X136125962Y-108674591D02*
X134510223Y-110290330D01*
X135549670Y-111329777D02*
X137165409Y-109714038D01*
%TO.C,D8*%
X120849670Y-94529777D02*
X122465409Y-92914038D01*
X119810223Y-93490330D02*
X120849670Y-94529777D01*
X121425962Y-91874591D02*
X119810223Y-93490330D01*
%TO.C,D112*%
X136610223Y-106090330D02*
X137649670Y-107129777D01*
X137649670Y-107129777D02*
X139265409Y-105514038D01*
X138225962Y-104474591D02*
X136610223Y-106090330D01*
%TO.C,D255*%
X134510223Y-124990330D02*
X135549670Y-126029777D01*
X135549670Y-126029777D02*
X137165409Y-124414038D01*
X136125962Y-123374591D02*
X134510223Y-124990330D01*
%TO.C,D252*%
X129249670Y-126029777D02*
X130865409Y-124414038D01*
X128210223Y-124990330D02*
X129249670Y-126029777D01*
X129825962Y-123374591D02*
X128210223Y-124990330D01*
%TO.C,D60*%
X128210223Y-99790330D02*
X129249670Y-100829777D01*
X129249670Y-100829777D02*
X130865409Y-99214038D01*
X129825962Y-98174591D02*
X128210223Y-99790330D01*
%TO.C,D165*%
X114549670Y-115529777D02*
X116165409Y-113914038D01*
X113510223Y-114490330D02*
X114549670Y-115529777D01*
X115125962Y-112874591D02*
X113510223Y-114490330D01*
%TO.C,D148*%
X112449670Y-113429777D02*
X114065409Y-111814038D01*
X111410223Y-112390330D02*
X112449670Y-113429777D01*
X113025962Y-110774591D02*
X111410223Y-112390330D01*
%TO.C,D35*%
X110925962Y-96074591D02*
X109310223Y-97690330D01*
X110349670Y-98729777D02*
X111965409Y-97114038D01*
X109310223Y-97690330D02*
X110349670Y-98729777D01*
%TO.C,D210*%
X108825962Y-119174591D02*
X107210223Y-120790330D01*
X107210223Y-120790330D02*
X108249670Y-121829777D01*
X108249670Y-121829777D02*
X109865409Y-120214038D01*
%TO.C,D152*%
X120849670Y-113429777D02*
X122465409Y-111814038D01*
X121425962Y-110774591D02*
X119810223Y-112390330D01*
X119810223Y-112390330D02*
X120849670Y-113429777D01*
%TO.C,D105*%
X122949670Y-107129777D02*
X124565409Y-105514038D01*
X123525962Y-104474591D02*
X121910223Y-106090330D01*
X121910223Y-106090330D02*
X122949670Y-107129777D01*
%TO.C,D150*%
X116649670Y-113429777D02*
X118265409Y-111814038D01*
X115610223Y-112390330D02*
X116649670Y-113429777D01*
X117225962Y-110774591D02*
X115610223Y-112390330D01*
%TO.C,D228*%
X112449670Y-123929777D02*
X114065409Y-122314038D01*
X113025962Y-121274591D02*
X111410223Y-122890330D01*
X111410223Y-122890330D02*
X112449670Y-123929777D01*
%TO.C,D238*%
X134025962Y-121274591D02*
X132410223Y-122890330D01*
X132410223Y-122890330D02*
X133449670Y-123929777D01*
X133449670Y-123929777D02*
X135065409Y-122314038D01*
%TO.C,D153*%
X121910223Y-112390330D02*
X122949670Y-113429777D01*
X123525962Y-110774591D02*
X121910223Y-112390330D01*
X122949670Y-113429777D02*
X124565409Y-111814038D01*
%TO.C,D248*%
X119810223Y-124990330D02*
X120849670Y-126029777D01*
X121425962Y-123374591D02*
X119810223Y-124990330D01*
X120849670Y-126029777D02*
X122465409Y-124414038D01*
%TO.C,D200*%
X121425962Y-117074591D02*
X119810223Y-118690330D01*
X119810223Y-118690330D02*
X120849670Y-119729777D01*
X120849670Y-119729777D02*
X122465409Y-118114038D01*
%TO.C,D250*%
X125625962Y-123374591D02*
X124010223Y-124990330D01*
X125049670Y-126029777D02*
X126665409Y-124414038D01*
X124010223Y-124990330D02*
X125049670Y-126029777D01*
%TO.C,D211*%
X110349670Y-121829777D02*
X111965409Y-120214038D01*
X110925962Y-119174591D02*
X109310223Y-120790330D01*
X109310223Y-120790330D02*
X110349670Y-121829777D01*
%TO.C,R7*%
X122940000Y-83172936D02*
X122940000Y-83627064D01*
X124410000Y-83172936D02*
X124410000Y-83627064D01*
%TO.C,D182*%
X115610223Y-116590330D02*
X116649670Y-117629777D01*
X116649670Y-117629777D02*
X118265409Y-116014038D01*
X117225962Y-114974591D02*
X115610223Y-116590330D01*
%TO.C,D122*%
X125049670Y-109229777D02*
X126665409Y-107614038D01*
X125625962Y-106574591D02*
X124010223Y-108190330D01*
X124010223Y-108190330D02*
X125049670Y-109229777D01*
%TO.C,SW3*%
X174810000Y-122435000D02*
X173603333Y-122435000D01*
X174810000Y-123635000D02*
X174810000Y-122365000D01*
X176410000Y-122200000D02*
X176410000Y-120890000D01*
X176410000Y-120890000D02*
X169590000Y-120890000D01*
X169590000Y-125110000D02*
X169590000Y-123800000D01*
X173603333Y-123635000D02*
X173603333Y-122365000D01*
X171190000Y-122365000D02*
X171190000Y-123635000D01*
X174810000Y-122675000D02*
X173603333Y-122675000D01*
X174810000Y-122555000D02*
X173603333Y-122555000D01*
X171190000Y-123635000D02*
X174810000Y-123635000D01*
X174810000Y-123155000D02*
X173603333Y-123155000D01*
X174810000Y-123515000D02*
X173603333Y-123515000D01*
X174810000Y-122365000D02*
X171190000Y-122365000D01*
X174810000Y-123395000D02*
X173603333Y-123395000D01*
X174810000Y-122915000D02*
X173603333Y-122915000D01*
X174810000Y-122795000D02*
X173603333Y-122795000D01*
X176650000Y-125350000D02*
X175267000Y-125350000D01*
X169590000Y-122200000D02*
X169590000Y-120890000D01*
X176650000Y-125350000D02*
X176650000Y-123967000D01*
X176410000Y-125110000D02*
X176410000Y-123800000D01*
X174810000Y-123275000D02*
X173603333Y-123275000D01*
X174810000Y-123035000D02*
X173603333Y-123035000D01*
X176410000Y-125110000D02*
X169590000Y-125110000D01*
%TO.C,D128*%
X136610223Y-108190330D02*
X137649670Y-109229777D01*
X138225962Y-106574591D02*
X136610223Y-108190330D01*
X137649670Y-109229777D02*
X139265409Y-107614038D01*
%TO.C,D202*%
X124010223Y-118690330D02*
X125049670Y-119729777D01*
X125049670Y-119729777D02*
X126665409Y-118114038D01*
X125625962Y-117074591D02*
X124010223Y-118690330D01*
%TO.C,D223*%
X135549670Y-121829777D02*
X137165409Y-120214038D01*
X136125962Y-119174591D02*
X134510223Y-120790330D01*
X134510223Y-120790330D02*
X135549670Y-121829777D01*
%TO.C,D208*%
X137649670Y-119729777D02*
X139265409Y-118114038D01*
X136610223Y-118690330D02*
X137649670Y-119729777D01*
X138225962Y-117074591D02*
X136610223Y-118690330D01*
%TO.C,D6*%
X115610223Y-93490330D02*
X116649670Y-94529777D01*
X116649670Y-94529777D02*
X118265409Y-92914038D01*
X117225962Y-91874591D02*
X115610223Y-93490330D01*
%TO.C,D149*%
X115125962Y-110774591D02*
X113510223Y-112390330D01*
X113510223Y-112390330D02*
X114549670Y-113429777D01*
X114549670Y-113429777D02*
X116165409Y-111814038D01*
%TO.C,D2*%
X108249670Y-94529777D02*
X109865409Y-92914038D01*
X107210223Y-93490330D02*
X108249670Y-94529777D01*
X108825962Y-91874591D02*
X107210223Y-93490330D01*
%TO.C,D118*%
X117225962Y-106574591D02*
X115610223Y-108190330D01*
X115610223Y-108190330D02*
X116649670Y-109229777D01*
X116649670Y-109229777D02*
X118265409Y-107614038D01*
%TO.C,D70*%
X115610223Y-101890330D02*
X116649670Y-102929777D01*
X116649670Y-102929777D02*
X118265409Y-101314038D01*
X117225962Y-100274591D02*
X115610223Y-101890330D01*
%TO.C,D170*%
X125049670Y-115529777D02*
X126665409Y-113914038D01*
X124010223Y-114490330D02*
X125049670Y-115529777D01*
X125625962Y-112874591D02*
X124010223Y-114490330D01*
%TO.C,D131*%
X110349670Y-111329777D02*
X111965409Y-109714038D01*
X110925962Y-108674591D02*
X109310223Y-110290330D01*
X109310223Y-110290330D02*
X110349670Y-111329777D01*
%TO.C,D147*%
X110925962Y-110774591D02*
X109310223Y-112390330D01*
X109310223Y-112390330D02*
X110349670Y-113429777D01*
X110349670Y-113429777D02*
X111965409Y-111814038D01*
%TO.C,D61*%
X130310223Y-99790330D02*
X131349670Y-100829777D01*
X131349670Y-100829777D02*
X132965409Y-99214038D01*
X131925962Y-98174591D02*
X130310223Y-99790330D01*
%TO.C,D175*%
X134510223Y-114490330D02*
X135549670Y-115529777D01*
X136125962Y-112874591D02*
X134510223Y-114490330D01*
X135549670Y-115529777D02*
X137165409Y-113914038D01*
%TO.C,D139*%
X126110223Y-110290330D02*
X127149670Y-111329777D01*
X127149670Y-111329777D02*
X128765409Y-109714038D01*
X127725962Y-108674591D02*
X126110223Y-110290330D01*
%TO.C,D240*%
X137649670Y-123929777D02*
X139265409Y-122314038D01*
X138225962Y-121274591D02*
X136610223Y-122890330D01*
X136610223Y-122890330D02*
X137649670Y-123929777D01*
%TO.C,D127*%
X134510223Y-108190330D02*
X135549670Y-109229777D01*
X136125962Y-106574591D02*
X134510223Y-108190330D01*
X135549670Y-109229777D02*
X137165409Y-107614038D01*
%TO.C,D50*%
X107210223Y-99790330D02*
X108249670Y-100829777D01*
X108249670Y-100829777D02*
X109865409Y-99214038D01*
X108825962Y-98174591D02*
X107210223Y-99790330D01*
%TO.C,D205*%
X131349670Y-119729777D02*
X132965409Y-118114038D01*
X130310223Y-118690330D02*
X131349670Y-119729777D01*
X131925962Y-117074591D02*
X130310223Y-118690330D01*
%TO.C,D154*%
X125625962Y-110774591D02*
X124010223Y-112390330D01*
X124010223Y-112390330D02*
X125049670Y-113429777D01*
X125049670Y-113429777D02*
X126665409Y-111814038D01*
%TO.C,D90*%
X124010223Y-103990330D02*
X125049670Y-105029777D01*
X125625962Y-102374591D02*
X124010223Y-103990330D01*
X125049670Y-105029777D02*
X126665409Y-103414038D01*
%TO.C,D229*%
X115125962Y-121274591D02*
X113510223Y-122890330D01*
X114549670Y-123929777D02*
X116165409Y-122314038D01*
X113510223Y-122890330D02*
X114549670Y-123929777D01*
%TO.C,D16*%
X136610223Y-93490330D02*
X137649670Y-94529777D01*
X138225962Y-91874591D02*
X136610223Y-93490330D01*
X137649670Y-94529777D02*
X139265409Y-92914038D01*
%TO.C,D251*%
X127725962Y-123374591D02*
X126110223Y-124990330D01*
X126110223Y-124990330D02*
X127149670Y-126029777D01*
X127149670Y-126029777D02*
X128765409Y-124414038D01*
%TO.C,D41*%
X121910223Y-97690330D02*
X122949670Y-98729777D01*
X122949670Y-98729777D02*
X124565409Y-97114038D01*
X123525962Y-96074591D02*
X121910223Y-97690330D01*
%TO.C,D124*%
X128210223Y-108190330D02*
X129249670Y-109229777D01*
X129249670Y-109229777D02*
X130865409Y-107614038D01*
X129825962Y-106574591D02*
X128210223Y-108190330D01*
%TO.C,D3*%
X110349670Y-94529777D02*
X111965409Y-92914038D01*
X109310223Y-93490330D02*
X110349670Y-94529777D01*
X110925962Y-91874591D02*
X109310223Y-93490330D01*
%TO.C,D46*%
X132410223Y-97690330D02*
X133449670Y-98729777D01*
X134025962Y-96074591D02*
X132410223Y-97690330D01*
X133449670Y-98729777D02*
X135065409Y-97114038D01*
%TO.C,R2*%
X130440000Y-87672936D02*
X130440000Y-88127064D01*
X131910000Y-87672936D02*
X131910000Y-88127064D01*
%TO.C,D206*%
X133449670Y-119729777D02*
X135065409Y-118114038D01*
X134025962Y-117074591D02*
X132410223Y-118690330D01*
X132410223Y-118690330D02*
X133449670Y-119729777D01*
%TO.C,D162*%
X108825962Y-112874591D02*
X107210223Y-114490330D01*
X108249670Y-115529777D02*
X109865409Y-113914038D01*
X107210223Y-114490330D02*
X108249670Y-115529777D01*
%TO.C,D13*%
X130310223Y-93490330D02*
X131349670Y-94529777D01*
X131349670Y-94529777D02*
X132965409Y-92914038D01*
X131925962Y-91874591D02*
X130310223Y-93490330D01*
%TO.C,D207*%
X134510223Y-118690330D02*
X135549670Y-119729777D01*
X135549670Y-119729777D02*
X137165409Y-118114038D01*
X136125962Y-117074591D02*
X134510223Y-118690330D01*
%TO.C,D233*%
X121910223Y-122890330D02*
X122949670Y-123929777D01*
X122949670Y-123929777D02*
X124565409Y-122314038D01*
X123525962Y-121274591D02*
X121910223Y-122890330D01*
%TO.C,D103*%
X118749670Y-107129777D02*
X120365409Y-105514038D01*
X119325962Y-104474591D02*
X117710223Y-106090330D01*
X117710223Y-106090330D02*
X118749670Y-107129777D01*
%TO.C,D83*%
X110349670Y-105029777D02*
X111965409Y-103414038D01*
X110925962Y-102374591D02*
X109310223Y-103990330D01*
X109310223Y-103990330D02*
X110349670Y-105029777D01*
%TO.C,D29*%
X131349670Y-96629777D02*
X132965409Y-95014038D01*
X131925962Y-93974591D02*
X130310223Y-95590330D01*
X130310223Y-95590330D02*
X131349670Y-96629777D01*
%TO.C,D123*%
X127149670Y-109229777D02*
X128765409Y-107614038D01*
X126110223Y-108190330D02*
X127149670Y-109229777D01*
X127725962Y-106574591D02*
X126110223Y-108190330D01*
%TO.C,D55*%
X118749670Y-100829777D02*
X120365409Y-99214038D01*
X117710223Y-99790330D02*
X118749670Y-100829777D01*
X119325962Y-98174591D02*
X117710223Y-99790330D01*
%TO.C,D87*%
X118749670Y-105029777D02*
X120365409Y-103414038D01*
X119325962Y-102374591D02*
X117710223Y-103990330D01*
X117710223Y-103990330D02*
X118749670Y-105029777D01*
%TO.C,D231*%
X117710223Y-122890330D02*
X118749670Y-123929777D01*
X118749670Y-123929777D02*
X120365409Y-122314038D01*
X119325962Y-121274591D02*
X117710223Y-122890330D01*
%TO.C,D62*%
X133449670Y-100829777D02*
X135065409Y-99214038D01*
X132410223Y-99790330D02*
X133449670Y-100829777D01*
X134025962Y-98174591D02*
X132410223Y-99790330D01*
%TO.C,D116*%
X113025962Y-106574591D02*
X111410223Y-108190330D01*
X112449670Y-109229777D02*
X114065409Y-107614038D01*
X111410223Y-108190330D02*
X112449670Y-109229777D01*
%TO.C,D31*%
X134510223Y-95590330D02*
X135549670Y-96629777D01*
X135549670Y-96629777D02*
X137165409Y-95014038D01*
X136125962Y-93974591D02*
X134510223Y-95590330D01*
%TO.C,D88*%
X119810223Y-103990330D02*
X120849670Y-105029777D01*
X121425962Y-102374591D02*
X119810223Y-103990330D01*
X120849670Y-105029777D02*
X122465409Y-103414038D01*
%TO.C,D161*%
X106725962Y-112874591D02*
X105110223Y-114490330D01*
X105110223Y-114490330D02*
X106149670Y-115529777D01*
X106149670Y-115529777D02*
X107765409Y-113914038D01*
%TO.C,D85*%
X115125962Y-102374591D02*
X113510223Y-103990330D01*
X113510223Y-103990330D02*
X114549670Y-105029777D01*
X114549670Y-105029777D02*
X116165409Y-103414038D01*
%TO.C,D215*%
X119325962Y-119174591D02*
X117710223Y-120790330D01*
X118749670Y-121829777D02*
X120365409Y-120214038D01*
X117710223Y-120790330D02*
X118749670Y-121829777D01*
%TO.C,D203*%
X127725962Y-117074591D02*
X126110223Y-118690330D01*
X126110223Y-118690330D02*
X127149670Y-119729777D01*
X127149670Y-119729777D02*
X128765409Y-118114038D01*
%TO.C,D101*%
X113510223Y-106090330D02*
X114549670Y-107129777D01*
X114549670Y-107129777D02*
X116165409Y-105514038D01*
X115125962Y-104474591D02*
X113510223Y-106090330D01*
%TO.C,D10*%
X125049670Y-94529777D02*
X126665409Y-92914038D01*
X124010223Y-93490330D02*
X125049670Y-94529777D01*
X125625962Y-91874591D02*
X124010223Y-93490330D01*
%TO.C,D27*%
X126110223Y-95590330D02*
X127149670Y-96629777D01*
X127149670Y-96629777D02*
X128765409Y-95014038D01*
X127725962Y-93974591D02*
X126110223Y-95590330D01*
%TO.C,D114*%
X107210223Y-108190330D02*
X108249670Y-109229777D01*
X108825962Y-106574591D02*
X107210223Y-108190330D01*
X108249670Y-109229777D02*
X109865409Y-107614038D01*
%TO.C,D253*%
X130310223Y-124990330D02*
X131349670Y-126029777D01*
X131349670Y-126029777D02*
X132965409Y-124414038D01*
X131925962Y-123374591D02*
X130310223Y-124990330D01*
%TO.C,D82*%
X108825962Y-102374591D02*
X107210223Y-103990330D01*
X108249670Y-105029777D02*
X109865409Y-103414038D01*
X107210223Y-103990330D02*
X108249670Y-105029777D01*
%TO.C,D109*%
X130310223Y-106090330D02*
X131349670Y-107129777D01*
X131925962Y-104474591D02*
X130310223Y-106090330D01*
X131349670Y-107129777D02*
X132965409Y-105514038D01*
%TO.C,D236*%
X128210223Y-122890330D02*
X129249670Y-123929777D01*
X129825962Y-121274591D02*
X128210223Y-122890330D01*
X129249670Y-123929777D02*
X130865409Y-122314038D01*
%TO.C,D226*%
X107210223Y-122890330D02*
X108249670Y-123929777D01*
X108249670Y-123929777D02*
X109865409Y-122314038D01*
X108825962Y-121274591D02*
X107210223Y-122890330D01*
%TO.C,D232*%
X119810223Y-122890330D02*
X120849670Y-123929777D01*
X120849670Y-123929777D02*
X122465409Y-122314038D01*
X121425962Y-121274591D02*
X119810223Y-122890330D01*
%TO.C,D74*%
X124010223Y-101890330D02*
X125049670Y-102929777D01*
X125625962Y-100274591D02*
X124010223Y-101890330D01*
X125049670Y-102929777D02*
X126665409Y-101314038D01*
%TO.C,R9*%
X119940001Y-83172936D02*
X119940001Y-83627064D01*
X121410001Y-83172936D02*
X121410001Y-83627064D01*
%TO.C,D67*%
X110925962Y-100274591D02*
X109310223Y-101890330D01*
X109310223Y-101890330D02*
X110349670Y-102929777D01*
X110349670Y-102929777D02*
X111965409Y-101314038D01*
%TO.C,D33*%
X106149670Y-98729777D02*
X107765409Y-97114038D01*
X105110223Y-97690330D02*
X106149670Y-98729777D01*
X106725962Y-96074591D02*
X105110223Y-97690330D01*
%TO.C,D140*%
X129825962Y-108674591D02*
X128210223Y-110290330D01*
X128210223Y-110290330D02*
X129249670Y-111329777D01*
X129249670Y-111329777D02*
X130865409Y-109714038D01*
%TO.C,D71*%
X119325962Y-100274591D02*
X117710223Y-101890330D01*
X118749670Y-102929777D02*
X120365409Y-101314038D01*
X117710223Y-101890330D02*
X118749670Y-102929777D01*
%TO.C,D66*%
X107210223Y-101890330D02*
X108249670Y-102929777D01*
X108825962Y-100274591D02*
X107210223Y-101890330D01*
X108249670Y-102929777D02*
X109865409Y-101314038D01*
%TO.C,D104*%
X121425962Y-104474591D02*
X119810223Y-106090330D01*
X119810223Y-106090330D02*
X120849670Y-107129777D01*
X120849670Y-107129777D02*
X122465409Y-105514038D01*
%TO.C,D209*%
X106149670Y-121829777D02*
X107765409Y-120214038D01*
X105110223Y-120790330D02*
X106149670Y-121829777D01*
X106725962Y-119174591D02*
X105110223Y-120790330D01*
%TO.C,D78*%
X132410223Y-101890330D02*
X133449670Y-102929777D01*
X134025962Y-100274591D02*
X132410223Y-101890330D01*
X133449670Y-102929777D02*
X135065409Y-101314038D01*
D10*
%TO.C,U1*%
X165000000Y-83100000D02*
X165000000Y-88650000D01*
X154450000Y-83100000D02*
X154450000Y-88650000D01*
X165000000Y-83100000D02*
X164725000Y-83100000D01*
X154450000Y-88650000D02*
X154805000Y-88650000D01*
X165000000Y-88650000D02*
X164645000Y-88650000D01*
X164725000Y-83100000D02*
X164725000Y-81575000D01*
X154450000Y-83100000D02*
X154805000Y-83100000D01*
D11*
%TO.C,D136*%
X121425962Y-108674591D02*
X119810223Y-110290330D01*
X120849670Y-111329777D02*
X122465409Y-109714038D01*
X119810223Y-110290330D02*
X120849670Y-111329777D01*
%TO.C,D99*%
X110349670Y-107129777D02*
X111965409Y-105514038D01*
X109310223Y-106090330D02*
X110349670Y-107129777D01*
X110925962Y-104474591D02*
X109310223Y-106090330D01*
%TO.C,D102*%
X115610223Y-106090330D02*
X116649670Y-107129777D01*
X117225962Y-104474591D02*
X115610223Y-106090330D01*
X116649670Y-107129777D02*
X118265409Y-105514038D01*
%TO.C,D111*%
X136125962Y-104474591D02*
X134510223Y-106090330D01*
X135549670Y-107129777D02*
X137165409Y-105514038D01*
X134510223Y-106090330D02*
X135549670Y-107129777D01*
%TO.C,D135*%
X118749670Y-111329777D02*
X120365409Y-109714038D01*
X119325962Y-108674591D02*
X117710223Y-110290330D01*
X117710223Y-110290330D02*
X118749670Y-111329777D01*
%TO.C,J15*%
X168038534Y-96369364D02*
X168441585Y-95966313D01*
X168933024Y-93502046D02*
X169470425Y-94039447D01*
X169919438Y-94488460D02*
X174451992Y-99021014D01*
X173728997Y-99744010D02*
X174451992Y-99021014D01*
X172571088Y-100901918D02*
X173294084Y-100178923D01*
X168038534Y-96369364D02*
X172571088Y-100901918D01*
X167992572Y-94442498D02*
X168933024Y-93502046D01*
X169516387Y-94891511D02*
X169919438Y-94488460D01*
%TO.C,D37*%
X113510223Y-97690330D02*
X114549670Y-98729777D01*
X114549670Y-98729777D02*
X116165409Y-97114038D01*
X115125962Y-96074591D02*
X113510223Y-97690330D01*
%TO.C,D241*%
X106725962Y-123374591D02*
X105110223Y-124990330D01*
X106149670Y-126029777D02*
X107765409Y-124414038D01*
X105110223Y-124990330D02*
X106149670Y-126029777D01*
%TO.C,R11*%
X118410001Y-83172936D02*
X118410001Y-83627064D01*
X116940001Y-83172936D02*
X116940001Y-83627064D01*
%TO.C,J18*%
X171630636Y-86038534D02*
X172033687Y-86441585D01*
X168255990Y-91728997D02*
X168978986Y-92451992D01*
X173557502Y-85992572D02*
X174497954Y-86933024D01*
X173108489Y-87516387D02*
X173511540Y-87919438D01*
X174497954Y-86933024D02*
X173960553Y-87470425D01*
X173511540Y-87919438D02*
X168978986Y-92451992D01*
X167098082Y-90571088D02*
X167821077Y-91294084D01*
X171630636Y-86038534D02*
X167098082Y-90571088D01*
%TO.C,D53*%
X114549670Y-100829777D02*
X116165409Y-99214038D01*
X113510223Y-99790330D02*
X114549670Y-100829777D01*
X115125962Y-98174591D02*
X113510223Y-99790330D01*
%TO.C,D15*%
X135549670Y-94529777D02*
X137165409Y-92914038D01*
X134510223Y-93490330D02*
X135549670Y-94529777D01*
X136125962Y-91874591D02*
X134510223Y-93490330D01*
D10*
%TO.C,U3*%
X146150000Y-93025000D02*
X151700000Y-93025000D01*
X146150000Y-93025000D02*
X146150000Y-93300000D01*
X146150000Y-103575000D02*
X146150000Y-103220000D01*
X146150000Y-93300000D02*
X144625000Y-93300000D01*
X146150000Y-103575000D02*
X151700000Y-103575000D01*
X151700000Y-103575000D02*
X151700000Y-103220000D01*
X151700000Y-93025000D02*
X151700000Y-93380000D01*
D11*
%TO.C,D4*%
X112449670Y-94529777D02*
X114065409Y-92914038D01*
X113025962Y-91874591D02*
X111410223Y-93490330D01*
X111410223Y-93490330D02*
X112449670Y-94529777D01*
%TO.C,D100*%
X113025962Y-104474591D02*
X111410223Y-106090330D01*
X112449670Y-107129777D02*
X114065409Y-105514038D01*
X111410223Y-106090330D02*
X112449670Y-107129777D01*
%TO.C,R6*%
X124440001Y-87672936D02*
X124440001Y-88127064D01*
X125910001Y-87672936D02*
X125910001Y-88127064D01*
%TO.C,D187*%
X127149670Y-117629777D02*
X128765409Y-116014038D01*
X126110223Y-116590330D02*
X127149670Y-117629777D01*
X127725962Y-114974591D02*
X126110223Y-116590330D01*
%TO.C,D56*%
X120849670Y-100829777D02*
X122465409Y-99214038D01*
X121425962Y-98174591D02*
X119810223Y-99790330D01*
X119810223Y-99790330D02*
X120849670Y-100829777D01*
%TO.C,D24*%
X120849670Y-96629777D02*
X122465409Y-95014038D01*
X119810223Y-95590330D02*
X120849670Y-96629777D01*
X121425962Y-93974591D02*
X119810223Y-95590330D01*
%TO.C,D166*%
X116649670Y-115529777D02*
X118265409Y-113914038D01*
X115610223Y-114490330D02*
X116649670Y-115529777D01*
X117225962Y-112874591D02*
X115610223Y-114490330D01*
%TO.C,D249*%
X122949670Y-126029777D02*
X124565409Y-124414038D01*
X121910223Y-124990330D02*
X122949670Y-126029777D01*
X123525962Y-123374591D02*
X121910223Y-124990330D01*
%TO.C,D68*%
X111410223Y-101890330D02*
X112449670Y-102929777D01*
X113025962Y-100274591D02*
X111410223Y-101890330D01*
X112449670Y-102929777D02*
X114065409Y-101314038D01*
%TO.C,R8*%
X121439999Y-87672936D02*
X121439999Y-88127064D01*
X122909999Y-87672936D02*
X122909999Y-88127064D01*
%TO.C,D224*%
X138225962Y-119174591D02*
X136610223Y-120790330D01*
X136610223Y-120790330D02*
X137649670Y-121829777D01*
X137649670Y-121829777D02*
X139265409Y-120214038D01*
%TO.C,D158*%
X132410223Y-112390330D02*
X133449670Y-113429777D01*
X134025962Y-110774591D02*
X132410223Y-112390330D01*
X133449670Y-113429777D02*
X135065409Y-111814038D01*
%TO.C,D246*%
X117225962Y-123374591D02*
X115610223Y-124990330D01*
X116649670Y-126029777D02*
X118265409Y-124414038D01*
X115610223Y-124990330D02*
X116649670Y-126029777D01*
%TO.C,D75*%
X127725962Y-100274591D02*
X126110223Y-101890330D01*
X126110223Y-101890330D02*
X127149670Y-102929777D01*
X127149670Y-102929777D02*
X128765409Y-101314038D01*
%TO.C,D119*%
X118749670Y-109229777D02*
X120365409Y-107614038D01*
X119325962Y-106574591D02*
X117710223Y-108190330D01*
X117710223Y-108190330D02*
X118749670Y-109229777D01*
%TO.C,D198*%
X115610223Y-118690330D02*
X116649670Y-119729777D01*
X116649670Y-119729777D02*
X118265409Y-118114038D01*
X117225962Y-117074591D02*
X115610223Y-118690330D01*
%TO.C,D176*%
X136610223Y-114490330D02*
X137649670Y-115529777D01*
X137649670Y-115529777D02*
X139265409Y-113914038D01*
X138225962Y-112874591D02*
X136610223Y-114490330D01*
%TO.C,D9*%
X123525962Y-91874591D02*
X121910223Y-93490330D01*
X122949670Y-94529777D02*
X124565409Y-92914038D01*
X121910223Y-93490330D02*
X122949670Y-94529777D01*
%TO.C,D137*%
X122949670Y-111329777D02*
X124565409Y-109714038D01*
X123525962Y-108674591D02*
X121910223Y-110290330D01*
X121910223Y-110290330D02*
X122949670Y-111329777D01*
%TO.C,D43*%
X126110223Y-97690330D02*
X127149670Y-98729777D01*
X127725962Y-96074591D02*
X126110223Y-97690330D01*
X127149670Y-98729777D02*
X128765409Y-97114038D01*
%TO.C,D63*%
X136125962Y-98174591D02*
X134510223Y-99790330D01*
X134510223Y-99790330D02*
X135549670Y-100829777D01*
X135549670Y-100829777D02*
X137165409Y-99214038D01*
%TO.C,D174*%
X133449670Y-115529777D02*
X135065409Y-113914038D01*
X134025962Y-112874591D02*
X132410223Y-114490330D01*
X132410223Y-114490330D02*
X133449670Y-115529777D01*
%TO.C,D92*%
X129825962Y-102374591D02*
X128210223Y-103990330D01*
X129249670Y-105029777D02*
X130865409Y-103414038D01*
X128210223Y-103990330D02*
X129249670Y-105029777D01*
%TO.C,D185*%
X122949670Y-117629777D02*
X124565409Y-116014038D01*
X123525962Y-114974591D02*
X121910223Y-116590330D01*
X121910223Y-116590330D02*
X122949670Y-117629777D01*
%TO.C,D142*%
X134025962Y-108674591D02*
X132410223Y-110290330D01*
X132410223Y-110290330D02*
X133449670Y-111329777D01*
X133449670Y-111329777D02*
X135065409Y-109714038D01*
%TO.C,D193*%
X106725962Y-117074591D02*
X105110223Y-118690330D01*
X105110223Y-118690330D02*
X106149670Y-119729777D01*
X106149670Y-119729777D02*
X107765409Y-118114038D01*
%TO.C,D40*%
X120849670Y-98729777D02*
X122465409Y-97114038D01*
X119810223Y-97690330D02*
X120849670Y-98729777D01*
X121425962Y-96074591D02*
X119810223Y-97690330D01*
%TO.C,D244*%
X111410223Y-124990330D02*
X112449670Y-126029777D01*
X113025962Y-123374591D02*
X111410223Y-124990330D01*
X112449670Y-126029777D02*
X114065409Y-124414038D01*
%TO.C,D94*%
X133449670Y-105029777D02*
X135065409Y-103414038D01*
X132410223Y-103990330D02*
X133449670Y-105029777D01*
X134025962Y-102374591D02*
X132410223Y-103990330D01*
%TO.C,D243*%
X110925962Y-123374591D02*
X109310223Y-124990330D01*
X109310223Y-124990330D02*
X110349670Y-126029777D01*
X110349670Y-126029777D02*
X111965409Y-124414038D01*
%TO.C,D216*%
X119810223Y-120790330D02*
X120849670Y-121829777D01*
X120849670Y-121829777D02*
X122465409Y-120214038D01*
X121425962Y-119174591D02*
X119810223Y-120790330D01*
%TO.C,D156*%
X129825962Y-110774591D02*
X128210223Y-112390330D01*
X128210223Y-112390330D02*
X129249670Y-113429777D01*
X129249670Y-113429777D02*
X130865409Y-111814038D01*
%TO.C,D14*%
X132410223Y-93490330D02*
X133449670Y-94529777D01*
X133449670Y-94529777D02*
X135065409Y-92914038D01*
X134025962Y-91874591D02*
X132410223Y-93490330D01*
%TO.C,D239*%
X136125962Y-121274591D02*
X134510223Y-122890330D01*
X135549670Y-123929777D02*
X137165409Y-122314038D01*
X134510223Y-122890330D02*
X135549670Y-123929777D01*
%TO.C,D177*%
X106149670Y-117629777D02*
X107765409Y-116014038D01*
X106725962Y-114974591D02*
X105110223Y-116590330D01*
X105110223Y-116590330D02*
X106149670Y-117629777D01*
%TO.C,D245*%
X114549670Y-126029777D02*
X116165409Y-124414038D01*
X115125962Y-123374591D02*
X113510223Y-124990330D01*
X113510223Y-124990330D02*
X114549670Y-126029777D01*
%TO.C,D230*%
X115610223Y-122890330D02*
X116649670Y-123929777D01*
X116649670Y-123929777D02*
X118265409Y-122314038D01*
X117225962Y-121274591D02*
X115610223Y-122890330D01*
%TO.C,D222*%
X132410223Y-120790330D02*
X133449670Y-121829777D01*
X134025962Y-119174591D02*
X132410223Y-120790330D01*
X133449670Y-121829777D02*
X135065409Y-120214038D01*
%TO.C,D51*%
X110925962Y-98174591D02*
X109310223Y-99790330D01*
X109310223Y-99790330D02*
X110349670Y-100829777D01*
X110349670Y-100829777D02*
X111965409Y-99214038D01*
%TO.C,D167*%
X117710223Y-114490330D02*
X118749670Y-115529777D01*
X118749670Y-115529777D02*
X120365409Y-113914038D01*
X119325962Y-112874591D02*
X117710223Y-114490330D01*
%TO.C,D76*%
X129249670Y-102929777D02*
X130865409Y-101314038D01*
X128210223Y-101890330D02*
X129249670Y-102929777D01*
X129825962Y-100274591D02*
X128210223Y-101890330D01*
%TO.C,D138*%
X125049670Y-111329777D02*
X126665409Y-109714038D01*
X125625962Y-108674591D02*
X124010223Y-110290330D01*
X124010223Y-110290330D02*
X125049670Y-111329777D01*
%TO.C,R13*%
X113940001Y-83172936D02*
X113940001Y-83627064D01*
X115410001Y-83172936D02*
X115410001Y-83627064D01*
%TO.C,D77*%
X131925962Y-100274591D02*
X130310223Y-101890330D01*
X130310223Y-101890330D02*
X131349670Y-102929777D01*
X131349670Y-102929777D02*
X132965409Y-101314038D01*
%TO.C,D23*%
X117710223Y-95590330D02*
X118749670Y-96629777D01*
X118749670Y-96629777D02*
X120365409Y-95014038D01*
X119325962Y-93974591D02*
X117710223Y-95590330D01*
%TO.C,D81*%
X105110223Y-103990330D02*
X106149670Y-105029777D01*
X106725962Y-102374591D02*
X105110223Y-103990330D01*
X106149670Y-105029777D02*
X107765409Y-103414038D01*
%TO.C,D172*%
X129825962Y-112874591D02*
X128210223Y-114490330D01*
X128210223Y-114490330D02*
X129249670Y-115529777D01*
X129249670Y-115529777D02*
X130865409Y-113914038D01*
%TO.C,D213*%
X115125962Y-119174591D02*
X113510223Y-120790330D01*
X113510223Y-120790330D02*
X114549670Y-121829777D01*
X114549670Y-121829777D02*
X116165409Y-120214038D01*
%TO.C,D247*%
X117710223Y-124990330D02*
X118749670Y-126029777D01*
X119325962Y-123374591D02*
X117710223Y-124990330D01*
X118749670Y-126029777D02*
X120365409Y-124414038D01*
%TO.C,D146*%
X108249670Y-113429777D02*
X109865409Y-111814038D01*
X108825962Y-110774591D02*
X107210223Y-112390330D01*
X107210223Y-112390330D02*
X108249670Y-113429777D01*
%TO.C,D44*%
X129825962Y-96074591D02*
X128210223Y-97690330D01*
X129249670Y-98729777D02*
X130865409Y-97114038D01*
X128210223Y-97690330D02*
X129249670Y-98729777D01*
%TO.C,D79*%
X134510223Y-101890330D02*
X135549670Y-102929777D01*
X135549670Y-102929777D02*
X137165409Y-101314038D01*
X136125962Y-100274591D02*
X134510223Y-101890330D01*
%TO.C,D145*%
X106149670Y-113429777D02*
X107765409Y-111814038D01*
X105110223Y-112390330D02*
X106149670Y-113429777D01*
X106725962Y-110774591D02*
X105110223Y-112390330D01*
D10*
%TO.C,U2*%
X152575000Y-83425000D02*
X152300000Y-83425000D01*
X152575000Y-88975000D02*
X152220000Y-88975000D01*
X152300000Y-83425000D02*
X152300000Y-81900000D01*
X142025000Y-83425000D02*
X142380000Y-83425000D01*
X142025000Y-88975000D02*
X142380000Y-88975000D01*
X152575000Y-83425000D02*
X152575000Y-88975000D01*
X142025000Y-83425000D02*
X142025000Y-88975000D01*
D11*
%TO.C,D126*%
X133449670Y-109229777D02*
X135065409Y-107614038D01*
X134025962Y-106574591D02*
X132410223Y-108190330D01*
X132410223Y-108190330D02*
X133449670Y-109229777D01*
%TO.C,D256*%
X137649670Y-126029777D02*
X139265409Y-124414038D01*
X136610223Y-124990330D02*
X137649670Y-126029777D01*
X138225962Y-123374591D02*
X136610223Y-124990330D01*
%TO.C,R10*%
X119910001Y-87672936D02*
X119910001Y-88127064D01*
X118440001Y-87672936D02*
X118440001Y-88127064D01*
%TO.C,D42*%
X125049670Y-98729777D02*
X126665409Y-97114038D01*
X124010223Y-97690330D02*
X125049670Y-98729777D01*
X125625962Y-96074591D02*
X124010223Y-97690330D01*
%TO.C,D107*%
X127725962Y-104474591D02*
X126110223Y-106090330D01*
X126110223Y-106090330D02*
X127149670Y-107129777D01*
X127149670Y-107129777D02*
X128765409Y-105514038D01*
%TO.C,D160*%
X137649670Y-113429777D02*
X139265409Y-111814038D01*
X138225962Y-110774591D02*
X136610223Y-112390330D01*
X136610223Y-112390330D02*
X137649670Y-113429777D01*
%TO.C,D95*%
X135549670Y-105029777D02*
X137165409Y-103414038D01*
X134510223Y-103990330D02*
X135549670Y-105029777D01*
X136125962Y-102374591D02*
X134510223Y-103990330D01*
%TO.C,D242*%
X108249670Y-126029777D02*
X109865409Y-124414038D01*
X108825962Y-123374591D02*
X107210223Y-124990330D01*
X107210223Y-124990330D02*
X108249670Y-126029777D01*
%TO.C,R3*%
X128940001Y-83172936D02*
X128940001Y-83627064D01*
X130410001Y-83172936D02*
X130410001Y-83627064D01*
%TO.C,D52*%
X111410223Y-99790330D02*
X112449670Y-100829777D01*
X112449670Y-100829777D02*
X114065409Y-99214038D01*
X113025962Y-98174591D02*
X111410223Y-99790330D01*
%TO.C,D221*%
X130310223Y-120790330D02*
X131349670Y-121829777D01*
X131925962Y-119174591D02*
X130310223Y-120790330D01*
X131349670Y-121829777D02*
X132965409Y-120214038D01*
%TO.C,R5*%
X125940001Y-83172936D02*
X125940001Y-83627064D01*
X127410001Y-83172936D02*
X127410001Y-83627064D01*
%TO.C,D117*%
X113510223Y-108190330D02*
X114549670Y-109229777D01*
X115125962Y-106574591D02*
X113510223Y-108190330D01*
X114549670Y-109229777D02*
X116165409Y-107614038D01*
%TO.C,D108*%
X129825962Y-104474591D02*
X128210223Y-106090330D01*
X128210223Y-106090330D02*
X129249670Y-107129777D01*
X129249670Y-107129777D02*
X130865409Y-105514038D01*
%TO.C,D110*%
X134025962Y-104474591D02*
X132410223Y-106090330D01*
X133449670Y-107129777D02*
X135065409Y-105514038D01*
X132410223Y-106090330D02*
X133449670Y-107129777D01*
%TO.C,D86*%
X115610223Y-103990330D02*
X116649670Y-105029777D01*
X116649670Y-105029777D02*
X118265409Y-103414038D01*
X117225962Y-102374591D02*
X115610223Y-103990330D01*
%TO.C,D30*%
X132410223Y-95590330D02*
X133449670Y-96629777D01*
X134025962Y-93974591D02*
X132410223Y-95590330D01*
X133449670Y-96629777D02*
X135065409Y-95014038D01*
%TO.C,D54*%
X117225962Y-98174591D02*
X115610223Y-99790330D01*
X116649670Y-100829777D02*
X118265409Y-99214038D01*
X115610223Y-99790330D02*
X116649670Y-100829777D01*
%TO.C,D197*%
X115125962Y-117074591D02*
X113510223Y-118690330D01*
X113510223Y-118690330D02*
X114549670Y-119729777D01*
X114549670Y-119729777D02*
X116165409Y-118114038D01*
%TO.C,D183*%
X119325962Y-114974591D02*
X117710223Y-116590330D01*
X118749670Y-117629777D02*
X120365409Y-116014038D01*
X117710223Y-116590330D02*
X118749670Y-117629777D01*
%TO.C,R1*%
X133410001Y-83172936D02*
X133410001Y-83627064D01*
X131940001Y-83172936D02*
X131940001Y-83627064D01*
%TO.C,D237*%
X131925962Y-121274591D02*
X130310223Y-122890330D01*
X131349670Y-123929777D02*
X132965409Y-122314038D01*
X130310223Y-122890330D02*
X131349670Y-123929777D01*
%TO.C,D234*%
X125625962Y-121274591D02*
X124010223Y-122890330D01*
X125049670Y-123929777D02*
X126665409Y-122314038D01*
X124010223Y-122890330D02*
X125049670Y-123929777D01*
%TO.C,D22*%
X116649670Y-96629777D02*
X118265409Y-95014038D01*
X115610223Y-95590330D02*
X116649670Y-96629777D01*
X117225962Y-93974591D02*
X115610223Y-95590330D01*
%TO.C,D188*%
X129249670Y-117629777D02*
X130865409Y-116014038D01*
X128210223Y-116590330D02*
X129249670Y-117629777D01*
X129825962Y-114974591D02*
X128210223Y-116590330D01*
%TO.C,D80*%
X137649670Y-102929777D02*
X139265409Y-101314038D01*
X136610223Y-101890330D02*
X137649670Y-102929777D01*
X138225962Y-100274591D02*
X136610223Y-101890330D01*
%TO.C,D254*%
X133449670Y-126029777D02*
X135065409Y-124414038D01*
X132410223Y-124990330D02*
X133449670Y-126029777D01*
X134025962Y-123374591D02*
X132410223Y-124990330D01*
%TO.C,D5*%
X114549670Y-94529777D02*
X116165409Y-92914038D01*
X115125962Y-91874591D02*
X113510223Y-93490330D01*
X113510223Y-93490330D02*
X114549670Y-94529777D01*
%TO.C,D196*%
X113025962Y-117074591D02*
X111410223Y-118690330D01*
X111410223Y-118690330D02*
X112449670Y-119729777D01*
X112449670Y-119729777D02*
X114065409Y-118114038D01*
%TO.C,D113*%
X105110223Y-108190330D02*
X106149670Y-109229777D01*
X106149670Y-109229777D02*
X107765409Y-107614038D01*
X106725962Y-106574591D02*
X105110223Y-108190330D01*
%TO.C,D219*%
X126110223Y-120790330D02*
X127149670Y-121829777D01*
X127149670Y-121829777D02*
X128765409Y-120214038D01*
X127725962Y-119174591D02*
X126110223Y-120790330D01*
%TO.C,D73*%
X121910223Y-101890330D02*
X122949670Y-102929777D01*
X122949670Y-102929777D02*
X124565409Y-101314038D01*
X123525962Y-100274591D02*
X121910223Y-101890330D01*
%TO.C,D25*%
X122949670Y-96629777D02*
X124565409Y-95014038D01*
X121910223Y-95590330D02*
X122949670Y-96629777D01*
X123525962Y-93974591D02*
X121910223Y-95590330D01*
%TO.C,D214*%
X116649670Y-121829777D02*
X118265409Y-120214038D01*
X115610223Y-120790330D02*
X116649670Y-121829777D01*
X117225962Y-119174591D02*
X115610223Y-120790330D01*
%TO.C,D141*%
X130310223Y-110290330D02*
X131349670Y-111329777D01*
X131349670Y-111329777D02*
X132965409Y-109714038D01*
X131925962Y-108674591D02*
X130310223Y-110290330D01*
%TO.C,D91*%
X126110223Y-103990330D02*
X127149670Y-105029777D01*
X127725962Y-102374591D02*
X126110223Y-103990330D01*
X127149670Y-105029777D02*
X128765409Y-103414038D01*
%TO.C,D159*%
X136125962Y-110774591D02*
X134510223Y-112390330D01*
X135549670Y-113429777D02*
X137165409Y-111814038D01*
X134510223Y-112390330D02*
X135549670Y-113429777D01*
%TO.C,R4*%
X128910001Y-87672936D02*
X128910001Y-88127064D01*
X127440001Y-87672936D02*
X127440001Y-88127064D01*
%TO.C,J7*%
X176488461Y-98080563D02*
X181021015Y-93548009D01*
X181744011Y-94271004D02*
X181021015Y-93548009D01*
X176442499Y-100007429D02*
X175502047Y-99066977D01*
X176891512Y-98483614D02*
X176488461Y-98080563D01*
X182901919Y-95428913D02*
X182178924Y-94705917D01*
X178369365Y-99961467D02*
X182901919Y-95428913D01*
X175502047Y-99066977D02*
X176039448Y-98529576D01*
X178369365Y-99961467D02*
X177966314Y-99558416D01*
%TO.C,D89*%
X123525962Y-102374591D02*
X121910223Y-103990330D01*
X122949670Y-105029777D02*
X124565409Y-103414038D01*
X121910223Y-103990330D02*
X122949670Y-105029777D01*
%TO.C,D199*%
X119325962Y-117074591D02*
X117710223Y-118690330D01*
X117710223Y-118690330D02*
X118749670Y-119729777D01*
X118749670Y-119729777D02*
X120365409Y-118114038D01*
%TO.C,R15*%
X112410001Y-83172936D02*
X112410001Y-83627064D01*
X110940001Y-83172936D02*
X110940001Y-83627064D01*
%TO.C,D144*%
X138225962Y-108674591D02*
X136610223Y-110290330D01*
X137649670Y-111329777D02*
X139265409Y-109714038D01*
X136610223Y-110290330D02*
X137649670Y-111329777D01*
%TO.C,D39*%
X118749670Y-98729777D02*
X120365409Y-97114038D01*
X119325962Y-96074591D02*
X117710223Y-97690330D01*
X117710223Y-97690330D02*
X118749670Y-98729777D01*
%TO.C,D189*%
X131925962Y-114974591D02*
X130310223Y-116590330D01*
X130310223Y-116590330D02*
X131349670Y-117629777D01*
X131349670Y-117629777D02*
X132965409Y-116014038D01*
%TO.C,D106*%
X125625962Y-104474591D02*
X124010223Y-106090330D01*
X125049670Y-107129777D02*
X126665409Y-105514038D01*
X124010223Y-106090330D02*
X125049670Y-107129777D01*
%TO.C,D212*%
X112449670Y-121829777D02*
X114065409Y-120214038D01*
X113025962Y-119174591D02*
X111410223Y-120790330D01*
X111410223Y-120790330D02*
X112449670Y-121829777D01*
%TO.C,D180*%
X112449670Y-117629777D02*
X114065409Y-116014038D01*
X113025962Y-114974591D02*
X111410223Y-116590330D01*
X111410223Y-116590330D02*
X112449670Y-117629777D01*
%TO.C,R14*%
X113909999Y-87672936D02*
X113909999Y-88127064D01*
X112439999Y-87672936D02*
X112439999Y-88127064D01*
%TO.C,D96*%
X138225962Y-102374591D02*
X136610223Y-103990330D01*
X137649670Y-105029777D02*
X139265409Y-103414038D01*
X136610223Y-103990330D02*
X137649670Y-105029777D01*
%TO.C,D45*%
X130310223Y-97690330D02*
X131349670Y-98729777D01*
X131349670Y-98729777D02*
X132965409Y-97114038D01*
X131925962Y-96074591D02*
X130310223Y-97690330D01*
%TO.C,U5*%
X174664124Y-95648115D02*
X175000000Y-95983991D01*
X172016009Y-93000000D02*
X172351885Y-92664124D01*
X175335876Y-90351885D02*
X175000000Y-90016009D01*
X177983991Y-93000000D02*
X177648115Y-93335876D01*
X175000000Y-90016009D02*
X174664124Y-90351885D01*
X177648115Y-92664124D02*
X177983991Y-93000000D01*
X172351885Y-93335876D02*
X172016009Y-93000000D01*
%TO.C,D20*%
X111410223Y-95590330D02*
X112449670Y-96629777D01*
X113025962Y-93974591D02*
X111410223Y-95590330D01*
X112449670Y-96629777D02*
X114065409Y-95014038D01*
%TO.C,D21*%
X114549670Y-96629777D02*
X116165409Y-95014038D01*
X113510223Y-95590330D02*
X114549670Y-96629777D01*
X115125962Y-93974591D02*
X113510223Y-95590330D01*
%TO.C,D157*%
X131349670Y-113429777D02*
X132965409Y-111814038D01*
X130310223Y-112390330D02*
X131349670Y-113429777D01*
X131925962Y-110774591D02*
X130310223Y-112390330D01*
%TO.C,D218*%
X125625962Y-119174591D02*
X124010223Y-120790330D01*
X124010223Y-120790330D02*
X125049670Y-121829777D01*
X125049670Y-121829777D02*
X126665409Y-120214038D01*
%TO.C,D64*%
X138225962Y-98174591D02*
X136610223Y-99790330D01*
X136610223Y-99790330D02*
X137649670Y-100829777D01*
X137649670Y-100829777D02*
X139265409Y-99214038D01*
%TO.C,D19*%
X109310223Y-95590330D02*
X110349670Y-96629777D01*
X110925962Y-93974591D02*
X109310223Y-95590330D01*
X110349670Y-96629777D02*
X111965409Y-95014038D01*
%TO.C,D133*%
X114549670Y-111329777D02*
X116165409Y-109714038D01*
X115125962Y-108674591D02*
X113510223Y-110290330D01*
X113510223Y-110290330D02*
X114549670Y-111329777D01*
%TO.C,R16*%
X109440001Y-87672936D02*
X109440001Y-88127064D01*
X110910001Y-87672936D02*
X110910001Y-88127064D01*
%TO.C,D17*%
X106149670Y-96629777D02*
X107765409Y-95014038D01*
X106725962Y-93974591D02*
X105110223Y-95590330D01*
X105110223Y-95590330D02*
X106149670Y-96629777D01*
%TO.C,D173*%
X131349670Y-115529777D02*
X132965409Y-113914038D01*
X131925962Y-112874591D02*
X130310223Y-114490330D01*
X130310223Y-114490330D02*
X131349670Y-115529777D01*
%TO.C,D115*%
X110925962Y-106574591D02*
X109310223Y-108190330D01*
X109310223Y-108190330D02*
X110349670Y-109229777D01*
X110349670Y-109229777D02*
X111965409Y-107614038D01*
%TO.C,D48*%
X137649670Y-98729777D02*
X139265409Y-97114038D01*
X138225962Y-96074591D02*
X136610223Y-97690330D01*
X136610223Y-97690330D02*
X137649670Y-98729777D01*
%TO.C,D47*%
X136125962Y-96074591D02*
X134510223Y-97690330D01*
X134510223Y-97690330D02*
X135549670Y-98729777D01*
X135549670Y-98729777D02*
X137165409Y-97114038D01*
%TO.C,D151*%
X118749670Y-113429777D02*
X120365409Y-111814038D01*
X119325962Y-110774591D02*
X117710223Y-112390330D01*
X117710223Y-112390330D02*
X118749670Y-113429777D01*
%TO.C,J14*%
X181066977Y-92497955D02*
X180529576Y-91960554D01*
X176271004Y-86255991D02*
X175548009Y-86978987D01*
X181961467Y-89630637D02*
X181558416Y-90033688D01*
X182007429Y-91557503D02*
X181066977Y-92497955D01*
X181961467Y-89630637D02*
X177428913Y-85098083D01*
X180483614Y-91108490D02*
X180080563Y-91511541D01*
X177428913Y-85098083D02*
X176705917Y-85821078D01*
X180080563Y-91511541D02*
X175548009Y-86978987D01*
%TO.C,D49*%
X106149670Y-100829777D02*
X107765409Y-99214038D01*
X106725962Y-98174591D02*
X105110223Y-99790330D01*
X105110223Y-99790330D02*
X106149670Y-100829777D01*
%TO.C,D93*%
X130310223Y-103990330D02*
X131349670Y-105029777D01*
X131349670Y-105029777D02*
X132965409Y-103414038D01*
X131925962Y-102374591D02*
X130310223Y-103990330D01*
%TO.C,D34*%
X108249670Y-98729777D02*
X109865409Y-97114038D01*
X108825962Y-96074591D02*
X107210223Y-97690330D01*
X107210223Y-97690330D02*
X108249670Y-98729777D01*
%TO.C,D169*%
X121910223Y-114490330D02*
X122949670Y-115529777D01*
X122949670Y-115529777D02*
X124565409Y-113914038D01*
X123525962Y-112874591D02*
X121910223Y-114490330D01*
%TO.C,D192*%
X136610223Y-116590330D02*
X137649670Y-117629777D01*
X137649670Y-117629777D02*
X139265409Y-116014038D01*
X138225962Y-114974591D02*
X136610223Y-116590330D01*
%TO.C,D130*%
X108249670Y-111329777D02*
X109865409Y-109714038D01*
X108825962Y-108674591D02*
X107210223Y-110290330D01*
X107210223Y-110290330D02*
X108249670Y-111329777D01*
%TO.C,SW2*%
X162810000Y-123155000D02*
X161603333Y-123155000D01*
X162810000Y-122915000D02*
X161603333Y-122915000D01*
X164410000Y-125110000D02*
X157590000Y-125110000D01*
X162810000Y-122555000D02*
X161603333Y-122555000D01*
X162810000Y-122795000D02*
X161603333Y-122795000D01*
X162810000Y-123395000D02*
X161603333Y-123395000D01*
X157590000Y-122200000D02*
X157590000Y-120890000D01*
X162810000Y-123275000D02*
X161603333Y-123275000D01*
X164410000Y-125110000D02*
X164410000Y-123800000D01*
X161603333Y-123635000D02*
X161603333Y-122365000D01*
X162810000Y-123035000D02*
X161603333Y-123035000D01*
X162810000Y-123515000D02*
X161603333Y-123515000D01*
X162810000Y-122435000D02*
X161603333Y-122435000D01*
X159190000Y-123635000D02*
X162810000Y-123635000D01*
X162810000Y-122675000D02*
X161603333Y-122675000D01*
X162810000Y-122365000D02*
X159190000Y-122365000D01*
X164650000Y-125350000D02*
X164650000Y-123967000D01*
X159190000Y-122365000D02*
X159190000Y-123635000D01*
X164410000Y-122200000D02*
X164410000Y-120890000D01*
X164410000Y-120890000D02*
X157590000Y-120890000D01*
X162810000Y-123635000D02*
X162810000Y-122365000D01*
X164650000Y-125350000D02*
X163267000Y-125350000D01*
X157590000Y-125110000D02*
X157590000Y-123800000D01*
%TO.C,D134*%
X116649670Y-111329777D02*
X118265409Y-109714038D01*
X117225962Y-108674591D02*
X115610223Y-110290330D01*
X115610223Y-110290330D02*
X116649670Y-111329777D01*
%TO.C,D98*%
X108249670Y-107129777D02*
X109865409Y-105514038D01*
X108825962Y-104474591D02*
X107210223Y-106090330D01*
X107210223Y-106090330D02*
X108249670Y-107129777D01*
%TO.C,D194*%
X107210223Y-118690330D02*
X108249670Y-119729777D01*
X108825962Y-117074591D02*
X107210223Y-118690330D01*
X108249670Y-119729777D02*
X109865409Y-118114038D01*
%TO.C,D125*%
X131925962Y-106574591D02*
X130310223Y-108190330D01*
X130310223Y-108190330D02*
X131349670Y-109229777D01*
X131349670Y-109229777D02*
X132965409Y-107614038D01*
%TO.C,D178*%
X108825962Y-114974591D02*
X107210223Y-116590330D01*
X108249670Y-117629777D02*
X109865409Y-116014038D01*
X107210223Y-116590330D02*
X108249670Y-117629777D01*
%TO.C,D12*%
X128210223Y-93490330D02*
X129249670Y-94529777D01*
X129249670Y-94529777D02*
X130865409Y-92914038D01*
X129825962Y-91874591D02*
X128210223Y-93490330D01*
%TO.C,D121*%
X122949670Y-109229777D02*
X124565409Y-107614038D01*
X123525962Y-106574591D02*
X121910223Y-108190330D01*
X121910223Y-108190330D02*
X122949670Y-109229777D01*
%TO.C,D59*%
X127725962Y-98174591D02*
X126110223Y-99790330D01*
X127149670Y-100829777D02*
X128765409Y-99214038D01*
X126110223Y-99790330D02*
X127149670Y-100829777D01*
%TO.C,D217*%
X122949670Y-121829777D02*
X124565409Y-120214038D01*
X121910223Y-120790330D02*
X122949670Y-121829777D01*
X123525962Y-119174591D02*
X121910223Y-120790330D01*
%TO.C,D201*%
X122949670Y-119729777D02*
X124565409Y-118114038D01*
X123525962Y-117074591D02*
X121910223Y-118690330D01*
X121910223Y-118690330D02*
X122949670Y-119729777D01*
%TD*%
%LPC*%
D12*
%TO.C,TP1*%
X171380000Y-78750000D03*
%TD*%
%TO.C,TP2*%
X166300000Y-78750000D03*
%TD*%
%TO.C,TP3*%
X176460000Y-78750000D03*
%TD*%
D13*
%TO.C,D190*%
X133423153Y-116616847D03*
X134536847Y-115503153D03*
%TD*%
%TO.C,D7*%
X118723153Y-93516847D03*
X119836847Y-92403153D03*
%TD*%
%TO.C,D32*%
X137623153Y-95616847D03*
X138736847Y-94503153D03*
%TD*%
D14*
%TO.C,SW1*%
X152590000Y-123000000D03*
X145860000Y-123000000D03*
%TD*%
D13*
%TO.C,D69*%
X114523153Y-101916847D03*
X115636847Y-100803153D03*
%TD*%
%TO.C,D36*%
X112423153Y-97716847D03*
X113536847Y-96603153D03*
%TD*%
%TO.C,D129*%
X106123153Y-110316847D03*
X107236847Y-109203153D03*
%TD*%
%TO.C,D155*%
X127123153Y-112416847D03*
X128236847Y-111303153D03*
%TD*%
%TO.C,D132*%
X112423153Y-110316847D03*
X113536847Y-109203153D03*
%TD*%
%TO.C,D227*%
X110323153Y-122916847D03*
X111436847Y-121803153D03*
%TD*%
%TO.C,D28*%
X129223153Y-95616847D03*
X130336847Y-94503153D03*
%TD*%
%TO.C,D58*%
X125023153Y-99816847D03*
X126136847Y-98703153D03*
%TD*%
D15*
%TO.C,R12*%
X116175001Y-86900000D03*
X116175001Y-88900000D03*
%TD*%
D13*
%TO.C,D181*%
X114523153Y-116616847D03*
X115636847Y-115503153D03*
%TD*%
%TO.C,D163*%
X110323153Y-114516847D03*
X111436847Y-113403153D03*
%TD*%
%TO.C,D204*%
X129223153Y-118716847D03*
X130336847Y-117603153D03*
%TD*%
%TO.C,D235*%
X127123153Y-122916847D03*
X128236847Y-121803153D03*
%TD*%
%TO.C,D11*%
X127123153Y-93516847D03*
X128236847Y-92403153D03*
%TD*%
%TO.C,D164*%
X112423153Y-114516847D03*
X113536847Y-113403153D03*
%TD*%
%TO.C,D84*%
X112423153Y-104016847D03*
X113536847Y-102903153D03*
%TD*%
%TO.C,D38*%
X116623153Y-97716847D03*
X117736847Y-96603153D03*
%TD*%
%TO.C,D225*%
X106123153Y-122916847D03*
X107236847Y-121803153D03*
%TD*%
%TO.C,D186*%
X125023153Y-116616847D03*
X126136847Y-115503153D03*
%TD*%
%TO.C,D191*%
X135523153Y-116616847D03*
X136636847Y-115503153D03*
%TD*%
%TO.C,D1*%
X106123153Y-93516847D03*
X107236847Y-92403153D03*
%TD*%
%TO.C,D120*%
X120823153Y-108216847D03*
X121936847Y-107103153D03*
%TD*%
%TO.C,D18*%
X108223153Y-95616847D03*
X109336847Y-94503153D03*
%TD*%
D16*
%TO.C,U4*%
X145525000Y-107705000D03*
X145525000Y-108975000D03*
X145525000Y-110245000D03*
X145525000Y-111515000D03*
X145525000Y-112785000D03*
X145525000Y-114055000D03*
X145525000Y-115325000D03*
X145525000Y-116595000D03*
X152625000Y-116595000D03*
X152625000Y-115325000D03*
X152625000Y-114055000D03*
X152625000Y-112785000D03*
X152625000Y-111515000D03*
X152625000Y-110245000D03*
X152625000Y-108975000D03*
X152625000Y-107705000D03*
%TD*%
D13*
%TO.C,D184*%
X120823153Y-116616847D03*
X121936847Y-115503153D03*
%TD*%
%TO.C,D171*%
X127123153Y-114516847D03*
X128236847Y-113403153D03*
%TD*%
%TO.C,D65*%
X106123153Y-101916847D03*
X107236847Y-100803153D03*
%TD*%
%TO.C,D26*%
X125023153Y-95616847D03*
X126136847Y-94503153D03*
%TD*%
%TO.C,D57*%
X122923153Y-99816847D03*
X124036847Y-98703153D03*
%TD*%
%TO.C,D195*%
X110323153Y-118716847D03*
X111436847Y-117603153D03*
%TD*%
%TO.C,D97*%
X106123153Y-106116847D03*
X107236847Y-105003153D03*
%TD*%
%TO.C,D168*%
X120823153Y-114516847D03*
X121936847Y-113403153D03*
%TD*%
%TO.C,D179*%
X110323153Y-116616847D03*
X111436847Y-115503153D03*
%TD*%
%TO.C,D72*%
X120823153Y-101916847D03*
X121936847Y-100803153D03*
%TD*%
%TO.C,D220*%
X129223153Y-120816847D03*
X130336847Y-119703153D03*
%TD*%
%TO.C,D143*%
X135523153Y-110316847D03*
X136636847Y-109203153D03*
%TD*%
%TO.C,D8*%
X120823153Y-93516847D03*
X121936847Y-92403153D03*
%TD*%
%TO.C,D112*%
X137623153Y-106116847D03*
X138736847Y-105003153D03*
%TD*%
%TO.C,D255*%
X135523153Y-125016847D03*
X136636847Y-123903153D03*
%TD*%
%TO.C,D252*%
X129223153Y-125016847D03*
X130336847Y-123903153D03*
%TD*%
%TO.C,D60*%
X129223153Y-99816847D03*
X130336847Y-98703153D03*
%TD*%
%TO.C,D165*%
X114523153Y-114516847D03*
X115636847Y-113403153D03*
%TD*%
%TO.C,D148*%
X112423153Y-112416847D03*
X113536847Y-111303153D03*
%TD*%
%TO.C,D35*%
X110323153Y-97716847D03*
X111436847Y-96603153D03*
%TD*%
%TO.C,D210*%
X108223153Y-120816847D03*
X109336847Y-119703153D03*
%TD*%
%TO.C,D152*%
X120823153Y-112416847D03*
X121936847Y-111303153D03*
%TD*%
%TO.C,D105*%
X122923153Y-106116847D03*
X124036847Y-105003153D03*
%TD*%
%TO.C,D150*%
X116623153Y-112416847D03*
X117736847Y-111303153D03*
%TD*%
%TO.C,D228*%
X112423153Y-122916847D03*
X113536847Y-121803153D03*
%TD*%
%TO.C,D238*%
X133423153Y-122916847D03*
X134536847Y-121803153D03*
%TD*%
%TO.C,D153*%
X122923153Y-112416847D03*
X124036847Y-111303153D03*
%TD*%
%TO.C,D248*%
X120823153Y-125016847D03*
X121936847Y-123903153D03*
%TD*%
%TO.C,D200*%
X120823153Y-118716847D03*
X121936847Y-117603153D03*
%TD*%
%TO.C,D250*%
X125023153Y-125016847D03*
X126136847Y-123903153D03*
%TD*%
%TO.C,D211*%
X110323153Y-120816847D03*
X111436847Y-119703153D03*
%TD*%
D15*
%TO.C,R7*%
X123675000Y-82400000D03*
X123675000Y-84400000D03*
%TD*%
D13*
%TO.C,D182*%
X116623153Y-116616847D03*
X117736847Y-115503153D03*
%TD*%
%TO.C,D122*%
X125023153Y-108216847D03*
X126136847Y-107103153D03*
%TD*%
D14*
%TO.C,SW3*%
X176365000Y-123000000D03*
X169635000Y-123000000D03*
%TD*%
D13*
%TO.C,D128*%
X137623153Y-108216847D03*
X138736847Y-107103153D03*
%TD*%
%TO.C,D202*%
X125023153Y-118716847D03*
X126136847Y-117603153D03*
%TD*%
%TO.C,D223*%
X135523153Y-120816847D03*
X136636847Y-119703153D03*
%TD*%
%TO.C,D208*%
X137623153Y-118716847D03*
X138736847Y-117603153D03*
%TD*%
%TO.C,D6*%
X116623153Y-93516847D03*
X117736847Y-92403153D03*
%TD*%
%TO.C,D149*%
X114523153Y-112416847D03*
X115636847Y-111303153D03*
%TD*%
%TO.C,D2*%
X108223153Y-93516847D03*
X109336847Y-92403153D03*
%TD*%
%TO.C,D118*%
X116623153Y-108216847D03*
X117736847Y-107103153D03*
%TD*%
%TO.C,D70*%
X116623153Y-101916847D03*
X117736847Y-100803153D03*
%TD*%
%TO.C,D170*%
X125023153Y-114516847D03*
X126136847Y-113403153D03*
%TD*%
%TO.C,D131*%
X110323153Y-110316847D03*
X111436847Y-109203153D03*
%TD*%
%TO.C,D147*%
X110323153Y-112416847D03*
X111436847Y-111303153D03*
%TD*%
%TO.C,D61*%
X132436847Y-98703153D03*
X131323153Y-99816847D03*
%TD*%
%TO.C,D175*%
X135523153Y-114516847D03*
X136636847Y-113403153D03*
%TD*%
%TO.C,D139*%
X127123153Y-110316847D03*
X128236847Y-109203153D03*
%TD*%
%TO.C,D240*%
X137623153Y-122916847D03*
X138736847Y-121803153D03*
%TD*%
%TO.C,D127*%
X135523153Y-108216847D03*
X136636847Y-107103153D03*
%TD*%
%TO.C,D50*%
X108223153Y-99816847D03*
X109336847Y-98703153D03*
%TD*%
%TO.C,D205*%
X132436847Y-117603153D03*
X131323153Y-118716847D03*
%TD*%
%TO.C,D154*%
X125023153Y-112416847D03*
X126136847Y-111303153D03*
%TD*%
%TO.C,D90*%
X125023153Y-104016847D03*
X126136847Y-102903153D03*
%TD*%
%TO.C,D229*%
X114523153Y-122916847D03*
X115636847Y-121803153D03*
%TD*%
%TO.C,D16*%
X137623153Y-93516847D03*
X138736847Y-92403153D03*
%TD*%
%TO.C,D251*%
X127123153Y-125016847D03*
X128236847Y-123903153D03*
%TD*%
%TO.C,D41*%
X122923153Y-97716847D03*
X124036847Y-96603153D03*
%TD*%
%TO.C,D124*%
X129223153Y-108216847D03*
X130336847Y-107103153D03*
%TD*%
%TO.C,D3*%
X110323153Y-93516847D03*
X111436847Y-92403153D03*
%TD*%
%TO.C,D46*%
X133423153Y-97716847D03*
X134536847Y-96603153D03*
%TD*%
D15*
%TO.C,R2*%
X131175000Y-86900000D03*
X131175000Y-88900000D03*
%TD*%
D13*
%TO.C,D206*%
X133423153Y-118716847D03*
X134536847Y-117603153D03*
%TD*%
%TO.C,D162*%
X108223153Y-114516847D03*
X109336847Y-113403153D03*
%TD*%
%TO.C,D13*%
X132436847Y-92403153D03*
X131323153Y-93516847D03*
%TD*%
%TO.C,D207*%
X135523153Y-118716847D03*
X136636847Y-117603153D03*
%TD*%
%TO.C,D233*%
X122923153Y-122916847D03*
X124036847Y-121803153D03*
%TD*%
%TO.C,D103*%
X118723153Y-106116847D03*
X119836847Y-105003153D03*
%TD*%
%TO.C,D83*%
X110323153Y-104016847D03*
X111436847Y-102903153D03*
%TD*%
%TO.C,D29*%
X132436847Y-94503153D03*
X131323153Y-95616847D03*
%TD*%
%TO.C,D123*%
X127123153Y-108216847D03*
X128236847Y-107103153D03*
%TD*%
%TO.C,D55*%
X118723153Y-99816847D03*
X119836847Y-98703153D03*
%TD*%
%TO.C,D87*%
X118723153Y-104016847D03*
X119836847Y-102903153D03*
%TD*%
%TO.C,D231*%
X118723153Y-122916847D03*
X119836847Y-121803153D03*
%TD*%
%TO.C,D62*%
X133423153Y-99816847D03*
X134536847Y-98703153D03*
%TD*%
%TO.C,D116*%
X112423153Y-108216847D03*
X113536847Y-107103153D03*
%TD*%
%TO.C,D31*%
X135523153Y-95616847D03*
X136636847Y-94503153D03*
%TD*%
%TO.C,D88*%
X120823153Y-104016847D03*
X121936847Y-102903153D03*
%TD*%
%TO.C,D161*%
X106123153Y-114516847D03*
X107236847Y-113403153D03*
%TD*%
%TO.C,D85*%
X114523153Y-104016847D03*
X115636847Y-102903153D03*
%TD*%
%TO.C,D215*%
X118723153Y-120816847D03*
X119836847Y-119703153D03*
%TD*%
%TO.C,D203*%
X127123153Y-118716847D03*
X128236847Y-117603153D03*
%TD*%
%TO.C,D101*%
X114523153Y-106116847D03*
X115636847Y-105003153D03*
%TD*%
%TO.C,D10*%
X125023153Y-93516847D03*
X126136847Y-92403153D03*
%TD*%
%TO.C,D27*%
X127123153Y-95616847D03*
X128236847Y-94503153D03*
%TD*%
%TO.C,D114*%
X108223153Y-108216847D03*
X109336847Y-107103153D03*
%TD*%
%TO.C,D253*%
X132436847Y-123903153D03*
X131323153Y-125016847D03*
%TD*%
%TO.C,D82*%
X108223153Y-104016847D03*
X109336847Y-102903153D03*
%TD*%
%TO.C,D109*%
X132436847Y-105003153D03*
X131323153Y-106116847D03*
%TD*%
%TO.C,D236*%
X129223153Y-122916847D03*
X130336847Y-121803153D03*
%TD*%
%TO.C,D226*%
X108223153Y-122916847D03*
X109336847Y-121803153D03*
%TD*%
%TO.C,D232*%
X120823153Y-122916847D03*
X121936847Y-121803153D03*
%TD*%
%TO.C,D74*%
X125023153Y-101916847D03*
X126136847Y-100803153D03*
%TD*%
D15*
%TO.C,R9*%
X120675001Y-82400000D03*
X120675001Y-84400000D03*
%TD*%
D13*
%TO.C,D67*%
X110323153Y-101916847D03*
X111436847Y-100803153D03*
%TD*%
%TO.C,D33*%
X106123153Y-97716847D03*
X107236847Y-96603153D03*
%TD*%
%TO.C,D140*%
X129223153Y-110316847D03*
X130336847Y-109203153D03*
%TD*%
%TO.C,D71*%
X118723153Y-101916847D03*
X119836847Y-100803153D03*
%TD*%
%TO.C,D66*%
X108223153Y-101916847D03*
X109336847Y-100803153D03*
%TD*%
%TO.C,D104*%
X120823153Y-106116847D03*
X121936847Y-105003153D03*
%TD*%
%TO.C,D209*%
X106123153Y-120816847D03*
X107236847Y-119703153D03*
%TD*%
%TO.C,D78*%
X133423153Y-101916847D03*
X134536847Y-100803153D03*
%TD*%
D17*
%TO.C,U1*%
X164170000Y-82325000D03*
X162900000Y-82325000D03*
X161630000Y-82325000D03*
X160360000Y-82325000D03*
X159090000Y-82325000D03*
X157820000Y-82325000D03*
X156550000Y-82325000D03*
X155280000Y-82325000D03*
X155280000Y-89425000D03*
X156550000Y-89425000D03*
X157820000Y-89425000D03*
X159090000Y-89425000D03*
X160360000Y-89425000D03*
X161630000Y-89425000D03*
X162900000Y-89425000D03*
X164170000Y-89425000D03*
%TD*%
D13*
%TO.C,D136*%
X120823153Y-110316847D03*
X121936847Y-109203153D03*
%TD*%
%TO.C,D99*%
X110323153Y-106116847D03*
X111436847Y-105003153D03*
%TD*%
%TO.C,D102*%
X116623153Y-106116847D03*
X117736847Y-105003153D03*
%TD*%
%TO.C,D111*%
X135523153Y-106116847D03*
X136636847Y-105003153D03*
%TD*%
%TO.C,D135*%
X118723153Y-110316847D03*
X119836847Y-109203153D03*
%TD*%
D18*
%TO.C,J15*%
X168529973Y-94979899D03*
D19*
X169427999Y-95877925D03*
X170326024Y-96775950D03*
X171224050Y-97673976D03*
X172122075Y-98572001D03*
X173020101Y-99470027D03*
%TD*%
D13*
%TO.C,D37*%
X114523153Y-97716847D03*
X115636847Y-96603153D03*
%TD*%
%TO.C,D241*%
X106123153Y-125016847D03*
X107236847Y-123903153D03*
%TD*%
D15*
%TO.C,R11*%
X117675001Y-82400000D03*
X117675001Y-84400000D03*
%TD*%
D20*
%TO.C,J18*%
X173020101Y-86529973D03*
D21*
X172122075Y-87427999D03*
X171224050Y-88326024D03*
X170326024Y-89224050D03*
X169427999Y-90122075D03*
X168529973Y-91020101D03*
%TD*%
D13*
%TO.C,D53*%
X114523153Y-99816847D03*
X115636847Y-98703153D03*
%TD*%
%TO.C,D15*%
X135523153Y-93516847D03*
X136636847Y-92403153D03*
%TD*%
D16*
%TO.C,U3*%
X145375000Y-93855000D03*
X145375000Y-95125000D03*
X145375000Y-96395000D03*
X145375000Y-97665000D03*
X145375000Y-98935000D03*
X145375000Y-100205000D03*
X145375000Y-101475000D03*
X145375000Y-102745000D03*
X152475000Y-102745000D03*
X152475000Y-101475000D03*
X152475000Y-100205000D03*
X152475000Y-98935000D03*
X152475000Y-97665000D03*
X152475000Y-96395000D03*
X152475000Y-95125000D03*
X152475000Y-93855000D03*
%TD*%
D13*
%TO.C,D4*%
X112423153Y-93516847D03*
X113536847Y-92403153D03*
%TD*%
%TO.C,D100*%
X112423153Y-106116847D03*
X113536847Y-105003153D03*
%TD*%
D15*
%TO.C,R6*%
X125175001Y-86900000D03*
X125175001Y-88900000D03*
%TD*%
D13*
%TO.C,D187*%
X127123153Y-116616847D03*
X128236847Y-115503153D03*
%TD*%
%TO.C,D56*%
X120823153Y-99816847D03*
X121936847Y-98703153D03*
%TD*%
%TO.C,D24*%
X120823153Y-95616847D03*
X121936847Y-94503153D03*
%TD*%
%TO.C,D166*%
X116623153Y-114516847D03*
X117736847Y-113403153D03*
%TD*%
%TO.C,D249*%
X122923153Y-125016847D03*
X124036847Y-123903153D03*
%TD*%
%TO.C,D68*%
X112423153Y-101916847D03*
X113536847Y-100803153D03*
%TD*%
D15*
%TO.C,R8*%
X122174999Y-86900000D03*
X122174999Y-88900000D03*
%TD*%
D13*
%TO.C,D224*%
X137623153Y-120816847D03*
X138736847Y-119703153D03*
%TD*%
%TO.C,D158*%
X133423153Y-112416847D03*
X134536847Y-111303153D03*
%TD*%
%TO.C,D246*%
X116623153Y-125016847D03*
X117736847Y-123903153D03*
%TD*%
%TO.C,D75*%
X127123153Y-101916847D03*
X128236847Y-100803153D03*
%TD*%
%TO.C,D119*%
X118723153Y-108216847D03*
X119836847Y-107103153D03*
%TD*%
%TO.C,D198*%
X116623153Y-118716847D03*
X117736847Y-117603153D03*
%TD*%
%TO.C,D176*%
X137623153Y-114516847D03*
X138736847Y-113403153D03*
%TD*%
%TO.C,D9*%
X122923153Y-93516847D03*
X124036847Y-92403153D03*
%TD*%
%TO.C,D137*%
X122923153Y-110316847D03*
X124036847Y-109203153D03*
%TD*%
%TO.C,D43*%
X127123153Y-97716847D03*
X128236847Y-96603153D03*
%TD*%
%TO.C,D63*%
X135523153Y-99816847D03*
X136636847Y-98703153D03*
%TD*%
%TO.C,D174*%
X133423153Y-114516847D03*
X134536847Y-113403153D03*
%TD*%
%TO.C,D92*%
X129223153Y-104016847D03*
X130336847Y-102903153D03*
%TD*%
%TO.C,D185*%
X122923153Y-116616847D03*
X124036847Y-115503153D03*
%TD*%
%TO.C,D142*%
X133423153Y-110316847D03*
X134536847Y-109203153D03*
%TD*%
%TO.C,D193*%
X106123153Y-118716847D03*
X107236847Y-117603153D03*
%TD*%
%TO.C,D40*%
X120823153Y-97716847D03*
X121936847Y-96603153D03*
%TD*%
%TO.C,D244*%
X112423153Y-125016847D03*
X113536847Y-123903153D03*
%TD*%
%TO.C,D94*%
X133423153Y-104016847D03*
X134536847Y-102903153D03*
%TD*%
%TO.C,D243*%
X110323153Y-125016847D03*
X111436847Y-123903153D03*
%TD*%
%TO.C,D216*%
X120823153Y-120816847D03*
X121936847Y-119703153D03*
%TD*%
%TO.C,D156*%
X129223153Y-112416847D03*
X130336847Y-111303153D03*
%TD*%
%TO.C,D14*%
X133423153Y-93516847D03*
X134536847Y-92403153D03*
%TD*%
%TO.C,D239*%
X135523153Y-122916847D03*
X136636847Y-121803153D03*
%TD*%
%TO.C,D177*%
X106123153Y-116616847D03*
X107236847Y-115503153D03*
%TD*%
%TO.C,D245*%
X114523153Y-125016847D03*
X115636847Y-123903153D03*
%TD*%
%TO.C,D230*%
X116623153Y-122916847D03*
X117736847Y-121803153D03*
%TD*%
%TO.C,D222*%
X133423153Y-120816847D03*
X134536847Y-119703153D03*
%TD*%
%TO.C,D51*%
X110323153Y-99816847D03*
X111436847Y-98703153D03*
%TD*%
%TO.C,D167*%
X118723153Y-114516847D03*
X119836847Y-113403153D03*
%TD*%
%TO.C,D76*%
X129223153Y-101916847D03*
X130336847Y-100803153D03*
%TD*%
%TO.C,D138*%
X125023153Y-110316847D03*
X126136847Y-109203153D03*
%TD*%
D15*
%TO.C,R13*%
X114675001Y-82400000D03*
X114675001Y-84400000D03*
%TD*%
D13*
%TO.C,D77*%
X132436847Y-100803153D03*
X131323153Y-101916847D03*
%TD*%
%TO.C,D23*%
X118723153Y-95616847D03*
X119836847Y-94503153D03*
%TD*%
%TO.C,D81*%
X106123153Y-104016847D03*
X107236847Y-102903153D03*
%TD*%
%TO.C,D172*%
X129223153Y-114516847D03*
X130336847Y-113403153D03*
%TD*%
%TO.C,D213*%
X114523153Y-120816847D03*
X115636847Y-119703153D03*
%TD*%
%TO.C,D247*%
X118723153Y-125016847D03*
X119836847Y-123903153D03*
%TD*%
%TO.C,D146*%
X108223153Y-112416847D03*
X109336847Y-111303153D03*
%TD*%
%TO.C,D44*%
X129223153Y-97716847D03*
X130336847Y-96603153D03*
%TD*%
%TO.C,D79*%
X135523153Y-101916847D03*
X136636847Y-100803153D03*
%TD*%
%TO.C,D145*%
X106123153Y-112416847D03*
X107236847Y-111303153D03*
%TD*%
D17*
%TO.C,U2*%
X151745000Y-82650000D03*
X150475000Y-82650000D03*
X149205000Y-82650000D03*
X147935000Y-82650000D03*
X146665000Y-82650000D03*
X145395000Y-82650000D03*
X144125000Y-82650000D03*
X142855000Y-82650000D03*
X142855000Y-89750000D03*
X144125000Y-89750000D03*
X145395000Y-89750000D03*
X146665000Y-89750000D03*
X147935000Y-89750000D03*
X149205000Y-89750000D03*
X150475000Y-89750000D03*
X151745000Y-89750000D03*
%TD*%
D13*
%TO.C,D126*%
X133423153Y-108216847D03*
X134536847Y-107103153D03*
%TD*%
%TO.C,D256*%
X137623153Y-125016847D03*
X138736847Y-123903153D03*
%TD*%
D15*
%TO.C,R10*%
X119175001Y-86900000D03*
X119175001Y-88900000D03*
%TD*%
D13*
%TO.C,D42*%
X125023153Y-97716847D03*
X126136847Y-96603153D03*
%TD*%
%TO.C,D107*%
X127123153Y-106116847D03*
X128236847Y-105003153D03*
%TD*%
%TO.C,D160*%
X137623153Y-112416847D03*
X138736847Y-111303153D03*
%TD*%
%TO.C,D95*%
X135523153Y-104016847D03*
X136636847Y-102903153D03*
%TD*%
%TO.C,D242*%
X108223153Y-125016847D03*
X109336847Y-123903153D03*
%TD*%
D15*
%TO.C,R3*%
X129675001Y-82400000D03*
X129675001Y-84400000D03*
%TD*%
D13*
%TO.C,D52*%
X112423153Y-99816847D03*
X113536847Y-98703153D03*
%TD*%
%TO.C,D221*%
X132436847Y-119703153D03*
X131323153Y-120816847D03*
%TD*%
D15*
%TO.C,R5*%
X126675001Y-82400000D03*
X126675001Y-84400000D03*
%TD*%
D13*
%TO.C,D117*%
X114523153Y-108216847D03*
X115636847Y-107103153D03*
%TD*%
%TO.C,D108*%
X129223153Y-106116847D03*
X130336847Y-105003153D03*
%TD*%
%TO.C,D110*%
X133423153Y-106116847D03*
X134536847Y-105003153D03*
%TD*%
%TO.C,D86*%
X116623153Y-104016847D03*
X117736847Y-102903153D03*
%TD*%
%TO.C,D30*%
X133423153Y-95616847D03*
X134536847Y-94503153D03*
%TD*%
%TO.C,D54*%
X116623153Y-99816847D03*
X117736847Y-98703153D03*
%TD*%
%TO.C,D197*%
X114523153Y-118716847D03*
X115636847Y-117603153D03*
%TD*%
%TO.C,D183*%
X118723153Y-116616847D03*
X119836847Y-115503153D03*
%TD*%
D15*
%TO.C,R1*%
X132675001Y-82400000D03*
X132675001Y-84400000D03*
%TD*%
D13*
%TO.C,D237*%
X132436847Y-121803153D03*
X131323153Y-122916847D03*
%TD*%
%TO.C,D234*%
X125023153Y-122916847D03*
X126136847Y-121803153D03*
%TD*%
%TO.C,D22*%
X116623153Y-95616847D03*
X117736847Y-94503153D03*
%TD*%
%TO.C,D188*%
X129223153Y-116616847D03*
X130336847Y-115503153D03*
%TD*%
%TO.C,D80*%
X137623153Y-101916847D03*
X138736847Y-100803153D03*
%TD*%
%TO.C,D254*%
X133423153Y-125016847D03*
X134536847Y-123903153D03*
%TD*%
%TO.C,D5*%
X114523153Y-93516847D03*
X115636847Y-92403153D03*
%TD*%
%TO.C,D196*%
X112423153Y-118716847D03*
X113536847Y-117603153D03*
%TD*%
%TO.C,D113*%
X106123153Y-108216847D03*
X107236847Y-107103153D03*
%TD*%
%TO.C,D219*%
X127123153Y-120816847D03*
X128236847Y-119703153D03*
%TD*%
%TO.C,D73*%
X122923153Y-101916847D03*
X124036847Y-100803153D03*
%TD*%
%TO.C,D25*%
X122923153Y-95616847D03*
X124036847Y-94503153D03*
%TD*%
%TO.C,D214*%
X116623153Y-120816847D03*
X117736847Y-119703153D03*
%TD*%
%TO.C,D141*%
X132436847Y-109203153D03*
X131323153Y-110316847D03*
%TD*%
%TO.C,D91*%
X127123153Y-104016847D03*
X128236847Y-102903153D03*
%TD*%
%TO.C,D159*%
X135523153Y-112416847D03*
X136636847Y-111303153D03*
%TD*%
D15*
%TO.C,R4*%
X128175001Y-88900000D03*
X128175001Y-86900000D03*
%TD*%
D22*
%TO.C,J7*%
X176979900Y-99470028D03*
D23*
X177877926Y-98572002D03*
X178775951Y-97673977D03*
X179673977Y-96775951D03*
X180572002Y-95877926D03*
X181470028Y-94979900D03*
%TD*%
D13*
%TO.C,D89*%
X122923153Y-104016847D03*
X124036847Y-102903153D03*
%TD*%
%TO.C,D199*%
X118723153Y-118716847D03*
X119836847Y-117603153D03*
%TD*%
D15*
%TO.C,R15*%
X111675001Y-82400000D03*
X111675001Y-84400000D03*
%TD*%
D13*
%TO.C,D144*%
X137623153Y-110316847D03*
X138736847Y-109203153D03*
%TD*%
%TO.C,D39*%
X118723153Y-97716847D03*
X119836847Y-96603153D03*
%TD*%
%TO.C,D189*%
X132436847Y-115503153D03*
X131323153Y-116616847D03*
%TD*%
%TO.C,D106*%
X125023153Y-106116847D03*
X126136847Y-105003153D03*
%TD*%
%TO.C,D212*%
X112423153Y-120816847D03*
X113536847Y-119703153D03*
%TD*%
%TO.C,D180*%
X112423153Y-116616847D03*
X113536847Y-115503153D03*
%TD*%
D15*
%TO.C,R14*%
X113174999Y-86900000D03*
X113174999Y-88900000D03*
%TD*%
D13*
%TO.C,D96*%
X137623153Y-104016847D03*
X138736847Y-102903153D03*
%TD*%
%TO.C,D45*%
X132436847Y-96603153D03*
X131323153Y-97716847D03*
%TD*%
D24*
%TO.C,U5*%
X175486136Y-95253903D03*
X175839689Y-94900349D03*
X176193243Y-94546796D03*
X176546796Y-94193243D03*
X176900349Y-93839689D03*
X177253903Y-93486136D03*
D25*
X177253903Y-92513864D03*
X176900349Y-92160311D03*
X176546796Y-91806757D03*
X176193243Y-91453204D03*
X175839689Y-91099651D03*
X175486136Y-90746097D03*
D24*
X174513864Y-90746097D03*
X174160311Y-91099651D03*
X173806757Y-91453204D03*
X173453204Y-91806757D03*
X173099651Y-92160311D03*
X172746097Y-92513864D03*
D25*
X172746097Y-93486136D03*
X173099651Y-93839689D03*
X173453204Y-94193243D03*
X173806757Y-94546796D03*
X174160311Y-94900349D03*
X174513864Y-95253903D03*
D26*
X175000000Y-93000000D03*
%TD*%
D13*
%TO.C,D20*%
X112423153Y-95616847D03*
X113536847Y-94503153D03*
%TD*%
%TO.C,D21*%
X114523153Y-95616847D03*
X115636847Y-94503153D03*
%TD*%
%TO.C,D157*%
X132436847Y-111303153D03*
X131323153Y-112416847D03*
%TD*%
%TO.C,D218*%
X125023153Y-120816847D03*
X126136847Y-119703153D03*
%TD*%
%TO.C,D64*%
X137623153Y-99816847D03*
X138736847Y-98703153D03*
%TD*%
%TO.C,D19*%
X110323153Y-95616847D03*
X111436847Y-94503153D03*
%TD*%
%TO.C,D133*%
X114523153Y-110316847D03*
X115636847Y-109203153D03*
%TD*%
D15*
%TO.C,R16*%
X110175001Y-86900000D03*
X110175001Y-88900000D03*
%TD*%
D13*
%TO.C,D17*%
X106123153Y-95616847D03*
X107236847Y-94503153D03*
%TD*%
%TO.C,D173*%
X132436847Y-113403153D03*
X131323153Y-114516847D03*
%TD*%
%TO.C,D115*%
X110323153Y-108216847D03*
X111436847Y-107103153D03*
%TD*%
%TO.C,D48*%
X137623153Y-97716847D03*
X138736847Y-96603153D03*
%TD*%
%TO.C,D47*%
X135523153Y-97716847D03*
X136636847Y-96603153D03*
%TD*%
%TO.C,D151*%
X118723153Y-112416847D03*
X119836847Y-111303153D03*
%TD*%
D27*
%TO.C,J14*%
X181470028Y-91020102D03*
D28*
X180572002Y-90122076D03*
X179673977Y-89224051D03*
X178775951Y-88326025D03*
X177877926Y-87428000D03*
X176979900Y-86529974D03*
%TD*%
D13*
%TO.C,D49*%
X106123153Y-99816847D03*
X107236847Y-98703153D03*
%TD*%
%TO.C,D93*%
X132436847Y-102903153D03*
X131323153Y-104016847D03*
%TD*%
%TO.C,D34*%
X108223153Y-97716847D03*
X109336847Y-96603153D03*
%TD*%
%TO.C,D169*%
X122923153Y-114516847D03*
X124036847Y-113403153D03*
%TD*%
%TO.C,D192*%
X137623153Y-116616847D03*
X138736847Y-115503153D03*
%TD*%
%TO.C,D130*%
X108223153Y-110316847D03*
X109336847Y-109203153D03*
%TD*%
D14*
%TO.C,SW2*%
X157635000Y-123000000D03*
X164365000Y-123000000D03*
%TD*%
D13*
%TO.C,D134*%
X116623153Y-110316847D03*
X117736847Y-109203153D03*
%TD*%
%TO.C,D98*%
X108223153Y-106116847D03*
X109336847Y-105003153D03*
%TD*%
%TO.C,D194*%
X108223153Y-118716847D03*
X109336847Y-117603153D03*
%TD*%
%TO.C,D125*%
X132436847Y-107103153D03*
X131323153Y-108216847D03*
%TD*%
%TO.C,D178*%
X108223153Y-116616847D03*
X109336847Y-115503153D03*
%TD*%
%TO.C,D12*%
X129223153Y-93516847D03*
X130336847Y-92403153D03*
%TD*%
%TO.C,D121*%
X122923153Y-108216847D03*
X124036847Y-107103153D03*
%TD*%
%TO.C,D59*%
X127123153Y-99816847D03*
X128236847Y-98703153D03*
%TD*%
%TO.C,D217*%
X122923153Y-120816847D03*
X124036847Y-119703153D03*
%TD*%
%TO.C,D201*%
X122923153Y-118716847D03*
X124036847Y-117603153D03*
%TD*%
M02*
