M48
; DRILL file {KiCad (6.0.5)} date Sun Aug 28 18:04:01 2022
; FORMAT={-:-/ absolute / inch / decimal}
; #@! TF.CreationDate,2022-08-28T18:04:01-07:00
; #@! TF.GenerationSoftware,Kicad,Pcbnew,(6.0.5)
; #@! TF.FileFunction,Plated,1,2,PTH
FMAT,2
INCH
; #@! TA.AperFunction,Plated,PTH,ViaDrill
T1C0.0079
; #@! TA.AperFunction,Plated,PTH,ComponentDrill
T2C0.0079
; #@! TA.AperFunction,Plated,PTH,ViaDrill
T3C0.0157
; #@! TA.AperFunction,Plated,PTH,ComponentDrill
T4C0.0197
; #@! TA.AperFunction,Plated,PTH,ComponentDrill
T5C0.0433
%
G90
G05
T1
X5.7706Y-1.8151
X5.7706Y-1.8951
X5.7706Y-1.9801
X5.7706Y-2.0601
X5.7706Y-2.1451
X5.7706Y-2.2251
X5.7706Y-2.3101
X5.7706Y-2.3901
X5.7706Y-2.4751
X5.7706Y-2.5551
X5.7706Y-2.6401
X5.7706Y-2.7251
X5.7706Y-2.8051
X5.7706Y-2.8901
X5.7706Y-2.9701
X5.7706Y-3.0501
X5.8556Y-1.8151
X5.8556Y-1.8951
X5.8556Y-1.9801
X5.8556Y-2.0601
X5.8556Y-2.1451
X5.8556Y-2.2251
X5.8556Y-2.3101
X5.8556Y-2.3901
X5.8556Y-2.4751
X5.8556Y-2.5551
X5.8556Y-2.6401
X5.8556Y-2.7251
X5.8556Y-2.8051
X5.8556Y-2.8901
X5.8556Y-2.9701
X5.8556Y-3.0501
X5.9406Y-1.8151
X5.9406Y-1.8951
X5.9406Y-1.9801
X5.9406Y-2.0601
X5.9406Y-2.1451
X5.9406Y-2.2251
X5.9406Y-2.3101
X5.9406Y-2.3901
X5.9406Y-2.4751
X5.9406Y-2.5551
X5.9406Y-2.6401
X5.9406Y-2.7251
X5.9406Y-2.8051
X5.9406Y-2.8901
X5.9406Y-2.9701
X5.9406Y-3.0501
X6.0206Y-1.8151
X6.0206Y-1.8951
X6.0206Y-1.9801
X6.0206Y-2.0601
X6.0206Y-2.1451
X6.0206Y-2.2251
X6.0206Y-2.3101
X6.0206Y-2.3901
X6.0206Y-2.4751
X6.0206Y-2.5551
X6.0206Y-2.6401
X6.0206Y-2.7251
X6.0206Y-2.8051
X6.0206Y-2.8901
X6.0206Y-2.9701
X6.0206Y-3.0501
X6.1056Y-1.8151
X6.1056Y-1.8951
X6.1056Y-1.9801
X6.1056Y-2.0601
X6.1056Y-2.1451
X6.1056Y-2.2251
X6.1056Y-2.3101
X6.1056Y-2.3901
X6.1056Y-2.4751
X6.1056Y-2.5551
X6.1056Y-2.6401
X6.1056Y-2.7251
X6.1056Y-2.8051
X6.1056Y-2.8901
X6.1056Y-2.9701
X6.1056Y-3.0501
X6.129Y-3.846
X6.1856Y-1.8151
X6.1856Y-1.8951
X6.1856Y-1.9801
X6.1856Y-2.0601
X6.1856Y-2.1451
X6.1856Y-2.2251
X6.1856Y-2.3101
X6.1856Y-2.3901
X6.1856Y-2.4751
X6.1856Y-2.5551
X6.1856Y-2.6401
X6.1856Y-2.7251
X6.1856Y-2.8051
X6.1856Y-2.8901
X6.1856Y-2.9701
X6.1856Y-3.0501
X6.2706Y-1.8151
X6.2706Y-1.8951
X6.2706Y-1.9801
X6.2706Y-2.0601
X6.2706Y-2.1451
X6.2706Y-2.2251
X6.2706Y-2.3101
X6.2706Y-2.3901
X6.2706Y-2.4751
X6.2706Y-2.5551
X6.2706Y-2.6401
X6.2706Y-2.7251
X6.2706Y-2.8051
X6.2706Y-2.8901
X6.2706Y-2.9701
X6.2706Y-3.0501
X6.3506Y-1.8151
X6.3506Y-1.8951
X6.3506Y-1.9801
X6.3506Y-2.0601
X6.3506Y-2.1451
X6.3506Y-2.2251
X6.3506Y-2.3101
X6.3506Y-2.3901
X6.3506Y-2.4751
X6.3506Y-2.5551
X6.3506Y-2.6401
X6.3506Y-2.7251
X6.3506Y-2.8051
X6.3506Y-2.8901
X6.3506Y-2.9701
X6.3506Y-3.0501
X6.4356Y-1.8151
X6.4356Y-1.8951
X6.4356Y-1.9801
X6.4356Y-2.0601
X6.4356Y-2.1451
X6.4356Y-2.2251
X6.4356Y-2.3101
X6.4356Y-2.3901
X6.4356Y-2.4751
X6.4356Y-2.5551
X6.4356Y-2.6401
X6.4356Y-2.7251
X6.4356Y-2.8051
X6.4356Y-2.8901
X6.4356Y-2.9701
X6.4356Y-3.0501
X6.5156Y-1.8151
X6.5156Y-1.8951
X6.5156Y-1.9801
X6.5156Y-2.0601
X6.5156Y-2.1451
X6.5156Y-2.2251
X6.5156Y-2.3101
X6.5156Y-2.3901
X6.5156Y-2.4751
X6.5156Y-2.5551
X6.5156Y-2.6401
X6.5156Y-2.7251
X6.5156Y-2.8051
X6.5156Y-2.8901
X6.5156Y-2.9701
X6.5156Y-3.0501
X6.6006Y-1.8151
X6.6006Y-1.8951
X6.6006Y-1.9801
X6.6006Y-2.0601
X6.6006Y-2.1451
X6.6006Y-2.2251
X6.6006Y-2.3101
X6.6006Y-2.3901
X6.6006Y-2.4751
X6.6006Y-2.5551
X6.6006Y-2.6401
X6.6006Y-2.7251
X6.6006Y-2.8051
X6.6006Y-2.8901
X6.6006Y-2.9701
X6.6006Y-3.0501
X6.6806Y-1.8151
X6.6806Y-1.8951
X6.6806Y-1.9801
X6.6806Y-2.0601
X6.6806Y-2.1451
X6.6806Y-2.2251
X6.6806Y-2.3101
X6.6806Y-2.3901
X6.6806Y-2.4751
X6.6806Y-2.5551
X6.6806Y-2.6401
X6.6806Y-2.7251
X6.6806Y-2.8051
X6.6806Y-2.8901
X6.6806Y-2.9701
X6.6806Y-3.0501
X6.7656Y-1.8151
X6.7656Y-1.8951
X6.7656Y-1.9801
X6.7656Y-2.0601
X6.7656Y-2.1451
X6.7656Y-2.2251
X6.7656Y-2.3101
X6.7656Y-2.3901
X6.7656Y-2.4751
X6.7656Y-2.5551
X6.7656Y-2.6401
X6.7656Y-2.7251
X6.7656Y-2.8051
X6.7656Y-2.8901
X6.7656Y-2.9701
X6.7656Y-3.0501
X6.8456Y-1.8151
X6.8456Y-1.8951
X6.8456Y-1.9801
X6.8456Y-2.0601
X6.8456Y-2.1451
X6.8456Y-2.2251
X6.8456Y-2.3101
X6.8456Y-2.3901
X6.8456Y-2.4751
X6.8456Y-2.5551
X6.8456Y-2.6401
X6.8456Y-2.7251
X6.8456Y-2.8051
X6.8456Y-2.8901
X6.8456Y-2.9701
X6.8456Y-3.0501
X6.9306Y-1.8151
X6.9306Y-1.8951
X6.9306Y-1.9801
X6.9306Y-2.0601
X6.9306Y-2.1451
X6.9306Y-2.2251
X6.9306Y-2.3101
X6.9306Y-2.3901
X6.9306Y-2.4751
X6.9306Y-2.5551
X6.9306Y-2.6401
X6.9306Y-2.7251
X6.9306Y-2.8051
X6.9306Y-2.8901
X6.9306Y-2.9701
X6.9306Y-3.0501
X7.0137Y-1.8171
X7.0137Y-1.8971
X7.0137Y-1.9821
X7.0137Y-2.0621
X7.0137Y-2.1471
X7.0137Y-2.2271
X7.0137Y-2.3121
X7.0137Y-2.3921
X7.0137Y-2.4771
X7.0137Y-2.5571
X7.0137Y-2.6421
X7.0137Y-2.7271
X7.0137Y-2.8071
X7.0137Y-2.8921
X7.0137Y-2.9721
X7.0137Y-3.0521
T2
X6.2643Y-4.2057
X6.2935Y-4.1765
X6.2935Y-4.2349
X6.3227Y-4.1472
X6.3227Y-4.2057
X6.3227Y-4.2642
X6.352Y-4.1765
X6.352Y-4.2349
X6.3812Y-4.2057
T3
X5.4724Y-3.4548
X5.502Y-3.5827
X5.647Y-3.458
X5.651Y-3.361
X5.6796Y-3.5724
X5.747Y-3.636
X5.748Y-3.4449
X5.85Y-3.615
X5.8709Y-3.9418
X5.876Y-3.1791
X5.935Y-3.1791
X5.9744Y-3.8583
X5.9941Y-3.1791
X6.0531Y-3.1791
X6.0881Y-4.0005
X6.1024Y-3.748
X6.1122Y-3.1791
X6.1713Y-3.1791
X6.173Y-3.86
X6.2303Y-3.1791
X6.267Y-3.719
X6.2894Y-3.1791
X6.2992Y-3.8287
X6.3Y-4.36
X6.3484Y-3.1791
X6.351Y-3.709
X6.39Y-4.09
X6.4075Y-3.1791
X6.4665Y-3.1791
X6.5256Y-3.1791
X6.5256Y-3.8583
X6.5755Y-4.0067
X6.5846Y-3.1791
X6.6437Y-3.1791
X6.6437Y-3.9665
X6.7028Y-3.1791
X6.7323Y-3.8583
X6.734Y-3.763
X6.7618Y-3.1791
X7.0571Y-3.5827
X7.071Y-3.8012
X7.071Y-4.253
X7.071Y-4.7028
X7.1063Y-3.5827
X7.201Y-3.469
X7.251Y-3.465
X7.254Y-3.355
T4
X6.02Y-4.58
X6.06Y-4.0453
X6.1Y-4.62
X6.1516Y-4.0453
X6.24Y-4.0453
X6.6Y-4.5354
T5
X5.3937Y-4.1504
X5.3937Y-4.2504
X5.3937Y-4.3504
X6.05Y-4.18
T0
M30
