%TF.GenerationSoftware,KiCad,Pcbnew,(6.0.5)*%
%TF.CreationDate,2022-08-28T18:04:00-07:00*%
%TF.ProjectId,PCBbuscard,50434262-7573-4636-9172-642e6b696361,rev?*%
%TF.SameCoordinates,Original*%
%TF.FileFunction,Legend,Top*%
%TF.FilePolarity,Positive*%
%FSLAX46Y46*%
G04 Gerber Fmt 4.6, Leading zero omitted, Abs format (unit mm)*
G04 Created by KiCad (PCBNEW (6.0.5)) date 2022-08-28 18:04:00*
%MOMM*%
%LPD*%
G01*
G04 APERTURE LIST*
G04 Aperture macros list*
%AMRoundRect*
0 Rectangle with rounded corners*
0 $1 Rounding radius*
0 $2 $3 $4 $5 $6 $7 $8 $9 X,Y pos of 4 corners*
0 Add a 4 corners polygon primitive as box body*
4,1,4,$2,$3,$4,$5,$6,$7,$8,$9,$2,$3,0*
0 Add four circle primitives for the rounded corners*
1,1,$1+$1,$2,$3*
1,1,$1+$1,$4,$5*
1,1,$1+$1,$6,$7*
1,1,$1+$1,$8,$9*
0 Add four rect primitives between the rounded corners*
20,1,$1+$1,$2,$3,$4,$5,0*
20,1,$1+$1,$4,$5,$6,$7,0*
20,1,$1+$1,$6,$7,$8,$9,0*
20,1,$1+$1,$8,$9,$2,$3,0*%
%AMRotRect*
0 Rectangle, with rotation*
0 The origin of the aperture is its center*
0 $1 length*
0 $2 width*
0 $3 Rotation angle, in degrees counterclockwise*
0 Add horizontal line*
21,1,$1,$2,0,0,$3*%
G04 Aperture macros list end*
%ADD10C,0.254000*%
%ADD11C,0.150000*%
%ADD12C,0.200000*%
%ADD13C,0.120000*%
%ADD14R,0.700000X1.550000*%
%ADD15C,2.200000*%
%ADD16RoundRect,0.218750X0.026517X-0.335876X0.335876X-0.026517X-0.026517X0.335876X-0.335876X0.026517X0*%
%ADD17RoundRect,0.250000X0.450000X-0.350000X0.450000X0.350000X-0.450000X0.350000X-0.450000X-0.350000X0*%
%ADD18R,1.000000X1.000000*%
%ADD19R,2.160000X1.120000*%
%ADD20RoundRect,0.062500X0.291682X-0.203293X-0.203293X0.291682X-0.291682X0.203293X0.203293X-0.291682X0*%
%ADD21RoundRect,0.062500X0.291682X0.203293X0.203293X0.291682X-0.291682X-0.203293X-0.203293X-0.291682X0*%
%ADD22RotRect,2.600000X2.600000X135.000000*%
G04 APERTURE END LIST*
D10*
%TO.C,U4*%
X180304523Y-87327619D02*
X181332619Y-87327619D01*
X181453571Y-87267142D01*
X181514047Y-87206666D01*
X181574523Y-87085714D01*
X181574523Y-86843809D01*
X181514047Y-86722857D01*
X181453571Y-86662380D01*
X181332619Y-86601904D01*
X180304523Y-86601904D01*
X180727857Y-85452857D02*
X181574523Y-85452857D01*
X180244047Y-85755238D02*
X181151190Y-86057619D01*
X181151190Y-85271428D01*
%TO.C,U3*%
X139554523Y-87327619D02*
X140582619Y-87327619D01*
X140703571Y-87267142D01*
X140764047Y-87206666D01*
X140824523Y-87085714D01*
X140824523Y-86843809D01*
X140764047Y-86722857D01*
X140703571Y-86662380D01*
X140582619Y-86601904D01*
X139554523Y-86601904D01*
X139554523Y-86118095D02*
X139554523Y-85331904D01*
X140038333Y-85755238D01*
X140038333Y-85573809D01*
X140098809Y-85452857D01*
X140159285Y-85392380D01*
X140280238Y-85331904D01*
X140582619Y-85331904D01*
X140703571Y-85392380D01*
X140764047Y-85452857D01*
X140824523Y-85573809D01*
X140824523Y-85936666D01*
X140764047Y-86057619D01*
X140703571Y-86118095D01*
%TO.C,U2*%
X166902223Y-97327619D02*
X167930319Y-97327619D01*
X168051271Y-97267142D01*
X168111747Y-97206666D01*
X168172223Y-97085714D01*
X168172223Y-96843809D01*
X168111747Y-96722857D01*
X168051271Y-96662380D01*
X167930319Y-96601904D01*
X166902223Y-96601904D01*
X167023176Y-96057619D02*
X166962700Y-95997142D01*
X166902223Y-95876190D01*
X166902223Y-95573809D01*
X166962700Y-95452857D01*
X167023176Y-95392380D01*
X167144128Y-95331904D01*
X167265080Y-95331904D01*
X167446509Y-95392380D01*
X168172223Y-96118095D01*
X168172223Y-95331904D01*
%TO.C,U1*%
X152902223Y-97327619D02*
X153930319Y-97327619D01*
X154051271Y-97267142D01*
X154111747Y-97206666D01*
X154172223Y-97085714D01*
X154172223Y-96843809D01*
X154111747Y-96722857D01*
X154051271Y-96662380D01*
X153930319Y-96601904D01*
X152902223Y-96601904D01*
X154172223Y-95331904D02*
X154172223Y-96057619D01*
X154172223Y-95694761D02*
X152902223Y-95694761D01*
X153083652Y-95815714D01*
X153204604Y-95936666D01*
X153265080Y-96057619D01*
D11*
%TO.C,CLK*%
X151901441Y-105321435D02*
X151901441Y-105388778D01*
X151834097Y-105523465D01*
X151766754Y-105590809D01*
X151632067Y-105658152D01*
X151497380Y-105658152D01*
X151396364Y-105624480D01*
X151228006Y-105523465D01*
X151126990Y-105422450D01*
X151025975Y-105254091D01*
X150992303Y-105153076D01*
X150992303Y-105018389D01*
X151059647Y-104883702D01*
X151126990Y-104816358D01*
X151261677Y-104749015D01*
X151329021Y-104749015D01*
X152608548Y-104749015D02*
X152271830Y-105085732D01*
X151564723Y-104378625D01*
X152844250Y-104513312D02*
X152137143Y-103806206D01*
X153248311Y-104109251D02*
X152541204Y-104008236D01*
X152541204Y-103402145D02*
X152541204Y-104210267D01*
%TO.C,R2*%
X169150080Y-83666666D02*
X168673890Y-84000000D01*
X169150080Y-84238095D02*
X168150080Y-84238095D01*
X168150080Y-83857142D01*
X168197700Y-83761904D01*
X168245319Y-83714285D01*
X168340557Y-83666666D01*
X168483414Y-83666666D01*
X168578652Y-83714285D01*
X168626271Y-83761904D01*
X168673890Y-83857142D01*
X168673890Y-84238095D01*
X168245319Y-83285714D02*
X168197700Y-83238095D01*
X168150080Y-83142857D01*
X168150080Y-82904761D01*
X168197700Y-82809523D01*
X168245319Y-82761904D01*
X168340557Y-82714285D01*
X168435795Y-82714285D01*
X168578652Y-82761904D01*
X169150080Y-83333333D01*
X169150080Y-82714285D01*
%TO.C,R6*%
X163150080Y-83666666D02*
X162673890Y-84000000D01*
X163150080Y-84238095D02*
X162150080Y-84238095D01*
X162150080Y-83857142D01*
X162197700Y-83761904D01*
X162245319Y-83714285D01*
X162340557Y-83666666D01*
X162483414Y-83666666D01*
X162578652Y-83714285D01*
X162626271Y-83761904D01*
X162673890Y-83857142D01*
X162673890Y-84238095D01*
X162150080Y-82809523D02*
X162150080Y-83000000D01*
X162197700Y-83095238D01*
X162245319Y-83142857D01*
X162388176Y-83238095D01*
X162578652Y-83285714D01*
X162959604Y-83285714D01*
X163054842Y-83238095D01*
X163102461Y-83190476D01*
X163150080Y-83095238D01*
X163150080Y-82904761D01*
X163102461Y-82809523D01*
X163054842Y-82761904D01*
X162959604Y-82714285D01*
X162721509Y-82714285D01*
X162626271Y-82761904D01*
X162578652Y-82809523D01*
X162531033Y-82904761D01*
X162531033Y-83095238D01*
X162578652Y-83190476D01*
X162626271Y-83238095D01*
X162721509Y-83285714D01*
%TO.C,R3*%
X167650080Y-87666666D02*
X167173890Y-88000000D01*
X167650080Y-88238095D02*
X166650080Y-88238095D01*
X166650080Y-87857142D01*
X166697700Y-87761904D01*
X166745319Y-87714285D01*
X166840557Y-87666666D01*
X166983414Y-87666666D01*
X167078652Y-87714285D01*
X167126271Y-87761904D01*
X167173890Y-87857142D01*
X167173890Y-88238095D01*
X166650080Y-87333333D02*
X166650080Y-86714285D01*
X167031033Y-87047619D01*
X167031033Y-86904761D01*
X167078652Y-86809523D01*
X167126271Y-86761904D01*
X167221509Y-86714285D01*
X167459604Y-86714285D01*
X167554842Y-86761904D01*
X167602461Y-86809523D01*
X167650080Y-86904761D01*
X167650080Y-87190476D01*
X167602461Y-87285714D01*
X167554842Y-87333333D01*
%TO.C,GND*%
X134400000Y-112761904D02*
X134352380Y-112857142D01*
X134352380Y-113000000D01*
X134400000Y-113142857D01*
X134495238Y-113238095D01*
X134590476Y-113285714D01*
X134780952Y-113333333D01*
X134923809Y-113333333D01*
X135114285Y-113285714D01*
X135209523Y-113238095D01*
X135304761Y-113142857D01*
X135352380Y-113000000D01*
X135352380Y-112904761D01*
X135304761Y-112761904D01*
X135257142Y-112714285D01*
X134923809Y-112714285D01*
X134923809Y-112904761D01*
X135352380Y-112285714D02*
X134352380Y-112285714D01*
X135352380Y-111714285D01*
X134352380Y-111714285D01*
X135352380Y-111238095D02*
X134352380Y-111238095D01*
X134352380Y-111000000D01*
X134400000Y-110857142D01*
X134495238Y-110761904D01*
X134590476Y-110714285D01*
X134780952Y-110666666D01*
X134923809Y-110666666D01*
X135114285Y-110714285D01*
X135209523Y-110761904D01*
X135304761Y-110857142D01*
X135352380Y-111000000D01*
X135352380Y-111238095D01*
%TO.C,R5*%
X164650080Y-87666666D02*
X164173890Y-88000000D01*
X164650080Y-88238095D02*
X163650080Y-88238095D01*
X163650080Y-87857142D01*
X163697700Y-87761904D01*
X163745319Y-87714285D01*
X163840557Y-87666666D01*
X163983414Y-87666666D01*
X164078652Y-87714285D01*
X164126271Y-87761904D01*
X164173890Y-87857142D01*
X164173890Y-88238095D01*
X163650080Y-86761904D02*
X163650080Y-87238095D01*
X164126271Y-87285714D01*
X164078652Y-87238095D01*
X164031033Y-87142857D01*
X164031033Y-86904761D01*
X164078652Y-86809523D01*
X164126271Y-86761904D01*
X164221509Y-86714285D01*
X164459604Y-86714285D01*
X164554842Y-86761904D01*
X164602461Y-86809523D01*
X164650080Y-86904761D01*
X164650080Y-87142857D01*
X164602461Y-87238095D01*
X164554842Y-87285714D01*
%TO.C,SW3*%
X172625666Y-114119719D02*
X172768523Y-114167338D01*
X173006619Y-114167338D01*
X173101857Y-114119719D01*
X173149476Y-114072100D01*
X173197095Y-113976862D01*
X173197095Y-113881624D01*
X173149476Y-113786386D01*
X173101857Y-113738767D01*
X173006619Y-113691148D01*
X172816142Y-113643529D01*
X172720904Y-113595910D01*
X172673285Y-113548291D01*
X172625666Y-113453053D01*
X172625666Y-113357815D01*
X172673285Y-113262577D01*
X172720904Y-113214958D01*
X172816142Y-113167338D01*
X173054238Y-113167338D01*
X173197095Y-113214958D01*
X173530428Y-113167338D02*
X173768523Y-114167338D01*
X173959000Y-113453053D01*
X174149476Y-114167338D01*
X174387571Y-113167338D01*
X174673285Y-113167338D02*
X175292333Y-113167338D01*
X174959000Y-113548291D01*
X175101857Y-113548291D01*
X175197095Y-113595910D01*
X175244714Y-113643529D01*
X175292333Y-113738767D01*
X175292333Y-113976862D01*
X175244714Y-114072100D01*
X175197095Y-114119719D01*
X175101857Y-114167338D01*
X174816142Y-114167338D01*
X174720904Y-114119719D01*
X174673285Y-114072100D01*
%TO.C,R15*%
X149650080Y-88142857D02*
X149173890Y-88476190D01*
X149650080Y-88714285D02*
X148650080Y-88714285D01*
X148650080Y-88333333D01*
X148697700Y-88238095D01*
X148745319Y-88190476D01*
X148840557Y-88142857D01*
X148983414Y-88142857D01*
X149078652Y-88190476D01*
X149126271Y-88238095D01*
X149173890Y-88333333D01*
X149173890Y-88714285D01*
X149650080Y-87190476D02*
X149650080Y-87761904D01*
X149650080Y-87476190D02*
X148650080Y-87476190D01*
X148792938Y-87571428D01*
X148888176Y-87666666D01*
X148935795Y-87761904D01*
X148650080Y-86285714D02*
X148650080Y-86761904D01*
X149126271Y-86809523D01*
X149078652Y-86761904D01*
X149031033Y-86666666D01*
X149031033Y-86428571D01*
X149078652Y-86333333D01*
X149126271Y-86285714D01*
X149221509Y-86238095D01*
X149459604Y-86238095D01*
X149554842Y-86285714D01*
X149602461Y-86333333D01*
X149650080Y-86428571D01*
X149650080Y-86666666D01*
X149602461Y-86761904D01*
X149554842Y-86809523D01*
%TO.C,R13*%
X152650080Y-88142857D02*
X152173890Y-88476190D01*
X152650080Y-88714285D02*
X151650080Y-88714285D01*
X151650080Y-88333333D01*
X151697700Y-88238095D01*
X151745319Y-88190476D01*
X151840557Y-88142857D01*
X151983414Y-88142857D01*
X152078652Y-88190476D01*
X152126271Y-88238095D01*
X152173890Y-88333333D01*
X152173890Y-88714285D01*
X152650080Y-87190476D02*
X152650080Y-87761904D01*
X152650080Y-87476190D02*
X151650080Y-87476190D01*
X151792938Y-87571428D01*
X151888176Y-87666666D01*
X151935795Y-87761904D01*
X151650080Y-86857142D02*
X151650080Y-86238095D01*
X152031033Y-86571428D01*
X152031033Y-86428571D01*
X152078652Y-86333333D01*
X152126271Y-86285714D01*
X152221509Y-86238095D01*
X152459604Y-86238095D01*
X152554842Y-86285714D01*
X152602461Y-86333333D01*
X152650080Y-86428571D01*
X152650080Y-86714285D01*
X152602461Y-86809523D01*
X152554842Y-86857142D01*
%TO.C,R4*%
X166150080Y-83666666D02*
X165673890Y-84000000D01*
X166150080Y-84238095D02*
X165150080Y-84238095D01*
X165150080Y-83857142D01*
X165197700Y-83761904D01*
X165245319Y-83714285D01*
X165340557Y-83666666D01*
X165483414Y-83666666D01*
X165578652Y-83714285D01*
X165626271Y-83761904D01*
X165673890Y-83857142D01*
X165673890Y-84238095D01*
X165483414Y-82809523D02*
X166150080Y-82809523D01*
X165102461Y-83047619D02*
X165816747Y-83285714D01*
X165816747Y-82666666D01*
%TO.C,R1*%
X170650080Y-87666666D02*
X170173890Y-88000000D01*
X170650080Y-88238095D02*
X169650080Y-88238095D01*
X169650080Y-87857142D01*
X169697700Y-87761904D01*
X169745319Y-87714285D01*
X169840557Y-87666666D01*
X169983414Y-87666666D01*
X170078652Y-87714285D01*
X170126271Y-87761904D01*
X170173890Y-87857142D01*
X170173890Y-88238095D01*
X170650080Y-86714285D02*
X170650080Y-87285714D01*
X170650080Y-87000000D02*
X169650080Y-87000000D01*
X169792938Y-87095238D01*
X169888176Y-87190476D01*
X169935795Y-87285714D01*
%TO.C,VCC*%
X134352380Y-109293333D02*
X135352380Y-108960000D01*
X134352380Y-108626666D01*
X135257142Y-107721904D02*
X135304761Y-107769523D01*
X135352380Y-107912380D01*
X135352380Y-108007619D01*
X135304761Y-108150476D01*
X135209523Y-108245714D01*
X135114285Y-108293333D01*
X134923809Y-108340952D01*
X134780952Y-108340952D01*
X134590476Y-108293333D01*
X134495238Y-108245714D01*
X134400000Y-108150476D01*
X134352380Y-108007619D01*
X134352380Y-107912380D01*
X134400000Y-107769523D01*
X134447619Y-107721904D01*
X135257142Y-106721904D02*
X135304761Y-106769523D01*
X135352380Y-106912380D01*
X135352380Y-107007619D01*
X135304761Y-107150476D01*
X135209523Y-107245714D01*
X135114285Y-107293333D01*
X134923809Y-107340952D01*
X134780952Y-107340952D01*
X134590476Y-107293333D01*
X134495238Y-107245714D01*
X134400000Y-107150476D01*
X134352380Y-107007619D01*
X134352380Y-106912380D01*
X134400000Y-106769523D01*
X134447619Y-106721904D01*
%TO.C,R12*%
X154150080Y-84142857D02*
X153673890Y-84476190D01*
X154150080Y-84714285D02*
X153150080Y-84714285D01*
X153150080Y-84333333D01*
X153197700Y-84238095D01*
X153245319Y-84190476D01*
X153340557Y-84142857D01*
X153483414Y-84142857D01*
X153578652Y-84190476D01*
X153626271Y-84238095D01*
X153673890Y-84333333D01*
X153673890Y-84714285D01*
X154150080Y-83190476D02*
X154150080Y-83761904D01*
X154150080Y-83476190D02*
X153150080Y-83476190D01*
X153292938Y-83571428D01*
X153388176Y-83666666D01*
X153435795Y-83761904D01*
X153245319Y-82809523D02*
X153197700Y-82761904D01*
X153150080Y-82666666D01*
X153150080Y-82428571D01*
X153197700Y-82333333D01*
X153245319Y-82285714D01*
X153340557Y-82238095D01*
X153435795Y-82238095D01*
X153578652Y-82285714D01*
X154150080Y-82857142D01*
X154150080Y-82238095D01*
%TO.C,R14*%
X151150080Y-84142857D02*
X150673890Y-84476190D01*
X151150080Y-84714285D02*
X150150080Y-84714285D01*
X150150080Y-84333333D01*
X150197700Y-84238095D01*
X150245319Y-84190476D01*
X150340557Y-84142857D01*
X150483414Y-84142857D01*
X150578652Y-84190476D01*
X150626271Y-84238095D01*
X150673890Y-84333333D01*
X150673890Y-84714285D01*
X151150080Y-83190476D02*
X151150080Y-83761904D01*
X151150080Y-83476190D02*
X150150080Y-83476190D01*
X150292938Y-83571428D01*
X150388176Y-83666666D01*
X150435795Y-83761904D01*
X150483414Y-82333333D02*
X151150080Y-82333333D01*
X150102461Y-82571428D02*
X150816747Y-82809523D01*
X150816747Y-82190476D01*
%TO.C,SW1*%
X145903066Y-114119719D02*
X146045923Y-114167338D01*
X146284019Y-114167338D01*
X146379257Y-114119719D01*
X146426876Y-114072100D01*
X146474495Y-113976862D01*
X146474495Y-113881624D01*
X146426876Y-113786386D01*
X146379257Y-113738767D01*
X146284019Y-113691148D01*
X146093542Y-113643529D01*
X145998304Y-113595910D01*
X145950685Y-113548291D01*
X145903066Y-113453053D01*
X145903066Y-113357815D01*
X145950685Y-113262577D01*
X145998304Y-113214958D01*
X146093542Y-113167338D01*
X146331638Y-113167338D01*
X146474495Y-113214958D01*
X146807828Y-113167338D02*
X147045923Y-114167338D01*
X147236400Y-113453053D01*
X147426876Y-114167338D01*
X147664971Y-113167338D01*
X148569733Y-114167338D02*
X147998304Y-114167338D01*
X148284019Y-114167338D02*
X148284019Y-113167338D01*
X148188780Y-113310196D01*
X148093542Y-113405434D01*
X147998304Y-113453053D01*
%TO.C,R11*%
X155650080Y-88142857D02*
X155173890Y-88476190D01*
X155650080Y-88714285D02*
X154650080Y-88714285D01*
X154650080Y-88333333D01*
X154697700Y-88238095D01*
X154745319Y-88190476D01*
X154840557Y-88142857D01*
X154983414Y-88142857D01*
X155078652Y-88190476D01*
X155126271Y-88238095D01*
X155173890Y-88333333D01*
X155173890Y-88714285D01*
X155650080Y-87190476D02*
X155650080Y-87761904D01*
X155650080Y-87476190D02*
X154650080Y-87476190D01*
X154792938Y-87571428D01*
X154888176Y-87666666D01*
X154935795Y-87761904D01*
X155650080Y-86238095D02*
X155650080Y-86809523D01*
X155650080Y-86523809D02*
X154650080Y-86523809D01*
X154792938Y-86619047D01*
X154888176Y-86714285D01*
X154935795Y-86809523D01*
%TO.C,SW2*%
X159264366Y-114119719D02*
X159407223Y-114167338D01*
X159645319Y-114167338D01*
X159740557Y-114119719D01*
X159788176Y-114072100D01*
X159835795Y-113976862D01*
X159835795Y-113881624D01*
X159788176Y-113786386D01*
X159740557Y-113738767D01*
X159645319Y-113691148D01*
X159454842Y-113643529D01*
X159359604Y-113595910D01*
X159311985Y-113548291D01*
X159264366Y-113453053D01*
X159264366Y-113357815D01*
X159311985Y-113262577D01*
X159359604Y-113214958D01*
X159454842Y-113167338D01*
X159692938Y-113167338D01*
X159835795Y-113214958D01*
X160169128Y-113167338D02*
X160407223Y-114167338D01*
X160597700Y-113453053D01*
X160788176Y-114167338D01*
X161026271Y-113167338D01*
X161359604Y-113262577D02*
X161407223Y-113214958D01*
X161502461Y-113167338D01*
X161740557Y-113167338D01*
X161835795Y-113214958D01*
X161883414Y-113262577D01*
X161931033Y-113357815D01*
X161931033Y-113453053D01*
X161883414Y-113595910D01*
X161311985Y-114167338D01*
X161931033Y-114167338D01*
%TO.C,R9*%
X158650080Y-87666666D02*
X158173890Y-88000000D01*
X158650080Y-88238095D02*
X157650080Y-88238095D01*
X157650080Y-87857142D01*
X157697700Y-87761904D01*
X157745319Y-87714285D01*
X157840557Y-87666666D01*
X157983414Y-87666666D01*
X158078652Y-87714285D01*
X158126271Y-87761904D01*
X158173890Y-87857142D01*
X158173890Y-88238095D01*
X158650080Y-87190476D02*
X158650080Y-87000000D01*
X158602461Y-86904761D01*
X158554842Y-86857142D01*
X158411985Y-86761904D01*
X158221509Y-86714285D01*
X157840557Y-86714285D01*
X157745319Y-86761904D01*
X157697700Y-86809523D01*
X157650080Y-86904761D01*
X157650080Y-87095238D01*
X157697700Y-87190476D01*
X157745319Y-87238095D01*
X157840557Y-87285714D01*
X158078652Y-87285714D01*
X158173890Y-87238095D01*
X158221509Y-87190476D01*
X158269128Y-87095238D01*
X158269128Y-86904761D01*
X158221509Y-86809523D01*
X158173890Y-86761904D01*
X158078652Y-86714285D01*
%TO.C,R10*%
X157150080Y-84142857D02*
X156673890Y-84476190D01*
X157150080Y-84714285D02*
X156150080Y-84714285D01*
X156150080Y-84333333D01*
X156197700Y-84238095D01*
X156245319Y-84190476D01*
X156340557Y-84142857D01*
X156483414Y-84142857D01*
X156578652Y-84190476D01*
X156626271Y-84238095D01*
X156673890Y-84333333D01*
X156673890Y-84714285D01*
X157150080Y-83190476D02*
X157150080Y-83761904D01*
X157150080Y-83476190D02*
X156150080Y-83476190D01*
X156292938Y-83571428D01*
X156388176Y-83666666D01*
X156435795Y-83761904D01*
X156150080Y-82571428D02*
X156150080Y-82476190D01*
X156197700Y-82380952D01*
X156245319Y-82333333D01*
X156340557Y-82285714D01*
X156531033Y-82238095D01*
X156769128Y-82238095D01*
X156959604Y-82285714D01*
X157054842Y-82333333D01*
X157102461Y-82380952D01*
X157150080Y-82476190D01*
X157150080Y-82571428D01*
X157102461Y-82666666D01*
X157054842Y-82714285D01*
X156959604Y-82761904D01*
X156769128Y-82809523D01*
X156531033Y-82809523D01*
X156340557Y-82761904D01*
X156245319Y-82714285D01*
X156197700Y-82666666D01*
X156150080Y-82571428D01*
%TO.C,U5*%
X158415770Y-110084383D02*
X158988190Y-109511963D01*
X159021862Y-109410948D01*
X159021862Y-109343604D01*
X158988190Y-109242589D01*
X158853503Y-109107902D01*
X158752488Y-109074230D01*
X158685144Y-109074230D01*
X158584129Y-109107902D01*
X158011709Y-109680322D01*
X157338274Y-109006887D02*
X157674992Y-109343604D01*
X158045381Y-109040558D01*
X157978038Y-109040558D01*
X157877022Y-109006887D01*
X157708664Y-108838528D01*
X157674992Y-108737513D01*
X157674992Y-108670169D01*
X157708664Y-108569154D01*
X157877022Y-108400795D01*
X157978038Y-108367123D01*
X158045381Y-108367123D01*
X158146396Y-108400795D01*
X158314755Y-108569154D01*
X158348427Y-108670169D01*
X158348427Y-108737513D01*
%TO.C,PROG*%
X135202380Y-105535714D02*
X134202380Y-105535714D01*
X134202380Y-105154761D01*
X134250000Y-105059523D01*
X134297619Y-105011904D01*
X134392857Y-104964285D01*
X134535714Y-104964285D01*
X134630952Y-105011904D01*
X134678571Y-105059523D01*
X134726190Y-105154761D01*
X134726190Y-105535714D01*
X135202380Y-103964285D02*
X134726190Y-104297619D01*
X135202380Y-104535714D02*
X134202380Y-104535714D01*
X134202380Y-104154761D01*
X134250000Y-104059523D01*
X134297619Y-104011904D01*
X134392857Y-103964285D01*
X134535714Y-103964285D01*
X134630952Y-104011904D01*
X134678571Y-104059523D01*
X134726190Y-104154761D01*
X134726190Y-104535714D01*
X134202380Y-103345238D02*
X134202380Y-103154761D01*
X134250000Y-103059523D01*
X134345238Y-102964285D01*
X134535714Y-102916666D01*
X134869047Y-102916666D01*
X135059523Y-102964285D01*
X135154761Y-103059523D01*
X135202380Y-103154761D01*
X135202380Y-103345238D01*
X135154761Y-103440476D01*
X135059523Y-103535714D01*
X134869047Y-103583333D01*
X134535714Y-103583333D01*
X134345238Y-103535714D01*
X134250000Y-103440476D01*
X134202380Y-103345238D01*
X134250000Y-101964285D02*
X134202380Y-102059523D01*
X134202380Y-102202380D01*
X134250000Y-102345238D01*
X134345238Y-102440476D01*
X134440476Y-102488095D01*
X134630952Y-102535714D01*
X134773809Y-102535714D01*
X134964285Y-102488095D01*
X135059523Y-102440476D01*
X135154761Y-102345238D01*
X135202380Y-102202380D01*
X135202380Y-102107142D01*
X135154761Y-101964285D01*
X135107142Y-101916666D01*
X134773809Y-101916666D01*
X134773809Y-102107142D01*
%TO.C,R16*%
X148150080Y-84142857D02*
X147673890Y-84476190D01*
X148150080Y-84714285D02*
X147150080Y-84714285D01*
X147150080Y-84333333D01*
X147197700Y-84238095D01*
X147245319Y-84190476D01*
X147340557Y-84142857D01*
X147483414Y-84142857D01*
X147578652Y-84190476D01*
X147626271Y-84238095D01*
X147673890Y-84333333D01*
X147673890Y-84714285D01*
X148150080Y-83190476D02*
X148150080Y-83761904D01*
X148150080Y-83476190D02*
X147150080Y-83476190D01*
X147292938Y-83571428D01*
X147388176Y-83666666D01*
X147435795Y-83761904D01*
X147150080Y-82333333D02*
X147150080Y-82523809D01*
X147197700Y-82619047D01*
X147245319Y-82666666D01*
X147388176Y-82761904D01*
X147578652Y-82809523D01*
X147959604Y-82809523D01*
X148054842Y-82761904D01*
X148102461Y-82714285D01*
X148150080Y-82619047D01*
X148150080Y-82428571D01*
X148102461Y-82333333D01*
X148054842Y-82285714D01*
X147959604Y-82238095D01*
X147721509Y-82238095D01*
X147626271Y-82285714D01*
X147578652Y-82333333D01*
X147531033Y-82428571D01*
X147531033Y-82619047D01*
X147578652Y-82714285D01*
X147626271Y-82761904D01*
X147721509Y-82809523D01*
%TO.C,R7*%
X161650080Y-87666666D02*
X161173890Y-88000000D01*
X161650080Y-88238095D02*
X160650080Y-88238095D01*
X160650080Y-87857142D01*
X160697700Y-87761904D01*
X160745319Y-87714285D01*
X160840557Y-87666666D01*
X160983414Y-87666666D01*
X161078652Y-87714285D01*
X161126271Y-87761904D01*
X161173890Y-87857142D01*
X161173890Y-88238095D01*
X160650080Y-87333333D02*
X160650080Y-86666666D01*
X161650080Y-87095238D01*
%TO.C,R8*%
X160150080Y-83666666D02*
X159673890Y-84000000D01*
X160150080Y-84238095D02*
X159150080Y-84238095D01*
X159150080Y-83857142D01*
X159197700Y-83761904D01*
X159245319Y-83714285D01*
X159340557Y-83666666D01*
X159483414Y-83666666D01*
X159578652Y-83714285D01*
X159626271Y-83761904D01*
X159673890Y-83857142D01*
X159673890Y-84238095D01*
X159578652Y-83095238D02*
X159531033Y-83190476D01*
X159483414Y-83238095D01*
X159388176Y-83285714D01*
X159340557Y-83285714D01*
X159245319Y-83238095D01*
X159197700Y-83190476D01*
X159150080Y-83095238D01*
X159150080Y-82904761D01*
X159197700Y-82809523D01*
X159245319Y-82761904D01*
X159340557Y-82714285D01*
X159388176Y-82714285D01*
X159483414Y-82761904D01*
X159531033Y-82809523D01*
X159578652Y-82904761D01*
X159578652Y-83095238D01*
X159626271Y-83190476D01*
X159673890Y-83238095D01*
X159769128Y-83285714D01*
X159959604Y-83285714D01*
X160054842Y-83238095D01*
X160102461Y-83190476D01*
X160150080Y-83095238D01*
X160150080Y-82904761D01*
X160102461Y-82809523D01*
X160054842Y-82761904D01*
X159959604Y-82714285D01*
X159769128Y-82714285D01*
X159673890Y-82761904D01*
X159626271Y-82809523D01*
X159578652Y-82904761D01*
D12*
%TO.C,U4*%
X185950000Y-84760000D02*
X185950000Y-87960000D01*
X185950000Y-87960000D02*
X176050000Y-87960000D01*
X176050000Y-87960000D02*
X176050000Y-84760000D01*
X176050000Y-84760000D02*
X185950000Y-84760000D01*
X186145000Y-82860000D02*
X186145000Y-84410000D01*
%TO.C,U3*%
X145200000Y-84760000D02*
X145200000Y-87960000D01*
X145200000Y-87960000D02*
X135300000Y-87960000D01*
X135300000Y-87960000D02*
X135300000Y-84760000D01*
X135300000Y-84760000D02*
X145200000Y-84760000D01*
X145395000Y-82860000D02*
X145395000Y-84410000D01*
%TO.C,U2*%
X172547700Y-94760000D02*
X172547700Y-97960000D01*
X172547700Y-97960000D02*
X162647700Y-97960000D01*
X162647700Y-97960000D02*
X162647700Y-94760000D01*
X162647700Y-94760000D02*
X172547700Y-94760000D01*
X172742700Y-92860000D02*
X172742700Y-94410000D01*
%TO.C,U1*%
X158547700Y-94760000D02*
X158547700Y-97960000D01*
X158547700Y-97960000D02*
X148647700Y-97960000D01*
X148647700Y-97960000D02*
X148647700Y-94760000D01*
X148647700Y-94760000D02*
X158547700Y-94760000D01*
X158742700Y-92860000D02*
X158742700Y-94410000D01*
D13*
%TO.C,CLK*%
X151831522Y-106172000D02*
X153670000Y-108010478D01*
X151831522Y-106172000D02*
X153670000Y-104333522D01*
X153670000Y-104333522D02*
X155508478Y-106172000D01*
X155508478Y-106172000D02*
X153670000Y-108010478D01*
%TO.C,D190*%
X172395693Y-68623221D02*
X170779954Y-70238960D01*
X171819401Y-71278407D02*
X173435140Y-69662668D01*
X170779954Y-70238960D02*
X171819401Y-71278407D01*
%TO.C,R2*%
X169612700Y-83727064D02*
X169612700Y-83272936D01*
X171082700Y-83727064D02*
X171082700Y-83272936D01*
%TO.C,D7*%
X157695693Y-45523221D02*
X156079954Y-47138960D01*
X156079954Y-47138960D02*
X157119401Y-48178407D01*
X157119401Y-48178407D02*
X158735140Y-46562668D01*
%TO.C,D32*%
X174979954Y-49238960D02*
X176019401Y-50278407D01*
X176019401Y-50278407D02*
X177635140Y-48662668D01*
X176595693Y-47623221D02*
X174979954Y-49238960D01*
%TO.C,D69*%
X151879954Y-55538960D02*
X152919401Y-56578407D01*
X153495693Y-53923221D02*
X151879954Y-55538960D01*
X152919401Y-56578407D02*
X154535140Y-54962668D01*
%TO.C,D36*%
X150819401Y-52378407D02*
X152435140Y-50762668D01*
X151395693Y-49723221D02*
X149779954Y-51338960D01*
X149779954Y-51338960D02*
X150819401Y-52378407D01*
%TO.C,D129*%
X145095693Y-62323221D02*
X143479954Y-63938960D01*
X143479954Y-63938960D02*
X144519401Y-64978407D01*
X144519401Y-64978407D02*
X146135140Y-63362668D01*
%TO.C,D155*%
X166095693Y-64423221D02*
X164479954Y-66038960D01*
X165519401Y-67078407D02*
X167135140Y-65462668D01*
X164479954Y-66038960D02*
X165519401Y-67078407D01*
%TO.C,D132*%
X149779954Y-63938960D02*
X150819401Y-64978407D01*
X151395693Y-62323221D02*
X149779954Y-63938960D01*
X150819401Y-64978407D02*
X152435140Y-63362668D01*
%TO.C,D227*%
X148719401Y-77578407D02*
X150335140Y-75962668D01*
X147679954Y-76538960D02*
X148719401Y-77578407D01*
X149295693Y-74923221D02*
X147679954Y-76538960D01*
%TO.C,D28*%
X166579954Y-49238960D02*
X167619401Y-50278407D01*
X168195693Y-47623221D02*
X166579954Y-49238960D01*
X167619401Y-50278407D02*
X169235140Y-48662668D01*
%TO.C,D58*%
X163419401Y-54478407D02*
X165035140Y-52862668D01*
X163995693Y-51823221D02*
X162379954Y-53438960D01*
X162379954Y-53438960D02*
X163419401Y-54478407D01*
%TO.C,D181*%
X153495693Y-68623221D02*
X151879954Y-70238960D01*
X151879954Y-70238960D02*
X152919401Y-71278407D01*
X152919401Y-71278407D02*
X154535140Y-69662668D01*
%TO.C,D163*%
X147679954Y-68138960D02*
X148719401Y-69178407D01*
X149295693Y-66523221D02*
X147679954Y-68138960D01*
X148719401Y-69178407D02*
X150335140Y-67562668D01*
%TO.C,D204*%
X168195693Y-70723221D02*
X166579954Y-72338960D01*
X166579954Y-72338960D02*
X167619401Y-73378407D01*
X167619401Y-73378407D02*
X169235140Y-71762668D01*
%TO.C,D235*%
X164479954Y-76538960D02*
X165519401Y-77578407D01*
X165519401Y-77578407D02*
X167135140Y-75962668D01*
X166095693Y-74923221D02*
X164479954Y-76538960D01*
%TO.C,D11*%
X165519401Y-48178407D02*
X167135140Y-46562668D01*
X164479954Y-47138960D02*
X165519401Y-48178407D01*
X166095693Y-45523221D02*
X164479954Y-47138960D01*
%TO.C,D164*%
X149779954Y-68138960D02*
X150819401Y-69178407D01*
X150819401Y-69178407D02*
X152435140Y-67562668D01*
X151395693Y-66523221D02*
X149779954Y-68138960D01*
%TO.C,D84*%
X151395693Y-56023221D02*
X149779954Y-57638960D01*
X150819401Y-58678407D02*
X152435140Y-57062668D01*
X149779954Y-57638960D02*
X150819401Y-58678407D01*
%TO.C,D38*%
X155595693Y-49723221D02*
X153979954Y-51338960D01*
X155019401Y-52378407D02*
X156635140Y-50762668D01*
X153979954Y-51338960D02*
X155019401Y-52378407D01*
%TO.C,D225*%
X145095693Y-74923221D02*
X143479954Y-76538960D01*
X143479954Y-76538960D02*
X144519401Y-77578407D01*
X144519401Y-77578407D02*
X146135140Y-75962668D01*
%TO.C,D186*%
X162379954Y-70238960D02*
X163419401Y-71278407D01*
X163995693Y-68623221D02*
X162379954Y-70238960D01*
X163419401Y-71278407D02*
X165035140Y-69662668D01*
%TO.C,D191*%
X172879954Y-70238960D02*
X173919401Y-71278407D01*
X173919401Y-71278407D02*
X175535140Y-69662668D01*
X174495693Y-68623221D02*
X172879954Y-70238960D01*
%TO.C,D1*%
X145095693Y-45523221D02*
X143479954Y-47138960D01*
X144519401Y-48178407D02*
X146135140Y-46562668D01*
X143479954Y-47138960D02*
X144519401Y-48178407D01*
%TO.C,D120*%
X158179954Y-61838960D02*
X159219401Y-62878407D01*
X159219401Y-62878407D02*
X160835140Y-61262668D01*
X159795693Y-60223221D02*
X158179954Y-61838960D01*
%TO.C,D18*%
X147195693Y-47623221D02*
X145579954Y-49238960D01*
X145579954Y-49238960D02*
X146619401Y-50278407D01*
X146619401Y-50278407D02*
X148235140Y-48662668D01*
%TO.C,D184*%
X159219401Y-71278407D02*
X160835140Y-69662668D01*
X158179954Y-70238960D02*
X159219401Y-71278407D01*
X159795693Y-68623221D02*
X158179954Y-70238960D01*
%TO.C,D171*%
X166095693Y-66523221D02*
X164479954Y-68138960D01*
X164479954Y-68138960D02*
X165519401Y-69178407D01*
X165519401Y-69178407D02*
X167135140Y-67562668D01*
%TO.C,D65*%
X143479954Y-55538960D02*
X144519401Y-56578407D01*
X145095693Y-53923221D02*
X143479954Y-55538960D01*
X144519401Y-56578407D02*
X146135140Y-54962668D01*
%TO.C,D26*%
X163995693Y-47623221D02*
X162379954Y-49238960D01*
X162379954Y-49238960D02*
X163419401Y-50278407D01*
X163419401Y-50278407D02*
X165035140Y-48662668D01*
%TO.C,D57*%
X160279954Y-53438960D02*
X161319401Y-54478407D01*
X161319401Y-54478407D02*
X162935140Y-52862668D01*
X161895693Y-51823221D02*
X160279954Y-53438960D01*
%TO.C,D195*%
X149295693Y-70723221D02*
X147679954Y-72338960D01*
X147679954Y-72338960D02*
X148719401Y-73378407D01*
X148719401Y-73378407D02*
X150335140Y-71762668D01*
%TO.C,D97*%
X145095693Y-58123221D02*
X143479954Y-59738960D01*
X144519401Y-60778407D02*
X146135140Y-59162668D01*
X143479954Y-59738960D02*
X144519401Y-60778407D01*
%TO.C,D168*%
X159795693Y-66523221D02*
X158179954Y-68138960D01*
X158179954Y-68138960D02*
X159219401Y-69178407D01*
X159219401Y-69178407D02*
X160835140Y-67562668D01*
%TO.C,D179*%
X148719401Y-71278407D02*
X150335140Y-69662668D01*
X147679954Y-70238960D02*
X148719401Y-71278407D01*
X149295693Y-68623221D02*
X147679954Y-70238960D01*
%TO.C,D72*%
X159795693Y-53923221D02*
X158179954Y-55538960D01*
X158179954Y-55538960D02*
X159219401Y-56578407D01*
X159219401Y-56578407D02*
X160835140Y-54962668D01*
%TO.C,D220*%
X167619401Y-75478407D02*
X169235140Y-73862668D01*
X166579954Y-74438960D02*
X167619401Y-75478407D01*
X168195693Y-72823221D02*
X166579954Y-74438960D01*
%TO.C,D143*%
X172879954Y-63938960D02*
X173919401Y-64978407D01*
X174495693Y-62323221D02*
X172879954Y-63938960D01*
X173919401Y-64978407D02*
X175535140Y-63362668D01*
%TO.C,D8*%
X159219401Y-48178407D02*
X160835140Y-46562668D01*
X158179954Y-47138960D02*
X159219401Y-48178407D01*
X159795693Y-45523221D02*
X158179954Y-47138960D01*
%TO.C,D112*%
X174979954Y-59738960D02*
X176019401Y-60778407D01*
X176019401Y-60778407D02*
X177635140Y-59162668D01*
X176595693Y-58123221D02*
X174979954Y-59738960D01*
%TO.C,D255*%
X172879954Y-78638960D02*
X173919401Y-79678407D01*
X173919401Y-79678407D02*
X175535140Y-78062668D01*
X174495693Y-77023221D02*
X172879954Y-78638960D01*
%TO.C,D252*%
X167619401Y-79678407D02*
X169235140Y-78062668D01*
X166579954Y-78638960D02*
X167619401Y-79678407D01*
X168195693Y-77023221D02*
X166579954Y-78638960D01*
%TO.C,D60*%
X166579954Y-53438960D02*
X167619401Y-54478407D01*
X167619401Y-54478407D02*
X169235140Y-52862668D01*
X168195693Y-51823221D02*
X166579954Y-53438960D01*
%TO.C,D165*%
X152919401Y-69178407D02*
X154535140Y-67562668D01*
X151879954Y-68138960D02*
X152919401Y-69178407D01*
X153495693Y-66523221D02*
X151879954Y-68138960D01*
%TO.C,D148*%
X150819401Y-67078407D02*
X152435140Y-65462668D01*
X149779954Y-66038960D02*
X150819401Y-67078407D01*
X151395693Y-64423221D02*
X149779954Y-66038960D01*
%TO.C,TP6*%
X168340000Y-115900000D02*
X166940000Y-115900000D01*
X166940000Y-115900000D02*
X166940000Y-114500000D01*
X168340000Y-114500000D02*
X168340000Y-115900000D01*
X166940000Y-114500000D02*
X168340000Y-114500000D01*
%TO.C,D35*%
X149295693Y-49723221D02*
X147679954Y-51338960D01*
X148719401Y-52378407D02*
X150335140Y-50762668D01*
X147679954Y-51338960D02*
X148719401Y-52378407D01*
%TO.C,D210*%
X147195693Y-72823221D02*
X145579954Y-74438960D01*
X145579954Y-74438960D02*
X146619401Y-75478407D01*
X146619401Y-75478407D02*
X148235140Y-73862668D01*
%TO.C,D152*%
X159219401Y-67078407D02*
X160835140Y-65462668D01*
X159795693Y-64423221D02*
X158179954Y-66038960D01*
X158179954Y-66038960D02*
X159219401Y-67078407D01*
%TO.C,D105*%
X161319401Y-60778407D02*
X162935140Y-59162668D01*
X161895693Y-58123221D02*
X160279954Y-59738960D01*
X160279954Y-59738960D02*
X161319401Y-60778407D01*
%TO.C,D150*%
X155019401Y-67078407D02*
X156635140Y-65462668D01*
X153979954Y-66038960D02*
X155019401Y-67078407D01*
X155595693Y-64423221D02*
X153979954Y-66038960D01*
%TO.C,D228*%
X150819401Y-77578407D02*
X152435140Y-75962668D01*
X151395693Y-74923221D02*
X149779954Y-76538960D01*
X149779954Y-76538960D02*
X150819401Y-77578407D01*
%TO.C,D238*%
X172395693Y-74923221D02*
X170779954Y-76538960D01*
X170779954Y-76538960D02*
X171819401Y-77578407D01*
X171819401Y-77578407D02*
X173435140Y-75962668D01*
%TO.C,D153*%
X160279954Y-66038960D02*
X161319401Y-67078407D01*
X161895693Y-64423221D02*
X160279954Y-66038960D01*
X161319401Y-67078407D02*
X162935140Y-65462668D01*
%TO.C,D248*%
X158179954Y-78638960D02*
X159219401Y-79678407D01*
X159795693Y-77023221D02*
X158179954Y-78638960D01*
X159219401Y-79678407D02*
X160835140Y-78062668D01*
%TO.C,D200*%
X159795693Y-70723221D02*
X158179954Y-72338960D01*
X158179954Y-72338960D02*
X159219401Y-73378407D01*
X159219401Y-73378407D02*
X160835140Y-71762668D01*
%TO.C,TP7*%
X159196000Y-102050000D02*
X159196000Y-103450000D01*
X157796000Y-103450000D02*
X157796000Y-102050000D01*
X159196000Y-103450000D02*
X157796000Y-103450000D01*
X157796000Y-102050000D02*
X159196000Y-102050000D01*
%TO.C,D250*%
X163995693Y-77023221D02*
X162379954Y-78638960D01*
X163419401Y-79678407D02*
X165035140Y-78062668D01*
X162379954Y-78638960D02*
X163419401Y-79678407D01*
%TO.C,R6*%
X163612700Y-83727064D02*
X163612700Y-83272936D01*
X165082700Y-83727064D02*
X165082700Y-83272936D01*
%TO.C,R3*%
X169582700Y-87727064D02*
X169582700Y-87272936D01*
X168112700Y-87727064D02*
X168112700Y-87272936D01*
%TO.C,D211*%
X148719401Y-75478407D02*
X150335140Y-73862668D01*
X149295693Y-72823221D02*
X147679954Y-74438960D01*
X147679954Y-74438960D02*
X148719401Y-75478407D01*
%TO.C,D182*%
X153979954Y-70238960D02*
X155019401Y-71278407D01*
X155019401Y-71278407D02*
X156635140Y-69662668D01*
X155595693Y-68623221D02*
X153979954Y-70238960D01*
%TO.C,D122*%
X163419401Y-62878407D02*
X165035140Y-61262668D01*
X163995693Y-60223221D02*
X162379954Y-61838960D01*
X162379954Y-61838960D02*
X163419401Y-62878407D01*
%TO.C,D128*%
X174979954Y-61838960D02*
X176019401Y-62878407D01*
X176595693Y-60223221D02*
X174979954Y-61838960D01*
X176019401Y-62878407D02*
X177635140Y-61262668D01*
%TO.C,D202*%
X162379954Y-72338960D02*
X163419401Y-73378407D01*
X163419401Y-73378407D02*
X165035140Y-71762668D01*
X163995693Y-70723221D02*
X162379954Y-72338960D01*
%TO.C,D223*%
X173919401Y-75478407D02*
X175535140Y-73862668D01*
X174495693Y-72823221D02*
X172879954Y-74438960D01*
X172879954Y-74438960D02*
X173919401Y-75478407D01*
%TO.C,D208*%
X176019401Y-73378407D02*
X177635140Y-71762668D01*
X174979954Y-72338960D02*
X176019401Y-73378407D01*
X176595693Y-70723221D02*
X174979954Y-72338960D01*
%TO.C,D6*%
X153979954Y-47138960D02*
X155019401Y-48178407D01*
X155019401Y-48178407D02*
X156635140Y-46562668D01*
X155595693Y-45523221D02*
X153979954Y-47138960D01*
%TO.C,D149*%
X153495693Y-64423221D02*
X151879954Y-66038960D01*
X151879954Y-66038960D02*
X152919401Y-67078407D01*
X152919401Y-67078407D02*
X154535140Y-65462668D01*
%TO.C,D2*%
X146619401Y-48178407D02*
X148235140Y-46562668D01*
X145579954Y-47138960D02*
X146619401Y-48178407D01*
X147195693Y-45523221D02*
X145579954Y-47138960D01*
%TO.C,D118*%
X155595693Y-60223221D02*
X153979954Y-61838960D01*
X153979954Y-61838960D02*
X155019401Y-62878407D01*
X155019401Y-62878407D02*
X156635140Y-61262668D01*
%TO.C,D70*%
X153979954Y-55538960D02*
X155019401Y-56578407D01*
X155019401Y-56578407D02*
X156635140Y-54962668D01*
X155595693Y-53923221D02*
X153979954Y-55538960D01*
%TO.C,D170*%
X163419401Y-69178407D02*
X165035140Y-67562668D01*
X162379954Y-68138960D02*
X163419401Y-69178407D01*
X163995693Y-66523221D02*
X162379954Y-68138960D01*
%TO.C,D131*%
X148719401Y-64978407D02*
X150335140Y-63362668D01*
X149295693Y-62323221D02*
X147679954Y-63938960D01*
X147679954Y-63938960D02*
X148719401Y-64978407D01*
%TO.C,D147*%
X149295693Y-64423221D02*
X147679954Y-66038960D01*
X147679954Y-66038960D02*
X148719401Y-67078407D01*
X148719401Y-67078407D02*
X150335140Y-65462668D01*
%TO.C,D61*%
X170295693Y-51823221D02*
X168679954Y-53438960D01*
X169719401Y-54478407D02*
X171335140Y-52862668D01*
X168679954Y-53438960D02*
X169719401Y-54478407D01*
%TO.C,D175*%
X172879954Y-68138960D02*
X173919401Y-69178407D01*
X174495693Y-66523221D02*
X172879954Y-68138960D01*
X173919401Y-69178407D02*
X175535140Y-67562668D01*
%TO.C,D139*%
X164479954Y-63938960D02*
X165519401Y-64978407D01*
X165519401Y-64978407D02*
X167135140Y-63362668D01*
X166095693Y-62323221D02*
X164479954Y-63938960D01*
%TO.C,D240*%
X176019401Y-77578407D02*
X177635140Y-75962668D01*
X176595693Y-74923221D02*
X174979954Y-76538960D01*
X174979954Y-76538960D02*
X176019401Y-77578407D01*
%TO.C,D127*%
X172879954Y-61838960D02*
X173919401Y-62878407D01*
X174495693Y-60223221D02*
X172879954Y-61838960D01*
X173919401Y-62878407D02*
X175535140Y-61262668D01*
%TO.C,D50*%
X145579954Y-53438960D02*
X146619401Y-54478407D01*
X146619401Y-54478407D02*
X148235140Y-52862668D01*
X147195693Y-51823221D02*
X145579954Y-53438960D01*
%TO.C,GND*%
X135700000Y-109200000D02*
X135700000Y-111800000D01*
X135700000Y-109200000D02*
X138300000Y-109200000D01*
X138300000Y-111800000D02*
X135700000Y-111800000D01*
X138300000Y-109200000D02*
X138300000Y-111800000D01*
%TO.C,D205*%
X170295693Y-70723221D02*
X168679954Y-72338960D01*
X168679954Y-72338960D02*
X169719401Y-73378407D01*
X169719401Y-73378407D02*
X171335140Y-71762668D01*
%TO.C,D154*%
X163995693Y-64423221D02*
X162379954Y-66038960D01*
X162379954Y-66038960D02*
X163419401Y-67078407D01*
X163419401Y-67078407D02*
X165035140Y-65462668D01*
%TO.C,D90*%
X162379954Y-57638960D02*
X163419401Y-58678407D01*
X163995693Y-56023221D02*
X162379954Y-57638960D01*
X163419401Y-58678407D02*
X165035140Y-57062668D01*
%TO.C,D229*%
X153495693Y-74923221D02*
X151879954Y-76538960D01*
X152919401Y-77578407D02*
X154535140Y-75962668D01*
X151879954Y-76538960D02*
X152919401Y-77578407D01*
%TO.C,D16*%
X174979954Y-47138960D02*
X176019401Y-48178407D01*
X176595693Y-45523221D02*
X174979954Y-47138960D01*
X176019401Y-48178407D02*
X177635140Y-46562668D01*
%TO.C,D251*%
X166095693Y-77023221D02*
X164479954Y-78638960D01*
X164479954Y-78638960D02*
X165519401Y-79678407D01*
X165519401Y-79678407D02*
X167135140Y-78062668D01*
%TO.C,D41*%
X160279954Y-51338960D02*
X161319401Y-52378407D01*
X161319401Y-52378407D02*
X162935140Y-50762668D01*
X161895693Y-49723221D02*
X160279954Y-51338960D01*
%TO.C,D124*%
X166579954Y-61838960D02*
X167619401Y-62878407D01*
X167619401Y-62878407D02*
X169235140Y-61262668D01*
X168195693Y-60223221D02*
X166579954Y-61838960D01*
%TO.C,D3*%
X148719401Y-48178407D02*
X150335140Y-46562668D01*
X147679954Y-47138960D02*
X148719401Y-48178407D01*
X149295693Y-45523221D02*
X147679954Y-47138960D01*
%TO.C,D46*%
X170779954Y-51338960D02*
X171819401Y-52378407D01*
X172395693Y-49723221D02*
X170779954Y-51338960D01*
X171819401Y-52378407D02*
X173435140Y-50762668D01*
%TO.C,R5*%
X166582700Y-87727064D02*
X166582700Y-87272936D01*
X165112700Y-87727064D02*
X165112700Y-87272936D01*
%TO.C,D206*%
X171819401Y-73378407D02*
X173435140Y-71762668D01*
X172395693Y-70723221D02*
X170779954Y-72338960D01*
X170779954Y-72338960D02*
X171819401Y-73378407D01*
%TO.C,D162*%
X147195693Y-66523221D02*
X145579954Y-68138960D01*
X146619401Y-69178407D02*
X148235140Y-67562668D01*
X145579954Y-68138960D02*
X146619401Y-69178407D01*
%TO.C,D13*%
X170295693Y-45523221D02*
X168679954Y-47138960D01*
X169719401Y-48178407D02*
X171335140Y-46562668D01*
X168679954Y-47138960D02*
X169719401Y-48178407D01*
%TO.C,D207*%
X172879954Y-72338960D02*
X173919401Y-73378407D01*
X173919401Y-73378407D02*
X175535140Y-71762668D01*
X174495693Y-70723221D02*
X172879954Y-72338960D01*
%TO.C,D233*%
X160279954Y-76538960D02*
X161319401Y-77578407D01*
X161319401Y-77578407D02*
X162935140Y-75962668D01*
X161895693Y-74923221D02*
X160279954Y-76538960D01*
%TO.C,D103*%
X157119401Y-60778407D02*
X158735140Y-59162668D01*
X157695693Y-58123221D02*
X156079954Y-59738960D01*
X156079954Y-59738960D02*
X157119401Y-60778407D01*
%TO.C,D83*%
X148719401Y-58678407D02*
X150335140Y-57062668D01*
X149295693Y-56023221D02*
X147679954Y-57638960D01*
X147679954Y-57638960D02*
X148719401Y-58678407D01*
%TO.C,D29*%
X168679954Y-49238960D02*
X169719401Y-50278407D01*
X170295693Y-47623221D02*
X168679954Y-49238960D01*
X169719401Y-50278407D02*
X171335140Y-48662668D01*
%TO.C,D123*%
X165519401Y-62878407D02*
X167135140Y-61262668D01*
X164479954Y-61838960D02*
X165519401Y-62878407D01*
X166095693Y-60223221D02*
X164479954Y-61838960D01*
%TO.C,SW3*%
X170309000Y-114474958D02*
X171692000Y-114474958D01*
X172149000Y-117269958D02*
X173355667Y-117269958D01*
X170549000Y-118934958D02*
X177369000Y-118934958D01*
X173355667Y-116189958D02*
X173355667Y-117459958D01*
X170549000Y-114714958D02*
X177369000Y-114714958D01*
X175769000Y-116189958D02*
X172149000Y-116189958D01*
X175769000Y-117459958D02*
X175769000Y-116189958D01*
X172149000Y-116189958D02*
X172149000Y-117459958D01*
X172149000Y-116789958D02*
X173355667Y-116789958D01*
X172149000Y-116909958D02*
X173355667Y-116909958D01*
X172149000Y-116429958D02*
X173355667Y-116429958D01*
X172149000Y-116549958D02*
X173355667Y-116549958D01*
X172149000Y-117149958D02*
X173355667Y-117149958D01*
X172149000Y-117459958D02*
X175769000Y-117459958D01*
X172149000Y-116669958D02*
X173355667Y-116669958D01*
X170309000Y-114474958D02*
X170309000Y-115857958D01*
X172149000Y-117389958D02*
X173355667Y-117389958D01*
X177369000Y-117624958D02*
X177369000Y-118934958D01*
X170549000Y-117624958D02*
X170549000Y-118934958D01*
X172149000Y-117029958D02*
X173355667Y-117029958D01*
X177369000Y-114714958D02*
X177369000Y-116024958D01*
X170549000Y-114714958D02*
X170549000Y-116024958D01*
X172149000Y-116309958D02*
X173355667Y-116309958D01*
%TO.C,R15*%
X150112700Y-87727064D02*
X150112700Y-87272936D01*
X151582700Y-87727064D02*
X151582700Y-87272936D01*
%TO.C,D55*%
X157119401Y-54478407D02*
X158735140Y-52862668D01*
X156079954Y-53438960D02*
X157119401Y-54478407D01*
X157695693Y-51823221D02*
X156079954Y-53438960D01*
%TO.C,D87*%
X157119401Y-58678407D02*
X158735140Y-57062668D01*
X157695693Y-56023221D02*
X156079954Y-57638960D01*
X156079954Y-57638960D02*
X157119401Y-58678407D01*
%TO.C,D231*%
X156079954Y-76538960D02*
X157119401Y-77578407D01*
X157119401Y-77578407D02*
X158735140Y-75962668D01*
X157695693Y-74923221D02*
X156079954Y-76538960D01*
%TO.C,D62*%
X171819401Y-54478407D02*
X173435140Y-52862668D01*
X170779954Y-53438960D02*
X171819401Y-54478407D01*
X172395693Y-51823221D02*
X170779954Y-53438960D01*
%TO.C,D116*%
X151395693Y-60223221D02*
X149779954Y-61838960D01*
X150819401Y-62878407D02*
X152435140Y-61262668D01*
X149779954Y-61838960D02*
X150819401Y-62878407D01*
%TO.C,D31*%
X172879954Y-49238960D02*
X173919401Y-50278407D01*
X173919401Y-50278407D02*
X175535140Y-48662668D01*
X174495693Y-47623221D02*
X172879954Y-49238960D01*
%TO.C,D88*%
X158179954Y-57638960D02*
X159219401Y-58678407D01*
X159795693Y-56023221D02*
X158179954Y-57638960D01*
X159219401Y-58678407D02*
X160835140Y-57062668D01*
%TO.C,D161*%
X145095693Y-66523221D02*
X143479954Y-68138960D01*
X143479954Y-68138960D02*
X144519401Y-69178407D01*
X144519401Y-69178407D02*
X146135140Y-67562668D01*
%TO.C,D85*%
X153495693Y-56023221D02*
X151879954Y-57638960D01*
X151879954Y-57638960D02*
X152919401Y-58678407D01*
X152919401Y-58678407D02*
X154535140Y-57062668D01*
%TO.C,D215*%
X157695693Y-72823221D02*
X156079954Y-74438960D01*
X157119401Y-75478407D02*
X158735140Y-73862668D01*
X156079954Y-74438960D02*
X157119401Y-75478407D01*
%TO.C,D203*%
X166095693Y-70723221D02*
X164479954Y-72338960D01*
X164479954Y-72338960D02*
X165519401Y-73378407D01*
X165519401Y-73378407D02*
X167135140Y-71762668D01*
%TO.C,D101*%
X151879954Y-59738960D02*
X152919401Y-60778407D01*
X152919401Y-60778407D02*
X154535140Y-59162668D01*
X153495693Y-58123221D02*
X151879954Y-59738960D01*
%TO.C,D10*%
X163419401Y-48178407D02*
X165035140Y-46562668D01*
X162379954Y-47138960D02*
X163419401Y-48178407D01*
X163995693Y-45523221D02*
X162379954Y-47138960D01*
%TO.C,D27*%
X164479954Y-49238960D02*
X165519401Y-50278407D01*
X165519401Y-50278407D02*
X167135140Y-48662668D01*
X166095693Y-47623221D02*
X164479954Y-49238960D01*
%TO.C,D114*%
X145579954Y-61838960D02*
X146619401Y-62878407D01*
X147195693Y-60223221D02*
X145579954Y-61838960D01*
X146619401Y-62878407D02*
X148235140Y-61262668D01*
%TO.C,R13*%
X153112700Y-87727064D02*
X153112700Y-87272936D01*
X154582700Y-87727064D02*
X154582700Y-87272936D01*
%TO.C,D253*%
X170295693Y-77023221D02*
X168679954Y-78638960D01*
X169719401Y-79678407D02*
X171335140Y-78062668D01*
X168679954Y-78638960D02*
X169719401Y-79678407D01*
%TO.C,D82*%
X147195693Y-56023221D02*
X145579954Y-57638960D01*
X146619401Y-58678407D02*
X148235140Y-57062668D01*
X145579954Y-57638960D02*
X146619401Y-58678407D01*
%TO.C,D109*%
X169719401Y-60778407D02*
X171335140Y-59162668D01*
X170295693Y-58123221D02*
X168679954Y-59738960D01*
X168679954Y-59738960D02*
X169719401Y-60778407D01*
%TO.C,D236*%
X166579954Y-76538960D02*
X167619401Y-77578407D01*
X168195693Y-74923221D02*
X166579954Y-76538960D01*
X167619401Y-77578407D02*
X169235140Y-75962668D01*
%TO.C,R4*%
X166612700Y-83727064D02*
X166612700Y-83272936D01*
X168082700Y-83727064D02*
X168082700Y-83272936D01*
%TO.C,D226*%
X145579954Y-76538960D02*
X146619401Y-77578407D01*
X146619401Y-77578407D02*
X148235140Y-75962668D01*
X147195693Y-74923221D02*
X145579954Y-76538960D01*
%TO.C,D232*%
X158179954Y-76538960D02*
X159219401Y-77578407D01*
X159219401Y-77578407D02*
X160835140Y-75962668D01*
X159795693Y-74923221D02*
X158179954Y-76538960D01*
%TO.C,D74*%
X162379954Y-55538960D02*
X163419401Y-56578407D01*
X163995693Y-53923221D02*
X162379954Y-55538960D01*
X163419401Y-56578407D02*
X165035140Y-54962668D01*
%TO.C,R1*%
X172582700Y-87727064D02*
X172582700Y-87272936D01*
X171112700Y-87727064D02*
X171112700Y-87272936D01*
%TO.C,D67*%
X149295693Y-53923221D02*
X147679954Y-55538960D01*
X147679954Y-55538960D02*
X148719401Y-56578407D01*
X148719401Y-56578407D02*
X150335140Y-54962668D01*
%TO.C,D33*%
X144519401Y-52378407D02*
X146135140Y-50762668D01*
X143479954Y-51338960D02*
X144519401Y-52378407D01*
X145095693Y-49723221D02*
X143479954Y-51338960D01*
%TO.C,D140*%
X168195693Y-62323221D02*
X166579954Y-63938960D01*
X166579954Y-63938960D02*
X167619401Y-64978407D01*
X167619401Y-64978407D02*
X169235140Y-63362668D01*
%TO.C,D71*%
X157695693Y-53923221D02*
X156079954Y-55538960D01*
X157119401Y-56578407D02*
X158735140Y-54962668D01*
X156079954Y-55538960D02*
X157119401Y-56578407D01*
%TO.C,D66*%
X145579954Y-55538960D02*
X146619401Y-56578407D01*
X147195693Y-53923221D02*
X145579954Y-55538960D01*
X146619401Y-56578407D02*
X148235140Y-54962668D01*
%TO.C,D104*%
X159795693Y-58123221D02*
X158179954Y-59738960D01*
X158179954Y-59738960D02*
X159219401Y-60778407D01*
X159219401Y-60778407D02*
X160835140Y-59162668D01*
%TO.C,D209*%
X144519401Y-75478407D02*
X146135140Y-73862668D01*
X143479954Y-74438960D02*
X144519401Y-75478407D01*
X145095693Y-72823221D02*
X143479954Y-74438960D01*
%TO.C,D78*%
X170779954Y-55538960D02*
X171819401Y-56578407D01*
X172395693Y-53923221D02*
X170779954Y-55538960D01*
X171819401Y-56578407D02*
X173435140Y-54962668D01*
%TO.C,D136*%
X159795693Y-62323221D02*
X158179954Y-63938960D01*
X159219401Y-64978407D02*
X160835140Y-63362668D01*
X158179954Y-63938960D02*
X159219401Y-64978407D01*
%TO.C,VCC*%
X135700000Y-106660000D02*
X135700000Y-109260000D01*
X138300000Y-109260000D02*
X135700000Y-109260000D01*
X135700000Y-106660000D02*
X138300000Y-106660000D01*
X138300000Y-106660000D02*
X138300000Y-109260000D01*
%TO.C,D99*%
X148719401Y-60778407D02*
X150335140Y-59162668D01*
X147679954Y-59738960D02*
X148719401Y-60778407D01*
X149295693Y-58123221D02*
X147679954Y-59738960D01*
%TO.C,D102*%
X153979954Y-59738960D02*
X155019401Y-60778407D01*
X155595693Y-58123221D02*
X153979954Y-59738960D01*
X155019401Y-60778407D02*
X156635140Y-59162668D01*
%TO.C,D111*%
X174495693Y-58123221D02*
X172879954Y-59738960D01*
X173919401Y-60778407D02*
X175535140Y-59162668D01*
X172879954Y-59738960D02*
X173919401Y-60778407D01*
%TO.C,D135*%
X157119401Y-64978407D02*
X158735140Y-63362668D01*
X157695693Y-62323221D02*
X156079954Y-63938960D01*
X156079954Y-63938960D02*
X157119401Y-64978407D01*
%TO.C,D37*%
X151879954Y-51338960D02*
X152919401Y-52378407D01*
X152919401Y-52378407D02*
X154535140Y-50762668D01*
X153495693Y-49723221D02*
X151879954Y-51338960D01*
%TO.C,D241*%
X145095693Y-77023221D02*
X143479954Y-78638960D01*
X144519401Y-79678407D02*
X146135140Y-78062668D01*
X143479954Y-78638960D02*
X144519401Y-79678407D01*
%TO.C,R12*%
X154612700Y-83727064D02*
X154612700Y-83272936D01*
X156082700Y-83727064D02*
X156082700Y-83272936D01*
%TO.C,D53*%
X152919401Y-54478407D02*
X154535140Y-52862668D01*
X151879954Y-53438960D02*
X152919401Y-54478407D01*
X153495693Y-51823221D02*
X151879954Y-53438960D01*
%TO.C,R14*%
X151612700Y-83727064D02*
X151612700Y-83272936D01*
X153082700Y-83727064D02*
X153082700Y-83272936D01*
%TO.C,D15*%
X173919401Y-48178407D02*
X175535140Y-46562668D01*
X172879954Y-47138960D02*
X173919401Y-48178407D01*
X174495693Y-45523221D02*
X172879954Y-47138960D01*
%TO.C,D4*%
X150819401Y-48178407D02*
X152435140Y-46562668D01*
X151395693Y-45523221D02*
X149779954Y-47138960D01*
X149779954Y-47138960D02*
X150819401Y-48178407D01*
%TO.C,D100*%
X151395693Y-58123221D02*
X149779954Y-59738960D01*
X150819401Y-60778407D02*
X152435140Y-59162668D01*
X149779954Y-59738960D02*
X150819401Y-60778407D01*
%TO.C,D187*%
X165519401Y-71278407D02*
X167135140Y-69662668D01*
X164479954Y-70238960D02*
X165519401Y-71278407D01*
X166095693Y-68623221D02*
X164479954Y-70238960D01*
%TO.C,D56*%
X159219401Y-54478407D02*
X160835140Y-52862668D01*
X159795693Y-51823221D02*
X158179954Y-53438960D01*
X158179954Y-53438960D02*
X159219401Y-54478407D01*
%TO.C,D24*%
X159219401Y-50278407D02*
X160835140Y-48662668D01*
X158179954Y-49238960D02*
X159219401Y-50278407D01*
X159795693Y-47623221D02*
X158179954Y-49238960D01*
%TO.C,D166*%
X155019401Y-69178407D02*
X156635140Y-67562668D01*
X153979954Y-68138960D02*
X155019401Y-69178407D01*
X155595693Y-66523221D02*
X153979954Y-68138960D01*
%TO.C,TP9*%
X156950000Y-103450000D02*
X155550000Y-103450000D01*
X155550000Y-102050000D02*
X156950000Y-102050000D01*
X155550000Y-103450000D02*
X155550000Y-102050000D01*
X156950000Y-102050000D02*
X156950000Y-103450000D01*
%TO.C,D249*%
X161319401Y-79678407D02*
X162935140Y-78062668D01*
X160279954Y-78638960D02*
X161319401Y-79678407D01*
X161895693Y-77023221D02*
X160279954Y-78638960D01*
%TO.C,D68*%
X149779954Y-55538960D02*
X150819401Y-56578407D01*
X151395693Y-53923221D02*
X149779954Y-55538960D01*
X150819401Y-56578407D02*
X152435140Y-54962668D01*
%TO.C,D224*%
X176595693Y-72823221D02*
X174979954Y-74438960D01*
X174979954Y-74438960D02*
X176019401Y-75478407D01*
X176019401Y-75478407D02*
X177635140Y-73862668D01*
%TO.C,D158*%
X170779954Y-66038960D02*
X171819401Y-67078407D01*
X172395693Y-64423221D02*
X170779954Y-66038960D01*
X171819401Y-67078407D02*
X173435140Y-65462668D01*
%TO.C,SW1*%
X143826400Y-117624958D02*
X143826400Y-118934958D01*
X143826400Y-114714958D02*
X143826400Y-116024958D01*
X143586400Y-114474958D02*
X143586400Y-115857958D01*
X145426400Y-116669958D02*
X146633067Y-116669958D01*
X145426400Y-117029958D02*
X146633067Y-117029958D01*
X145426400Y-117389958D02*
X146633067Y-117389958D01*
X145426400Y-116909958D02*
X146633067Y-116909958D01*
X149046400Y-117459958D02*
X149046400Y-116189958D01*
X150646400Y-114714958D02*
X150646400Y-116024958D01*
X150646400Y-117624958D02*
X150646400Y-118934958D01*
X145426400Y-116549958D02*
X146633067Y-116549958D01*
X143826400Y-114714958D02*
X150646400Y-114714958D01*
X145426400Y-116789958D02*
X146633067Y-116789958D01*
X145426400Y-117269958D02*
X146633067Y-117269958D01*
X143826400Y-118934958D02*
X150646400Y-118934958D01*
X145426400Y-117459958D02*
X149046400Y-117459958D01*
X145426400Y-116309958D02*
X146633067Y-116309958D01*
X143586400Y-114474958D02*
X144969400Y-114474958D01*
X149046400Y-116189958D02*
X145426400Y-116189958D01*
X145426400Y-116189958D02*
X145426400Y-117459958D01*
X145426400Y-117149958D02*
X146633067Y-117149958D01*
X146633067Y-116189958D02*
X146633067Y-117459958D01*
X145426400Y-116429958D02*
X146633067Y-116429958D01*
%TO.C,R11*%
X156112700Y-87727064D02*
X156112700Y-87272936D01*
X157582700Y-87727064D02*
X157582700Y-87272936D01*
%TO.C,D246*%
X155595693Y-77023221D02*
X153979954Y-78638960D01*
X155019401Y-79678407D02*
X156635140Y-78062668D01*
X153979954Y-78638960D02*
X155019401Y-79678407D01*
%TO.C,D75*%
X166095693Y-53923221D02*
X164479954Y-55538960D01*
X164479954Y-55538960D02*
X165519401Y-56578407D01*
X165519401Y-56578407D02*
X167135140Y-54962668D01*
%TO.C,D119*%
X157119401Y-62878407D02*
X158735140Y-61262668D01*
X157695693Y-60223221D02*
X156079954Y-61838960D01*
X156079954Y-61838960D02*
X157119401Y-62878407D01*
%TO.C,D198*%
X153979954Y-72338960D02*
X155019401Y-73378407D01*
X155019401Y-73378407D02*
X156635140Y-71762668D01*
X155595693Y-70723221D02*
X153979954Y-72338960D01*
%TO.C,D176*%
X174979954Y-68138960D02*
X176019401Y-69178407D01*
X176019401Y-69178407D02*
X177635140Y-67562668D01*
X176595693Y-66523221D02*
X174979954Y-68138960D01*
%TO.C,D9*%
X161895693Y-45523221D02*
X160279954Y-47138960D01*
X161319401Y-48178407D02*
X162935140Y-46562668D01*
X160279954Y-47138960D02*
X161319401Y-48178407D01*
%TO.C,TP8*%
X153224000Y-102050000D02*
X154624000Y-102050000D01*
X153224000Y-103450000D02*
X153224000Y-102050000D01*
X154624000Y-103450000D02*
X153224000Y-103450000D01*
X154624000Y-102050000D02*
X154624000Y-103450000D01*
%TO.C,D137*%
X161319401Y-64978407D02*
X162935140Y-63362668D01*
X161895693Y-62323221D02*
X160279954Y-63938960D01*
X160279954Y-63938960D02*
X161319401Y-64978407D01*
%TO.C,D43*%
X164479954Y-51338960D02*
X165519401Y-52378407D01*
X166095693Y-49723221D02*
X164479954Y-51338960D01*
X165519401Y-52378407D02*
X167135140Y-50762668D01*
%TO.C,D63*%
X174495693Y-51823221D02*
X172879954Y-53438960D01*
X172879954Y-53438960D02*
X173919401Y-54478407D01*
X173919401Y-54478407D02*
X175535140Y-52862668D01*
%TO.C,D174*%
X171819401Y-69178407D02*
X173435140Y-67562668D01*
X172395693Y-66523221D02*
X170779954Y-68138960D01*
X170779954Y-68138960D02*
X171819401Y-69178407D01*
%TO.C,D92*%
X168195693Y-56023221D02*
X166579954Y-57638960D01*
X167619401Y-58678407D02*
X169235140Y-57062668D01*
X166579954Y-57638960D02*
X167619401Y-58678407D01*
%TO.C,D185*%
X161319401Y-71278407D02*
X162935140Y-69662668D01*
X161895693Y-68623221D02*
X160279954Y-70238960D01*
X160279954Y-70238960D02*
X161319401Y-71278407D01*
%TO.C,D142*%
X172395693Y-62323221D02*
X170779954Y-63938960D01*
X170779954Y-63938960D02*
X171819401Y-64978407D01*
X171819401Y-64978407D02*
X173435140Y-63362668D01*
%TO.C,D193*%
X145095693Y-70723221D02*
X143479954Y-72338960D01*
X143479954Y-72338960D02*
X144519401Y-73378407D01*
X144519401Y-73378407D02*
X146135140Y-71762668D01*
%TO.C,D40*%
X159219401Y-52378407D02*
X160835140Y-50762668D01*
X158179954Y-51338960D02*
X159219401Y-52378407D01*
X159795693Y-49723221D02*
X158179954Y-51338960D01*
%TO.C,D244*%
X149779954Y-78638960D02*
X150819401Y-79678407D01*
X151395693Y-77023221D02*
X149779954Y-78638960D01*
X150819401Y-79678407D02*
X152435140Y-78062668D01*
%TO.C,D94*%
X171819401Y-58678407D02*
X173435140Y-57062668D01*
X170779954Y-57638960D02*
X171819401Y-58678407D01*
X172395693Y-56023221D02*
X170779954Y-57638960D01*
%TO.C,D243*%
X149295693Y-77023221D02*
X147679954Y-78638960D01*
X147679954Y-78638960D02*
X148719401Y-79678407D01*
X148719401Y-79678407D02*
X150335140Y-78062668D01*
%TO.C,D216*%
X158179954Y-74438960D02*
X159219401Y-75478407D01*
X159219401Y-75478407D02*
X160835140Y-73862668D01*
X159795693Y-72823221D02*
X158179954Y-74438960D01*
%TO.C,D156*%
X168195693Y-64423221D02*
X166579954Y-66038960D01*
X166579954Y-66038960D02*
X167619401Y-67078407D01*
X167619401Y-67078407D02*
X169235140Y-65462668D01*
%TO.C,D14*%
X170779954Y-47138960D02*
X171819401Y-48178407D01*
X171819401Y-48178407D02*
X173435140Y-46562668D01*
X172395693Y-45523221D02*
X170779954Y-47138960D01*
%TO.C,D239*%
X174495693Y-74923221D02*
X172879954Y-76538960D01*
X173919401Y-77578407D02*
X175535140Y-75962668D01*
X172879954Y-76538960D02*
X173919401Y-77578407D01*
%TO.C,D177*%
X144519401Y-71278407D02*
X146135140Y-69662668D01*
X145095693Y-68623221D02*
X143479954Y-70238960D01*
X143479954Y-70238960D02*
X144519401Y-71278407D01*
%TO.C,D245*%
X152919401Y-79678407D02*
X154535140Y-78062668D01*
X153495693Y-77023221D02*
X151879954Y-78638960D01*
X151879954Y-78638960D02*
X152919401Y-79678407D01*
%TO.C,D230*%
X153979954Y-76538960D02*
X155019401Y-77578407D01*
X155019401Y-77578407D02*
X156635140Y-75962668D01*
X155595693Y-74923221D02*
X153979954Y-76538960D01*
%TO.C,D222*%
X170779954Y-74438960D02*
X171819401Y-75478407D01*
X172395693Y-72823221D02*
X170779954Y-74438960D01*
X171819401Y-75478407D02*
X173435140Y-73862668D01*
%TO.C,D51*%
X149295693Y-51823221D02*
X147679954Y-53438960D01*
X147679954Y-53438960D02*
X148719401Y-54478407D01*
X148719401Y-54478407D02*
X150335140Y-52862668D01*
%TO.C,D167*%
X156079954Y-68138960D02*
X157119401Y-69178407D01*
X157119401Y-69178407D02*
X158735140Y-67562668D01*
X157695693Y-66523221D02*
X156079954Y-68138960D01*
%TO.C,D76*%
X167619401Y-56578407D02*
X169235140Y-54962668D01*
X166579954Y-55538960D02*
X167619401Y-56578407D01*
X168195693Y-53923221D02*
X166579954Y-55538960D01*
%TO.C,D138*%
X163419401Y-64978407D02*
X165035140Y-63362668D01*
X163995693Y-62323221D02*
X162379954Y-63938960D01*
X162379954Y-63938960D02*
X163419401Y-64978407D01*
%TO.C,D77*%
X169719401Y-56578407D02*
X171335140Y-54962668D01*
X168679954Y-55538960D02*
X169719401Y-56578407D01*
X170295693Y-53923221D02*
X168679954Y-55538960D01*
%TO.C,D23*%
X156079954Y-49238960D02*
X157119401Y-50278407D01*
X157119401Y-50278407D02*
X158735140Y-48662668D01*
X157695693Y-47623221D02*
X156079954Y-49238960D01*
%TO.C,D81*%
X143479954Y-57638960D02*
X144519401Y-58678407D01*
X145095693Y-56023221D02*
X143479954Y-57638960D01*
X144519401Y-58678407D02*
X146135140Y-57062668D01*
%TO.C,D172*%
X168195693Y-66523221D02*
X166579954Y-68138960D01*
X166579954Y-68138960D02*
X167619401Y-69178407D01*
X167619401Y-69178407D02*
X169235140Y-67562668D01*
%TO.C,D213*%
X153495693Y-72823221D02*
X151879954Y-74438960D01*
X151879954Y-74438960D02*
X152919401Y-75478407D01*
X152919401Y-75478407D02*
X154535140Y-73862668D01*
%TO.C,D247*%
X156079954Y-78638960D02*
X157119401Y-79678407D01*
X157695693Y-77023221D02*
X156079954Y-78638960D01*
X157119401Y-79678407D02*
X158735140Y-78062668D01*
%TO.C,D146*%
X146619401Y-67078407D02*
X148235140Y-65462668D01*
X147195693Y-64423221D02*
X145579954Y-66038960D01*
X145579954Y-66038960D02*
X146619401Y-67078407D01*
%TO.C,D44*%
X168195693Y-49723221D02*
X166579954Y-51338960D01*
X167619401Y-52378407D02*
X169235140Y-50762668D01*
X166579954Y-51338960D02*
X167619401Y-52378407D01*
%TO.C,D79*%
X172879954Y-55538960D02*
X173919401Y-56578407D01*
X173919401Y-56578407D02*
X175535140Y-54962668D01*
X174495693Y-53923221D02*
X172879954Y-55538960D01*
%TO.C,SW2*%
X158787700Y-116549958D02*
X159994367Y-116549958D01*
X156947700Y-114474958D02*
X156947700Y-115857958D01*
X159994367Y-116189958D02*
X159994367Y-117459958D01*
X158787700Y-116669958D02*
X159994367Y-116669958D01*
X158787700Y-117029958D02*
X159994367Y-117029958D01*
X158787700Y-116309958D02*
X159994367Y-116309958D01*
X157187700Y-114714958D02*
X164007700Y-114714958D01*
X164007700Y-117624958D02*
X164007700Y-118934958D01*
X158787700Y-116189958D02*
X158787700Y-117459958D01*
X158787700Y-117459958D02*
X162407700Y-117459958D01*
X156947700Y-114474958D02*
X158330700Y-114474958D01*
X158787700Y-117149958D02*
X159994367Y-117149958D01*
X157187700Y-118934958D02*
X164007700Y-118934958D01*
X158787700Y-116429958D02*
X159994367Y-116429958D01*
X157187700Y-117624958D02*
X157187700Y-118934958D01*
X158787700Y-117389958D02*
X159994367Y-117389958D01*
X164007700Y-114714958D02*
X164007700Y-116024958D01*
X162407700Y-117459958D02*
X162407700Y-116189958D01*
X162407700Y-116189958D02*
X158787700Y-116189958D01*
X158787700Y-116789958D02*
X159994367Y-116789958D01*
X158787700Y-117269958D02*
X159994367Y-117269958D01*
X157187700Y-114714958D02*
X157187700Y-116024958D01*
X158787700Y-116909958D02*
X159994367Y-116909958D01*
%TO.C,R9*%
X159112700Y-87727064D02*
X159112700Y-87272936D01*
X160582700Y-87727064D02*
X160582700Y-87272936D01*
%TO.C,D145*%
X144519401Y-67078407D02*
X146135140Y-65462668D01*
X143479954Y-66038960D02*
X144519401Y-67078407D01*
X145095693Y-64423221D02*
X143479954Y-66038960D01*
%TO.C,D126*%
X171819401Y-62878407D02*
X173435140Y-61262668D01*
X172395693Y-60223221D02*
X170779954Y-61838960D01*
X170779954Y-61838960D02*
X171819401Y-62878407D01*
%TO.C,D256*%
X176019401Y-79678407D02*
X177635140Y-78062668D01*
X174979954Y-78638960D02*
X176019401Y-79678407D01*
X176595693Y-77023221D02*
X174979954Y-78638960D01*
%TO.C,D42*%
X163419401Y-52378407D02*
X165035140Y-50762668D01*
X162379954Y-51338960D02*
X163419401Y-52378407D01*
X163995693Y-49723221D02*
X162379954Y-51338960D01*
%TO.C,D107*%
X166095693Y-58123221D02*
X164479954Y-59738960D01*
X164479954Y-59738960D02*
X165519401Y-60778407D01*
X165519401Y-60778407D02*
X167135140Y-59162668D01*
%TO.C,R10*%
X159082700Y-83727064D02*
X159082700Y-83272936D01*
X157612700Y-83727064D02*
X157612700Y-83272936D01*
%TO.C,D160*%
X176019401Y-67078407D02*
X177635140Y-65462668D01*
X176595693Y-64423221D02*
X174979954Y-66038960D01*
X174979954Y-66038960D02*
X176019401Y-67078407D01*
%TO.C,D95*%
X173919401Y-58678407D02*
X175535140Y-57062668D01*
X172879954Y-57638960D02*
X173919401Y-58678407D01*
X174495693Y-56023221D02*
X172879954Y-57638960D01*
%TO.C,D242*%
X146619401Y-79678407D02*
X148235140Y-78062668D01*
X147195693Y-77023221D02*
X145579954Y-78638960D01*
X145579954Y-78638960D02*
X146619401Y-79678407D01*
%TO.C,D52*%
X149779954Y-53438960D02*
X150819401Y-54478407D01*
X150819401Y-54478407D02*
X152435140Y-52862668D01*
X151395693Y-51823221D02*
X149779954Y-53438960D01*
%TO.C,U5*%
X163245815Y-106489082D02*
X163581691Y-106824958D01*
X163581691Y-106824958D02*
X163245815Y-107160834D01*
X157613709Y-106824958D02*
X157949585Y-106489082D01*
X157949585Y-107160834D02*
X157613709Y-106824958D01*
X160597700Y-103840967D02*
X160261824Y-104176843D01*
X160933576Y-104176843D02*
X160597700Y-103840967D01*
X160261824Y-109473073D02*
X160597700Y-109808949D01*
%TO.C,D221*%
X169719401Y-75478407D02*
X171335140Y-73862668D01*
X170295693Y-72823221D02*
X168679954Y-74438960D01*
X168679954Y-74438960D02*
X169719401Y-75478407D01*
%TO.C,D117*%
X151879954Y-61838960D02*
X152919401Y-62878407D01*
X153495693Y-60223221D02*
X151879954Y-61838960D01*
X152919401Y-62878407D02*
X154535140Y-61262668D01*
%TO.C,D108*%
X168195693Y-58123221D02*
X166579954Y-59738960D01*
X166579954Y-59738960D02*
X167619401Y-60778407D01*
X167619401Y-60778407D02*
X169235140Y-59162668D01*
%TO.C,D110*%
X172395693Y-58123221D02*
X170779954Y-59738960D01*
X171819401Y-60778407D02*
X173435140Y-59162668D01*
X170779954Y-59738960D02*
X171819401Y-60778407D01*
%TO.C,D86*%
X153979954Y-57638960D02*
X155019401Y-58678407D01*
X155019401Y-58678407D02*
X156635140Y-57062668D01*
X155595693Y-56023221D02*
X153979954Y-57638960D01*
%TO.C,D30*%
X170779954Y-49238960D02*
X171819401Y-50278407D01*
X172395693Y-47623221D02*
X170779954Y-49238960D01*
X171819401Y-50278407D02*
X173435140Y-48662668D01*
%TO.C,D54*%
X155595693Y-51823221D02*
X153979954Y-53438960D01*
X155019401Y-54478407D02*
X156635140Y-52862668D01*
X153979954Y-53438960D02*
X155019401Y-54478407D01*
%TO.C,D197*%
X153495693Y-70723221D02*
X151879954Y-72338960D01*
X151879954Y-72338960D02*
X152919401Y-73378407D01*
X152919401Y-73378407D02*
X154535140Y-71762668D01*
%TO.C,D183*%
X157695693Y-68623221D02*
X156079954Y-70238960D01*
X157119401Y-71278407D02*
X158735140Y-69662668D01*
X156079954Y-70238960D02*
X157119401Y-71278407D01*
%TO.C,D237*%
X168679954Y-76538960D02*
X169719401Y-77578407D01*
X169719401Y-77578407D02*
X171335140Y-75962668D01*
X170295693Y-74923221D02*
X168679954Y-76538960D01*
%TO.C,D234*%
X163995693Y-74923221D02*
X162379954Y-76538960D01*
X163419401Y-77578407D02*
X165035140Y-75962668D01*
X162379954Y-76538960D02*
X163419401Y-77578407D01*
%TO.C,D22*%
X155019401Y-50278407D02*
X156635140Y-48662668D01*
X153979954Y-49238960D02*
X155019401Y-50278407D01*
X155595693Y-47623221D02*
X153979954Y-49238960D01*
%TO.C,D188*%
X167619401Y-71278407D02*
X169235140Y-69662668D01*
X166579954Y-70238960D02*
X167619401Y-71278407D01*
X168195693Y-68623221D02*
X166579954Y-70238960D01*
%TO.C,D80*%
X176019401Y-56578407D02*
X177635140Y-54962668D01*
X174979954Y-55538960D02*
X176019401Y-56578407D01*
X176595693Y-53923221D02*
X174979954Y-55538960D01*
%TO.C,D254*%
X171819401Y-79678407D02*
X173435140Y-78062668D01*
X170779954Y-78638960D02*
X171819401Y-79678407D01*
X172395693Y-77023221D02*
X170779954Y-78638960D01*
%TO.C,D5*%
X152919401Y-48178407D02*
X154535140Y-46562668D01*
X153495693Y-45523221D02*
X151879954Y-47138960D01*
X151879954Y-47138960D02*
X152919401Y-48178407D01*
%TO.C,D196*%
X151395693Y-70723221D02*
X149779954Y-72338960D01*
X149779954Y-72338960D02*
X150819401Y-73378407D01*
X150819401Y-73378407D02*
X152435140Y-71762668D01*
%TO.C,D113*%
X143479954Y-61838960D02*
X144519401Y-62878407D01*
X144519401Y-62878407D02*
X146135140Y-61262668D01*
X145095693Y-60223221D02*
X143479954Y-61838960D01*
%TO.C,PROG*%
X138300000Y-104120001D02*
X138300000Y-106720001D01*
X135700000Y-104120001D02*
X135700000Y-106720001D01*
X138300000Y-106720001D02*
X135700000Y-106720001D01*
X135700000Y-104120001D02*
X138300000Y-104120001D01*
%TO.C,D219*%
X164479954Y-74438960D02*
X165519401Y-75478407D01*
X165519401Y-75478407D02*
X167135140Y-73862668D01*
X166095693Y-72823221D02*
X164479954Y-74438960D01*
%TO.C,D73*%
X160279954Y-55538960D02*
X161319401Y-56578407D01*
X161319401Y-56578407D02*
X162935140Y-54962668D01*
X161895693Y-53923221D02*
X160279954Y-55538960D01*
%TO.C,D25*%
X161319401Y-50278407D02*
X162935140Y-48662668D01*
X160279954Y-49238960D02*
X161319401Y-50278407D01*
X161895693Y-47623221D02*
X160279954Y-49238960D01*
%TO.C,D214*%
X155019401Y-75478407D02*
X156635140Y-73862668D01*
X153979954Y-74438960D02*
X155019401Y-75478407D01*
X155595693Y-72823221D02*
X153979954Y-74438960D01*
%TO.C,D141*%
X170295693Y-62323221D02*
X168679954Y-63938960D01*
X169719401Y-64978407D02*
X171335140Y-63362668D01*
X168679954Y-63938960D02*
X169719401Y-64978407D01*
%TO.C,D91*%
X164479954Y-57638960D02*
X165519401Y-58678407D01*
X166095693Y-56023221D02*
X164479954Y-57638960D01*
X165519401Y-58678407D02*
X167135140Y-57062668D01*
%TO.C,D159*%
X174495693Y-64423221D02*
X172879954Y-66038960D01*
X173919401Y-67078407D02*
X175535140Y-65462668D01*
X172879954Y-66038960D02*
X173919401Y-67078407D01*
%TO.C,D89*%
X161895693Y-56023221D02*
X160279954Y-57638960D01*
X161319401Y-58678407D02*
X162935140Y-57062668D01*
X160279954Y-57638960D02*
X161319401Y-58678407D01*
%TO.C,D199*%
X157695693Y-70723221D02*
X156079954Y-72338960D01*
X156079954Y-72338960D02*
X157119401Y-73378407D01*
X157119401Y-73378407D02*
X158735140Y-71762668D01*
%TO.C,D144*%
X176595693Y-62323221D02*
X174979954Y-63938960D01*
X176019401Y-64978407D02*
X177635140Y-63362668D01*
X174979954Y-63938960D02*
X176019401Y-64978407D01*
%TO.C,D39*%
X157119401Y-52378407D02*
X158735140Y-50762668D01*
X157695693Y-49723221D02*
X156079954Y-51338960D01*
X156079954Y-51338960D02*
X157119401Y-52378407D01*
%TO.C,D189*%
X169719401Y-71278407D02*
X171335140Y-69662668D01*
X168679954Y-70238960D02*
X169719401Y-71278407D01*
X170295693Y-68623221D02*
X168679954Y-70238960D01*
%TO.C,D106*%
X163995693Y-58123221D02*
X162379954Y-59738960D01*
X163419401Y-60778407D02*
X165035140Y-59162668D01*
X162379954Y-59738960D02*
X163419401Y-60778407D01*
%TO.C,D212*%
X150819401Y-75478407D02*
X152435140Y-73862668D01*
X151395693Y-72823221D02*
X149779954Y-74438960D01*
X149779954Y-74438960D02*
X150819401Y-75478407D01*
%TO.C,D180*%
X150819401Y-71278407D02*
X152435140Y-69662668D01*
X151395693Y-68623221D02*
X149779954Y-70238960D01*
X149779954Y-70238960D02*
X150819401Y-71278407D01*
%TO.C,D96*%
X176595693Y-56023221D02*
X174979954Y-57638960D01*
X176019401Y-58678407D02*
X177635140Y-57062668D01*
X174979954Y-57638960D02*
X176019401Y-58678407D01*
%TO.C,R16*%
X148612700Y-83727064D02*
X148612700Y-83272936D01*
X150082700Y-83727064D02*
X150082700Y-83272936D01*
%TO.C,D45*%
X170295693Y-49723221D02*
X168679954Y-51338960D01*
X169719401Y-52378407D02*
X171335140Y-50762668D01*
X168679954Y-51338960D02*
X169719401Y-52378407D01*
%TO.C,R7*%
X163582700Y-87727064D02*
X163582700Y-87272936D01*
X162112700Y-87727064D02*
X162112700Y-87272936D01*
%TO.C,D20*%
X149779954Y-49238960D02*
X150819401Y-50278407D01*
X151395693Y-47623221D02*
X149779954Y-49238960D01*
X150819401Y-50278407D02*
X152435140Y-48662668D01*
%TO.C,D21*%
X152919401Y-50278407D02*
X154535140Y-48662668D01*
X151879954Y-49238960D02*
X152919401Y-50278407D01*
X153495693Y-47623221D02*
X151879954Y-49238960D01*
%TO.C,D157*%
X170295693Y-64423221D02*
X168679954Y-66038960D01*
X168679954Y-66038960D02*
X169719401Y-67078407D01*
X169719401Y-67078407D02*
X171335140Y-65462668D01*
%TO.C,D218*%
X163995693Y-72823221D02*
X162379954Y-74438960D01*
X162379954Y-74438960D02*
X163419401Y-75478407D01*
X163419401Y-75478407D02*
X165035140Y-73862668D01*
%TO.C,D64*%
X176595693Y-51823221D02*
X174979954Y-53438960D01*
X174979954Y-53438960D02*
X176019401Y-54478407D01*
X176019401Y-54478407D02*
X177635140Y-52862668D01*
%TO.C,D19*%
X147679954Y-49238960D02*
X148719401Y-50278407D01*
X149295693Y-47623221D02*
X147679954Y-49238960D01*
X148719401Y-50278407D02*
X150335140Y-48662668D01*
%TO.C,D133*%
X152919401Y-64978407D02*
X154535140Y-63362668D01*
X153495693Y-62323221D02*
X151879954Y-63938960D01*
X151879954Y-63938960D02*
X152919401Y-64978407D01*
%TO.C,D17*%
X144519401Y-50278407D02*
X146135140Y-48662668D01*
X145095693Y-47623221D02*
X143479954Y-49238960D01*
X143479954Y-49238960D02*
X144519401Y-50278407D01*
%TO.C,D173*%
X168679954Y-68138960D02*
X169719401Y-69178407D01*
X170295693Y-66523221D02*
X168679954Y-68138960D01*
X169719401Y-69178407D02*
X171335140Y-67562668D01*
%TO.C,D115*%
X149295693Y-60223221D02*
X147679954Y-61838960D01*
X147679954Y-61838960D02*
X148719401Y-62878407D01*
X148719401Y-62878407D02*
X150335140Y-61262668D01*
%TO.C,D48*%
X176019401Y-52378407D02*
X177635140Y-50762668D01*
X176595693Y-49723221D02*
X174979954Y-51338960D01*
X174979954Y-51338960D02*
X176019401Y-52378407D01*
%TO.C,D47*%
X174495693Y-49723221D02*
X172879954Y-51338960D01*
X172879954Y-51338960D02*
X173919401Y-52378407D01*
X173919401Y-52378407D02*
X175535140Y-50762668D01*
%TO.C,D151*%
X157119401Y-67078407D02*
X158735140Y-65462668D01*
X157695693Y-64423221D02*
X156079954Y-66038960D01*
X156079954Y-66038960D02*
X157119401Y-67078407D01*
%TO.C,D49*%
X144519401Y-54478407D02*
X146135140Y-52862668D01*
X145095693Y-51823221D02*
X143479954Y-53438960D01*
X143479954Y-53438960D02*
X144519401Y-54478407D01*
%TO.C,D93*%
X170295693Y-56023221D02*
X168679954Y-57638960D01*
X169719401Y-58678407D02*
X171335140Y-57062668D01*
X168679954Y-57638960D02*
X169719401Y-58678407D01*
%TO.C,D34*%
X146619401Y-52378407D02*
X148235140Y-50762668D01*
X147195693Y-49723221D02*
X145579954Y-51338960D01*
X145579954Y-51338960D02*
X146619401Y-52378407D01*
%TO.C,D169*%
X160279954Y-68138960D02*
X161319401Y-69178407D01*
X161319401Y-69178407D02*
X162935140Y-67562668D01*
X161895693Y-66523221D02*
X160279954Y-68138960D01*
%TO.C,D192*%
X174979954Y-70238960D02*
X176019401Y-71278407D01*
X176019401Y-71278407D02*
X177635140Y-69662668D01*
X176595693Y-68623221D02*
X174979954Y-70238960D01*
%TO.C,R8*%
X162082700Y-83727064D02*
X162082700Y-83272936D01*
X160612700Y-83727064D02*
X160612700Y-83272936D01*
%TO.C,TP4*%
X153608000Y-117032000D02*
X152208000Y-117032000D01*
X153608000Y-115632000D02*
X153608000Y-117032000D01*
X152208000Y-117032000D02*
X152208000Y-115632000D01*
X152208000Y-115632000D02*
X153608000Y-115632000D01*
%TO.C,D130*%
X146619401Y-64978407D02*
X148235140Y-63362668D01*
X147195693Y-62323221D02*
X145579954Y-63938960D01*
X145579954Y-63938960D02*
X146619401Y-64978407D01*
%TO.C,D134*%
X155019401Y-64978407D02*
X156635140Y-63362668D01*
X155595693Y-62323221D02*
X153979954Y-63938960D01*
X153979954Y-63938960D02*
X155019401Y-64978407D01*
%TO.C,D98*%
X146619401Y-60778407D02*
X148235140Y-59162668D01*
X147195693Y-58123221D02*
X145579954Y-59738960D01*
X145579954Y-59738960D02*
X146619401Y-60778407D01*
%TO.C,D194*%
X145579954Y-72338960D02*
X146619401Y-73378407D01*
X147195693Y-70723221D02*
X145579954Y-72338960D01*
X146619401Y-73378407D02*
X148235140Y-71762668D01*
%TO.C,TP5*%
X155640000Y-118048000D02*
X154240000Y-118048000D01*
X155640000Y-116648000D02*
X155640000Y-118048000D01*
X154240000Y-118048000D02*
X154240000Y-116648000D01*
X154240000Y-116648000D02*
X155640000Y-116648000D01*
%TO.C,D125*%
X169719401Y-62878407D02*
X171335140Y-61262668D01*
X168679954Y-61838960D02*
X169719401Y-62878407D01*
X170295693Y-60223221D02*
X168679954Y-61838960D01*
%TO.C,D178*%
X147195693Y-68623221D02*
X145579954Y-70238960D01*
X146619401Y-71278407D02*
X148235140Y-69662668D01*
X145579954Y-70238960D02*
X146619401Y-71278407D01*
%TO.C,D12*%
X166579954Y-47138960D02*
X167619401Y-48178407D01*
X167619401Y-48178407D02*
X169235140Y-46562668D01*
X168195693Y-45523221D02*
X166579954Y-47138960D01*
%TO.C,D121*%
X161319401Y-62878407D02*
X162935140Y-61262668D01*
X161895693Y-60223221D02*
X160279954Y-61838960D01*
X160279954Y-61838960D02*
X161319401Y-62878407D01*
%TO.C,D59*%
X166095693Y-51823221D02*
X164479954Y-53438960D01*
X165519401Y-54478407D02*
X167135140Y-52862668D01*
X164479954Y-53438960D02*
X165519401Y-54478407D01*
%TO.C,D217*%
X161319401Y-75478407D02*
X162935140Y-73862668D01*
X160279954Y-74438960D02*
X161319401Y-75478407D01*
X161895693Y-72823221D02*
X160279954Y-74438960D01*
%TO.C,D201*%
X161319401Y-73378407D02*
X162935140Y-71762668D01*
X161895693Y-70723221D02*
X160279954Y-72338960D01*
X160279954Y-72338960D02*
X161319401Y-73378407D01*
%TD*%
%LPC*%
D14*
%TO.C,U4*%
X185445000Y-83635000D03*
X184175000Y-83635000D03*
X182905000Y-83635000D03*
X181635000Y-83635000D03*
X180365000Y-83635000D03*
X179095000Y-83635000D03*
X177825000Y-83635000D03*
X176555000Y-83635000D03*
X176555000Y-89085000D03*
X177825000Y-89085000D03*
X179095000Y-89085000D03*
X180365000Y-89085000D03*
X181635000Y-89085000D03*
X182905000Y-89085000D03*
X184175000Y-89085000D03*
X185445000Y-89085000D03*
%TD*%
%TO.C,U3*%
X144695000Y-83635000D03*
X143425000Y-83635000D03*
X142155000Y-83635000D03*
X140885000Y-83635000D03*
X139615000Y-83635000D03*
X138345000Y-83635000D03*
X137075000Y-83635000D03*
X135805000Y-83635000D03*
X135805000Y-89085000D03*
X137075000Y-89085000D03*
X138345000Y-89085000D03*
X139615000Y-89085000D03*
X140885000Y-89085000D03*
X142155000Y-89085000D03*
X143425000Y-89085000D03*
X144695000Y-89085000D03*
%TD*%
%TO.C,U2*%
X172042700Y-93635000D03*
X170772700Y-93635000D03*
X169502700Y-93635000D03*
X168232700Y-93635000D03*
X166962700Y-93635000D03*
X165692700Y-93635000D03*
X164422700Y-93635000D03*
X163152700Y-93635000D03*
X163152700Y-99085000D03*
X164422700Y-99085000D03*
X165692700Y-99085000D03*
X166962700Y-99085000D03*
X168232700Y-99085000D03*
X169502700Y-99085000D03*
X170772700Y-99085000D03*
X172042700Y-99085000D03*
%TD*%
%TO.C,U1*%
X158042700Y-93635000D03*
X156772700Y-93635000D03*
X155502700Y-93635000D03*
X154232700Y-93635000D03*
X152962700Y-93635000D03*
X151692700Y-93635000D03*
X150422700Y-93635000D03*
X149152700Y-93635000D03*
X149152700Y-99085000D03*
X150422700Y-99085000D03*
X151692700Y-99085000D03*
X152962700Y-99085000D03*
X154232700Y-99085000D03*
X155502700Y-99085000D03*
X156772700Y-99085000D03*
X158042700Y-99085000D03*
%TD*%
D15*
%TO.C,CLK*%
X153670000Y-106172000D03*
%TD*%
D16*
%TO.C,D190*%
X171792884Y-70265477D03*
X172906578Y-69151783D03*
%TD*%
D17*
%TO.C,R2*%
X170347700Y-84500000D03*
X170347700Y-82500000D03*
%TD*%
D16*
%TO.C,D7*%
X157092884Y-47165477D03*
X158206578Y-46051783D03*
%TD*%
%TO.C,D32*%
X175992884Y-49265477D03*
X177106578Y-48151783D03*
%TD*%
%TO.C,D69*%
X152892884Y-55565477D03*
X154006578Y-54451783D03*
%TD*%
%TO.C,D36*%
X150792884Y-51365477D03*
X151906578Y-50251783D03*
%TD*%
%TO.C,D129*%
X144492884Y-63965477D03*
X145606578Y-62851783D03*
%TD*%
%TO.C,D155*%
X165492884Y-66065477D03*
X166606578Y-64951783D03*
%TD*%
%TO.C,D132*%
X150792884Y-63965477D03*
X151906578Y-62851783D03*
%TD*%
%TO.C,D227*%
X148692884Y-76565477D03*
X149806578Y-75451783D03*
%TD*%
%TO.C,D28*%
X167592884Y-49265477D03*
X168706578Y-48151783D03*
%TD*%
%TO.C,D58*%
X163392884Y-53465477D03*
X164506578Y-52351783D03*
%TD*%
%TO.C,D181*%
X152892884Y-70265477D03*
X154006578Y-69151783D03*
%TD*%
%TO.C,D163*%
X148692884Y-68165477D03*
X149806578Y-67051783D03*
%TD*%
%TO.C,D204*%
X167592884Y-72365477D03*
X168706578Y-71251783D03*
%TD*%
%TO.C,D235*%
X165492884Y-76565477D03*
X166606578Y-75451783D03*
%TD*%
%TO.C,D11*%
X165492884Y-47165477D03*
X166606578Y-46051783D03*
%TD*%
%TO.C,D164*%
X150792884Y-68165477D03*
X151906578Y-67051783D03*
%TD*%
%TO.C,D84*%
X150792884Y-57665477D03*
X151906578Y-56551783D03*
%TD*%
%TO.C,D38*%
X154992884Y-51365477D03*
X156106578Y-50251783D03*
%TD*%
%TO.C,D225*%
X144492884Y-76565477D03*
X145606578Y-75451783D03*
%TD*%
%TO.C,D186*%
X163392884Y-70265477D03*
X164506578Y-69151783D03*
%TD*%
%TO.C,D191*%
X173892884Y-70265477D03*
X175006578Y-69151783D03*
%TD*%
%TO.C,D1*%
X144492884Y-47165477D03*
X145606578Y-46051783D03*
%TD*%
%TO.C,D120*%
X159192884Y-61865477D03*
X160306578Y-60751783D03*
%TD*%
%TO.C,D18*%
X146592884Y-49265477D03*
X147706578Y-48151783D03*
%TD*%
%TO.C,D184*%
X159192884Y-70265477D03*
X160306578Y-69151783D03*
%TD*%
%TO.C,D171*%
X165492884Y-68165477D03*
X166606578Y-67051783D03*
%TD*%
%TO.C,D65*%
X144492884Y-55565477D03*
X145606578Y-54451783D03*
%TD*%
%TO.C,D26*%
X163392884Y-49265477D03*
X164506578Y-48151783D03*
%TD*%
%TO.C,D57*%
X161292884Y-53465477D03*
X162406578Y-52351783D03*
%TD*%
%TO.C,D195*%
X148692884Y-72365477D03*
X149806578Y-71251783D03*
%TD*%
%TO.C,D97*%
X144492884Y-59765477D03*
X145606578Y-58651783D03*
%TD*%
%TO.C,D168*%
X159192884Y-68165477D03*
X160306578Y-67051783D03*
%TD*%
%TO.C,D179*%
X148692884Y-70265477D03*
X149806578Y-69151783D03*
%TD*%
%TO.C,D72*%
X159192884Y-55565477D03*
X160306578Y-54451783D03*
%TD*%
%TO.C,D220*%
X167592884Y-74465477D03*
X168706578Y-73351783D03*
%TD*%
%TO.C,D143*%
X173892884Y-63965477D03*
X175006578Y-62851783D03*
%TD*%
%TO.C,D8*%
X159192884Y-47165477D03*
X160306578Y-46051783D03*
%TD*%
%TO.C,D112*%
X175992884Y-59765477D03*
X177106578Y-58651783D03*
%TD*%
%TO.C,D255*%
X173892884Y-78665477D03*
X175006578Y-77551783D03*
%TD*%
%TO.C,D252*%
X167592884Y-78665477D03*
X168706578Y-77551783D03*
%TD*%
%TO.C,D60*%
X167592884Y-53465477D03*
X168706578Y-52351783D03*
%TD*%
%TO.C,D165*%
X152892884Y-68165477D03*
X154006578Y-67051783D03*
%TD*%
%TO.C,D148*%
X150792884Y-66065477D03*
X151906578Y-64951783D03*
%TD*%
D18*
%TO.C,TP6*%
X167640000Y-115200000D03*
%TD*%
D16*
%TO.C,D35*%
X148692884Y-51365477D03*
X149806578Y-50251783D03*
%TD*%
%TO.C,D210*%
X146592884Y-74465477D03*
X147706578Y-73351783D03*
%TD*%
%TO.C,D152*%
X159192884Y-66065477D03*
X160306578Y-64951783D03*
%TD*%
%TO.C,D105*%
X161292884Y-59765477D03*
X162406578Y-58651783D03*
%TD*%
%TO.C,D150*%
X154992884Y-66065477D03*
X156106578Y-64951783D03*
%TD*%
%TO.C,D228*%
X150792884Y-76565477D03*
X151906578Y-75451783D03*
%TD*%
%TO.C,D238*%
X171792884Y-76565477D03*
X172906578Y-75451783D03*
%TD*%
%TO.C,D153*%
X161292884Y-66065477D03*
X162406578Y-64951783D03*
%TD*%
%TO.C,D248*%
X159192884Y-78665477D03*
X160306578Y-77551783D03*
%TD*%
%TO.C,D200*%
X159192884Y-72365477D03*
X160306578Y-71251783D03*
%TD*%
D18*
%TO.C,TP7*%
X158496000Y-102750000D03*
%TD*%
D16*
%TO.C,D250*%
X163392884Y-78665477D03*
X164506578Y-77551783D03*
%TD*%
D17*
%TO.C,R6*%
X164347700Y-84500000D03*
X164347700Y-82500000D03*
%TD*%
%TO.C,R3*%
X168847700Y-88500000D03*
X168847700Y-86500000D03*
%TD*%
D16*
%TO.C,D211*%
X148692884Y-74465477D03*
X149806578Y-73351783D03*
%TD*%
%TO.C,D182*%
X154992884Y-70265477D03*
X156106578Y-69151783D03*
%TD*%
%TO.C,D122*%
X163392884Y-61865477D03*
X164506578Y-60751783D03*
%TD*%
%TO.C,D128*%
X175992884Y-61865477D03*
X177106578Y-60751783D03*
%TD*%
%TO.C,D202*%
X163392884Y-72365477D03*
X164506578Y-71251783D03*
%TD*%
%TO.C,D223*%
X173892884Y-74465477D03*
X175006578Y-73351783D03*
%TD*%
%TO.C,D208*%
X175992884Y-72365477D03*
X177106578Y-71251783D03*
%TD*%
%TO.C,D6*%
X154992884Y-47165477D03*
X156106578Y-46051783D03*
%TD*%
%TO.C,D149*%
X152892884Y-66065477D03*
X154006578Y-64951783D03*
%TD*%
%TO.C,D2*%
X146592884Y-47165477D03*
X147706578Y-46051783D03*
%TD*%
%TO.C,D118*%
X154992884Y-61865477D03*
X156106578Y-60751783D03*
%TD*%
%TO.C,D70*%
X154992884Y-55565477D03*
X156106578Y-54451783D03*
%TD*%
%TO.C,D170*%
X163392884Y-68165477D03*
X164506578Y-67051783D03*
%TD*%
%TO.C,D131*%
X148692884Y-63965477D03*
X149806578Y-62851783D03*
%TD*%
%TO.C,D147*%
X148692884Y-66065477D03*
X149806578Y-64951783D03*
%TD*%
%TO.C,D61*%
X169692884Y-53465477D03*
X170806578Y-52351783D03*
%TD*%
%TO.C,D175*%
X173892884Y-68165477D03*
X175006578Y-67051783D03*
%TD*%
%TO.C,D139*%
X165492884Y-63965477D03*
X166606578Y-62851783D03*
%TD*%
%TO.C,D240*%
X175992884Y-76565477D03*
X177106578Y-75451783D03*
%TD*%
%TO.C,D127*%
X173892884Y-61865477D03*
X175006578Y-60751783D03*
%TD*%
%TO.C,D50*%
X146592884Y-53465477D03*
X147706578Y-52351783D03*
%TD*%
D15*
%TO.C,GND*%
X137000000Y-110500000D03*
%TD*%
D16*
%TO.C,D205*%
X169692884Y-72365477D03*
X170806578Y-71251783D03*
%TD*%
%TO.C,D154*%
X163392884Y-66065477D03*
X164506578Y-64951783D03*
%TD*%
%TO.C,D90*%
X163392884Y-57665477D03*
X164506578Y-56551783D03*
%TD*%
%TO.C,D229*%
X152892884Y-76565477D03*
X154006578Y-75451783D03*
%TD*%
%TO.C,D16*%
X175992884Y-47165477D03*
X177106578Y-46051783D03*
%TD*%
%TO.C,D251*%
X165492884Y-78665477D03*
X166606578Y-77551783D03*
%TD*%
%TO.C,D41*%
X161292884Y-51365477D03*
X162406578Y-50251783D03*
%TD*%
%TO.C,D124*%
X167592884Y-61865477D03*
X168706578Y-60751783D03*
%TD*%
%TO.C,D3*%
X148692884Y-47165477D03*
X149806578Y-46051783D03*
%TD*%
%TO.C,D46*%
X171792884Y-51365477D03*
X172906578Y-50251783D03*
%TD*%
D17*
%TO.C,R5*%
X165847700Y-88500000D03*
X165847700Y-86500000D03*
%TD*%
D16*
%TO.C,D206*%
X171792884Y-72365477D03*
X172906578Y-71251783D03*
%TD*%
%TO.C,D162*%
X146592884Y-68165477D03*
X147706578Y-67051783D03*
%TD*%
%TO.C,D13*%
X169692884Y-47165477D03*
X170806578Y-46051783D03*
%TD*%
%TO.C,D207*%
X173892884Y-72365477D03*
X175006578Y-71251783D03*
%TD*%
%TO.C,D233*%
X161292884Y-76565477D03*
X162406578Y-75451783D03*
%TD*%
%TO.C,D103*%
X157092884Y-59765477D03*
X158206578Y-58651783D03*
%TD*%
%TO.C,D83*%
X148692884Y-57665477D03*
X149806578Y-56551783D03*
%TD*%
%TO.C,D29*%
X169692884Y-49265477D03*
X170806578Y-48151783D03*
%TD*%
%TO.C,D123*%
X165492884Y-61865477D03*
X166606578Y-60751783D03*
%TD*%
D19*
%TO.C,SW3*%
X170594000Y-116824958D03*
X177324000Y-116824958D03*
%TD*%
D17*
%TO.C,R15*%
X150847700Y-88500000D03*
X150847700Y-86500000D03*
%TD*%
D16*
%TO.C,D55*%
X157092884Y-53465477D03*
X158206578Y-52351783D03*
%TD*%
%TO.C,D87*%
X157092884Y-57665477D03*
X158206578Y-56551783D03*
%TD*%
%TO.C,D231*%
X157092884Y-76565477D03*
X158206578Y-75451783D03*
%TD*%
%TO.C,D62*%
X171792884Y-53465477D03*
X172906578Y-52351783D03*
%TD*%
%TO.C,D116*%
X150792884Y-61865477D03*
X151906578Y-60751783D03*
%TD*%
%TO.C,D31*%
X173892884Y-49265477D03*
X175006578Y-48151783D03*
%TD*%
%TO.C,D88*%
X159192884Y-57665477D03*
X160306578Y-56551783D03*
%TD*%
%TO.C,D161*%
X144492884Y-68165477D03*
X145606578Y-67051783D03*
%TD*%
%TO.C,D85*%
X152892884Y-57665477D03*
X154006578Y-56551783D03*
%TD*%
%TO.C,D215*%
X157092884Y-74465477D03*
X158206578Y-73351783D03*
%TD*%
%TO.C,D203*%
X165492884Y-72365477D03*
X166606578Y-71251783D03*
%TD*%
%TO.C,D101*%
X152892884Y-59765477D03*
X154006578Y-58651783D03*
%TD*%
%TO.C,D10*%
X163392884Y-47165477D03*
X164506578Y-46051783D03*
%TD*%
%TO.C,D27*%
X165492884Y-49265477D03*
X166606578Y-48151783D03*
%TD*%
%TO.C,D114*%
X146592884Y-61865477D03*
X147706578Y-60751783D03*
%TD*%
D17*
%TO.C,R13*%
X153847700Y-88500000D03*
X153847700Y-86500000D03*
%TD*%
D16*
%TO.C,D253*%
X169692884Y-78665477D03*
X170806578Y-77551783D03*
%TD*%
%TO.C,D82*%
X146592884Y-57665477D03*
X147706578Y-56551783D03*
%TD*%
%TO.C,D109*%
X169692884Y-59765477D03*
X170806578Y-58651783D03*
%TD*%
%TO.C,D236*%
X167592884Y-76565477D03*
X168706578Y-75451783D03*
%TD*%
D17*
%TO.C,R4*%
X167347700Y-84500000D03*
X167347700Y-82500000D03*
%TD*%
D16*
%TO.C,D226*%
X146592884Y-76565477D03*
X147706578Y-75451783D03*
%TD*%
%TO.C,D232*%
X159192884Y-76565477D03*
X160306578Y-75451783D03*
%TD*%
%TO.C,D74*%
X163392884Y-55565477D03*
X164506578Y-54451783D03*
%TD*%
D17*
%TO.C,R1*%
X171847700Y-88500000D03*
X171847700Y-86500000D03*
%TD*%
D16*
%TO.C,D67*%
X148692884Y-55565477D03*
X149806578Y-54451783D03*
%TD*%
%TO.C,D33*%
X144492884Y-51365477D03*
X145606578Y-50251783D03*
%TD*%
%TO.C,D140*%
X167592884Y-63965477D03*
X168706578Y-62851783D03*
%TD*%
%TO.C,D71*%
X157092884Y-55565477D03*
X158206578Y-54451783D03*
%TD*%
%TO.C,D66*%
X146592884Y-55565477D03*
X147706578Y-54451783D03*
%TD*%
%TO.C,D104*%
X159192884Y-59765477D03*
X160306578Y-58651783D03*
%TD*%
%TO.C,D209*%
X144492884Y-74465477D03*
X145606578Y-73351783D03*
%TD*%
%TO.C,D78*%
X171792884Y-55565477D03*
X172906578Y-54451783D03*
%TD*%
%TO.C,D136*%
X159192884Y-63965477D03*
X160306578Y-62851783D03*
%TD*%
D15*
%TO.C,VCC*%
X137000000Y-107960000D03*
%TD*%
D16*
%TO.C,D99*%
X148692884Y-59765477D03*
X149806578Y-58651783D03*
%TD*%
%TO.C,D102*%
X154992884Y-59765477D03*
X156106578Y-58651783D03*
%TD*%
%TO.C,D111*%
X173892884Y-59765477D03*
X175006578Y-58651783D03*
%TD*%
%TO.C,D135*%
X157092884Y-63965477D03*
X158206578Y-62851783D03*
%TD*%
%TO.C,D37*%
X152892884Y-51365477D03*
X154006578Y-50251783D03*
%TD*%
%TO.C,D241*%
X144492884Y-78665477D03*
X145606578Y-77551783D03*
%TD*%
D17*
%TO.C,R12*%
X155347700Y-84500000D03*
X155347700Y-82500000D03*
%TD*%
D16*
%TO.C,D53*%
X152892884Y-53465477D03*
X154006578Y-52351783D03*
%TD*%
D17*
%TO.C,R14*%
X152347700Y-84500000D03*
X152347700Y-82500000D03*
%TD*%
D16*
%TO.C,D15*%
X173892884Y-47165477D03*
X175006578Y-46051783D03*
%TD*%
%TO.C,D4*%
X150792884Y-47165477D03*
X151906578Y-46051783D03*
%TD*%
%TO.C,D100*%
X150792884Y-59765477D03*
X151906578Y-58651783D03*
%TD*%
%TO.C,D187*%
X165492884Y-70265477D03*
X166606578Y-69151783D03*
%TD*%
%TO.C,D56*%
X159192884Y-53465477D03*
X160306578Y-52351783D03*
%TD*%
%TO.C,D24*%
X159192884Y-49265477D03*
X160306578Y-48151783D03*
%TD*%
%TO.C,D166*%
X154992884Y-68165477D03*
X156106578Y-67051783D03*
%TD*%
D18*
%TO.C,TP9*%
X156250000Y-102750000D03*
%TD*%
D16*
%TO.C,D249*%
X161292884Y-78665477D03*
X162406578Y-77551783D03*
%TD*%
%TO.C,D68*%
X150792884Y-55565477D03*
X151906578Y-54451783D03*
%TD*%
%TO.C,D224*%
X175992884Y-74465477D03*
X177106578Y-73351783D03*
%TD*%
%TO.C,D158*%
X171792884Y-66065477D03*
X172906578Y-64951783D03*
%TD*%
D19*
%TO.C,SW1*%
X143871400Y-116824958D03*
X150601400Y-116824958D03*
%TD*%
D17*
%TO.C,R11*%
X156847700Y-88500000D03*
X156847700Y-86500000D03*
%TD*%
D16*
%TO.C,D246*%
X154992884Y-78665477D03*
X156106578Y-77551783D03*
%TD*%
%TO.C,D75*%
X165492884Y-55565477D03*
X166606578Y-54451783D03*
%TD*%
%TO.C,D119*%
X157092884Y-61865477D03*
X158206578Y-60751783D03*
%TD*%
%TO.C,D198*%
X154992884Y-72365477D03*
X156106578Y-71251783D03*
%TD*%
%TO.C,D176*%
X175992884Y-68165477D03*
X177106578Y-67051783D03*
%TD*%
%TO.C,D9*%
X161292884Y-47165477D03*
X162406578Y-46051783D03*
%TD*%
D18*
%TO.C,TP8*%
X153924000Y-102750000D03*
%TD*%
D16*
%TO.C,D137*%
X161292884Y-63965477D03*
X162406578Y-62851783D03*
%TD*%
%TO.C,D43*%
X165492884Y-51365477D03*
X166606578Y-50251783D03*
%TD*%
%TO.C,D63*%
X173892884Y-53465477D03*
X175006578Y-52351783D03*
%TD*%
%TO.C,D174*%
X171792884Y-68165477D03*
X172906578Y-67051783D03*
%TD*%
%TO.C,D92*%
X167592884Y-57665477D03*
X168706578Y-56551783D03*
%TD*%
%TO.C,D185*%
X161292884Y-70265477D03*
X162406578Y-69151783D03*
%TD*%
%TO.C,D142*%
X171792884Y-63965477D03*
X172906578Y-62851783D03*
%TD*%
%TO.C,D193*%
X144492884Y-72365477D03*
X145606578Y-71251783D03*
%TD*%
%TO.C,D40*%
X159192884Y-51365477D03*
X160306578Y-50251783D03*
%TD*%
%TO.C,D244*%
X150792884Y-78665477D03*
X151906578Y-77551783D03*
%TD*%
%TO.C,D94*%
X171792884Y-57665477D03*
X172906578Y-56551783D03*
%TD*%
%TO.C,D243*%
X148692884Y-78665477D03*
X149806578Y-77551783D03*
%TD*%
%TO.C,D216*%
X159192884Y-74465477D03*
X160306578Y-73351783D03*
%TD*%
%TO.C,D156*%
X167592884Y-66065477D03*
X168706578Y-64951783D03*
%TD*%
%TO.C,D14*%
X171792884Y-47165477D03*
X172906578Y-46051783D03*
%TD*%
%TO.C,D239*%
X173892884Y-76565477D03*
X175006578Y-75451783D03*
%TD*%
%TO.C,D177*%
X144492884Y-70265477D03*
X145606578Y-69151783D03*
%TD*%
%TO.C,D245*%
X152892884Y-78665477D03*
X154006578Y-77551783D03*
%TD*%
%TO.C,D230*%
X154992884Y-76565477D03*
X156106578Y-75451783D03*
%TD*%
%TO.C,D222*%
X171792884Y-74465477D03*
X172906578Y-73351783D03*
%TD*%
%TO.C,D51*%
X148692884Y-53465477D03*
X149806578Y-52351783D03*
%TD*%
%TO.C,D167*%
X157092884Y-68165477D03*
X158206578Y-67051783D03*
%TD*%
%TO.C,D76*%
X167592884Y-55565477D03*
X168706578Y-54451783D03*
%TD*%
%TO.C,D138*%
X163392884Y-63965477D03*
X164506578Y-62851783D03*
%TD*%
%TO.C,D77*%
X169692884Y-55565477D03*
X170806578Y-54451783D03*
%TD*%
%TO.C,D23*%
X157092884Y-49265477D03*
X158206578Y-48151783D03*
%TD*%
%TO.C,D81*%
X144492884Y-57665477D03*
X145606578Y-56551783D03*
%TD*%
%TO.C,D172*%
X167592884Y-68165477D03*
X168706578Y-67051783D03*
%TD*%
%TO.C,D213*%
X152892884Y-74465477D03*
X154006578Y-73351783D03*
%TD*%
%TO.C,D247*%
X157092884Y-78665477D03*
X158206578Y-77551783D03*
%TD*%
%TO.C,D146*%
X146592884Y-66065477D03*
X147706578Y-64951783D03*
%TD*%
%TO.C,D44*%
X167592884Y-51365477D03*
X168706578Y-50251783D03*
%TD*%
%TO.C,D79*%
X173892884Y-55565477D03*
X175006578Y-54451783D03*
%TD*%
D19*
%TO.C,SW2*%
X157232700Y-116824958D03*
X163962700Y-116824958D03*
%TD*%
D17*
%TO.C,R9*%
X159847700Y-88500000D03*
X159847700Y-86500000D03*
%TD*%
D16*
%TO.C,D145*%
X144492884Y-66065477D03*
X145606578Y-64951783D03*
%TD*%
%TO.C,D126*%
X171792884Y-61865477D03*
X172906578Y-60751783D03*
%TD*%
%TO.C,D256*%
X175992884Y-78665477D03*
X177106578Y-77551783D03*
%TD*%
%TO.C,D42*%
X163392884Y-51365477D03*
X164506578Y-50251783D03*
%TD*%
%TO.C,D107*%
X165492884Y-59765477D03*
X166606578Y-58651783D03*
%TD*%
D17*
%TO.C,R10*%
X158347700Y-84500000D03*
X158347700Y-82500000D03*
%TD*%
D16*
%TO.C,D160*%
X175992884Y-66065477D03*
X177106578Y-64951783D03*
%TD*%
%TO.C,D95*%
X173892884Y-57665477D03*
X175006578Y-56551783D03*
%TD*%
%TO.C,D242*%
X146592884Y-78665477D03*
X147706578Y-77551783D03*
%TD*%
%TO.C,D52*%
X150792884Y-53465477D03*
X151906578Y-52351783D03*
%TD*%
D20*
%TO.C,U5*%
X161083836Y-109078861D03*
X161437389Y-108725307D03*
X161790943Y-108371754D03*
X162144496Y-108018201D03*
X162498049Y-107664647D03*
X162851603Y-107311094D03*
D21*
X162851603Y-106338822D03*
X162498049Y-105985269D03*
X162144496Y-105631715D03*
X161790943Y-105278162D03*
X161437389Y-104924609D03*
X161083836Y-104571055D03*
D20*
X160111564Y-104571055D03*
X159758011Y-104924609D03*
X159404457Y-105278162D03*
X159050904Y-105631715D03*
X158697351Y-105985269D03*
X158343797Y-106338822D03*
D21*
X158343797Y-107311094D03*
X158697351Y-107664647D03*
X159050904Y-108018201D03*
X159404457Y-108371754D03*
X159758011Y-108725307D03*
X160111564Y-109078861D03*
D22*
X160597700Y-106824958D03*
%TD*%
D16*
%TO.C,D221*%
X169692884Y-74465477D03*
X170806578Y-73351783D03*
%TD*%
%TO.C,D117*%
X152892884Y-61865477D03*
X154006578Y-60751783D03*
%TD*%
%TO.C,D108*%
X167592884Y-59765477D03*
X168706578Y-58651783D03*
%TD*%
%TO.C,D110*%
X171792884Y-59765477D03*
X172906578Y-58651783D03*
%TD*%
%TO.C,D86*%
X154992884Y-57665477D03*
X156106578Y-56551783D03*
%TD*%
%TO.C,D30*%
X171792884Y-49265477D03*
X172906578Y-48151783D03*
%TD*%
%TO.C,D54*%
X154992884Y-53465477D03*
X156106578Y-52351783D03*
%TD*%
%TO.C,D197*%
X152892884Y-72365477D03*
X154006578Y-71251783D03*
%TD*%
%TO.C,D183*%
X157092884Y-70265477D03*
X158206578Y-69151783D03*
%TD*%
%TO.C,D237*%
X169692884Y-76565477D03*
X170806578Y-75451783D03*
%TD*%
%TO.C,D234*%
X163392884Y-76565477D03*
X164506578Y-75451783D03*
%TD*%
%TO.C,D22*%
X154992884Y-49265477D03*
X156106578Y-48151783D03*
%TD*%
%TO.C,D188*%
X167592884Y-70265477D03*
X168706578Y-69151783D03*
%TD*%
%TO.C,D80*%
X175992884Y-55565477D03*
X177106578Y-54451783D03*
%TD*%
%TO.C,D254*%
X171792884Y-78665477D03*
X172906578Y-77551783D03*
%TD*%
%TO.C,D5*%
X152892884Y-47165477D03*
X154006578Y-46051783D03*
%TD*%
%TO.C,D196*%
X150792884Y-72365477D03*
X151906578Y-71251783D03*
%TD*%
%TO.C,D113*%
X144492884Y-61865477D03*
X145606578Y-60751783D03*
%TD*%
D15*
%TO.C,PROG*%
X137000000Y-105420001D03*
%TD*%
D16*
%TO.C,D219*%
X165492884Y-74465477D03*
X166606578Y-73351783D03*
%TD*%
%TO.C,D73*%
X161292884Y-55565477D03*
X162406578Y-54451783D03*
%TD*%
%TO.C,D25*%
X161292884Y-49265477D03*
X162406578Y-48151783D03*
%TD*%
%TO.C,D214*%
X154992884Y-74465477D03*
X156106578Y-73351783D03*
%TD*%
%TO.C,D141*%
X169692884Y-63965477D03*
X170806578Y-62851783D03*
%TD*%
%TO.C,D91*%
X165492884Y-57665477D03*
X166606578Y-56551783D03*
%TD*%
%TO.C,D159*%
X173892884Y-66065477D03*
X175006578Y-64951783D03*
%TD*%
%TO.C,D89*%
X161292884Y-57665477D03*
X162406578Y-56551783D03*
%TD*%
%TO.C,D199*%
X157092884Y-72365477D03*
X158206578Y-71251783D03*
%TD*%
%TO.C,D144*%
X175992884Y-63965477D03*
X177106578Y-62851783D03*
%TD*%
%TO.C,D39*%
X157092884Y-51365477D03*
X158206578Y-50251783D03*
%TD*%
%TO.C,D189*%
X169692884Y-70265477D03*
X170806578Y-69151783D03*
%TD*%
%TO.C,D106*%
X163392884Y-59765477D03*
X164506578Y-58651783D03*
%TD*%
%TO.C,D212*%
X150792884Y-74465477D03*
X151906578Y-73351783D03*
%TD*%
%TO.C,D180*%
X150792884Y-70265477D03*
X151906578Y-69151783D03*
%TD*%
%TO.C,D96*%
X175992884Y-57665477D03*
X177106578Y-56551783D03*
%TD*%
D17*
%TO.C,R16*%
X149347700Y-84500000D03*
X149347700Y-82500000D03*
%TD*%
D16*
%TO.C,D45*%
X169692884Y-51365477D03*
X170806578Y-50251783D03*
%TD*%
D17*
%TO.C,R7*%
X162847700Y-88500000D03*
X162847700Y-86500000D03*
%TD*%
D16*
%TO.C,D20*%
X150792884Y-49265477D03*
X151906578Y-48151783D03*
%TD*%
%TO.C,D21*%
X152892884Y-49265477D03*
X154006578Y-48151783D03*
%TD*%
%TO.C,D157*%
X169692884Y-66065477D03*
X170806578Y-64951783D03*
%TD*%
%TO.C,D218*%
X163392884Y-74465477D03*
X164506578Y-73351783D03*
%TD*%
%TO.C,D64*%
X175992884Y-53465477D03*
X177106578Y-52351783D03*
%TD*%
%TO.C,D19*%
X148692884Y-49265477D03*
X149806578Y-48151783D03*
%TD*%
%TO.C,D133*%
X152892884Y-63965477D03*
X154006578Y-62851783D03*
%TD*%
%TO.C,D17*%
X144492884Y-49265477D03*
X145606578Y-48151783D03*
%TD*%
%TO.C,D173*%
X169692884Y-68165477D03*
X170806578Y-67051783D03*
%TD*%
%TO.C,D115*%
X148692884Y-61865477D03*
X149806578Y-60751783D03*
%TD*%
%TO.C,D48*%
X175992884Y-51365477D03*
X177106578Y-50251783D03*
%TD*%
%TO.C,D47*%
X173892884Y-51365477D03*
X175006578Y-50251783D03*
%TD*%
%TO.C,D151*%
X157092884Y-66065477D03*
X158206578Y-64951783D03*
%TD*%
%TO.C,D49*%
X144492884Y-53465477D03*
X145606578Y-52351783D03*
%TD*%
%TO.C,D93*%
X169692884Y-57665477D03*
X170806578Y-56551783D03*
%TD*%
%TO.C,D34*%
X146592884Y-51365477D03*
X147706578Y-50251783D03*
%TD*%
%TO.C,D169*%
X161292884Y-68165477D03*
X162406578Y-67051783D03*
%TD*%
%TO.C,D192*%
X175992884Y-70265477D03*
X177106578Y-69151783D03*
%TD*%
D17*
%TO.C,R8*%
X161347700Y-84500000D03*
X161347700Y-82500000D03*
%TD*%
D18*
%TO.C,TP4*%
X152908000Y-116332000D03*
%TD*%
D16*
%TO.C,D130*%
X146592884Y-63965477D03*
X147706578Y-62851783D03*
%TD*%
%TO.C,D134*%
X154992884Y-63965477D03*
X156106578Y-62851783D03*
%TD*%
%TO.C,D98*%
X146592884Y-59765477D03*
X147706578Y-58651783D03*
%TD*%
%TO.C,D194*%
X146592884Y-72365477D03*
X147706578Y-71251783D03*
%TD*%
D18*
%TO.C,TP5*%
X154940000Y-117348000D03*
%TD*%
D16*
%TO.C,D125*%
X169692884Y-61865477D03*
X170806578Y-60751783D03*
%TD*%
%TO.C,D178*%
X146592884Y-70265477D03*
X147706578Y-69151783D03*
%TD*%
%TO.C,D12*%
X167592884Y-47165477D03*
X168706578Y-46051783D03*
%TD*%
%TO.C,D121*%
X161292884Y-61865477D03*
X162406578Y-60751783D03*
%TD*%
%TO.C,D59*%
X165492884Y-53465477D03*
X166606578Y-52351783D03*
%TD*%
%TO.C,D217*%
X161292884Y-74465477D03*
X162406578Y-73351783D03*
%TD*%
%TO.C,D201*%
X161292884Y-72365477D03*
X162406578Y-71251783D03*
%TD*%
M02*
